<svg width="2013" height="1000" viewBox="0 0 2013 1000" fill="none" xmlns="http://www.w3.org/2000/svg">
<g clip-path="url(#clip0_943_612)">
<rect width="2013" height="1000" fill="white"/>
<g clip-path="url(#clip1_943_612)">
<path d="M223.684 185.28L216.457 183.344C215.94 183.205 215.389 183.458 215.123 183.956C209.116 195.232 211.782 208.831 206.032 220.175C205.676 220.876 206.024 221.723 206.741 221.916L213.39 223.697C220.264 211.814 216.81 197.163 223.684 185.28V185.28Z" fill="#FF473E"/>
<path d="M231.775 187.449L223.683 185.28C216.81 197.164 220.264 211.814 213.39 223.697L221.482 225.865C228.355 213.982 224.901 199.332 231.775 187.449Z" fill="#0B67B2"/>
<path d="M238.738 189.314L231.775 187.449C224.901 199.332 228.355 213.982 221.482 225.865L229.023 227.886C229.54 228.024 230.091 227.772 230.357 227.273C236.364 215.998 233.698 202.399 239.448 191.055C239.803 190.354 239.456 189.507 238.738 189.314Z" fill="#E8E8E8"/>
</g>
<g clip-path="url(#clip2_943_612)">
<path d="M294.27 373.253L295.332 368.867C295.385 368.646 295.248 368.421 295.027 368.367L284.353 365.783C284.132 365.73 283.995 365.505 284.048 365.284L284.982 361.428C285.035 361.207 285.26 361.07 285.481 361.123L290.772 362.404C290.993 362.458 291.218 362.321 291.271 362.1L292.332 357.717C292.386 357.496 292.249 357.272 292.028 357.218L286.737 355.937C286.516 355.884 286.378 355.659 286.432 355.438L287.537 350.874C287.59 350.653 287.453 350.429 287.232 350.375L282.85 349.314C282.629 349.261 282.404 349.398 282.35 349.619L281.247 354.178C281.193 354.399 280.968 354.536 280.747 354.483L275.456 353.202C275.235 353.148 275.01 353.285 274.957 353.507L273.895 357.893C273.841 358.114 273.979 358.339 274.2 358.392L279.491 359.673C279.712 359.727 279.849 359.951 279.795 360.173L278.862 364.028C278.808 364.249 278.584 364.386 278.362 364.333L267.688 361.749C267.467 361.695 267.242 361.832 267.189 362.053L266.127 366.44C266.073 366.661 266.21 366.885 266.432 366.939L277.106 369.523C277.327 369.577 277.464 369.801 277.411 370.023L274.169 383.411C274.153 383.478 274.12 383.54 274.074 383.591C274.027 383.642 273.969 383.68 273.904 383.703C273.839 383.726 273.769 383.732 273.701 383.721C273.633 383.71 273.568 383.682 273.514 383.639L269.087 380.231C268.85 380.05 268.502 380.17 268.432 380.46L267.388 384.77C267.35 384.926 267.408 385.093 267.537 385.193L272.548 389.053C272.677 389.153 272.734 389.32 272.697 389.477L270.426 398.856C270.372 399.077 270.509 399.302 270.73 399.356L275.117 400.418C275.338 400.471 275.563 400.334 275.616 400.113L277.24 393.407C277.256 393.34 277.289 393.278 277.335 393.227C277.382 393.176 277.44 393.137 277.505 393.114C277.57 393.092 277.64 393.086 277.708 393.097C277.776 393.108 277.841 393.136 277.895 393.178L282.321 396.591C282.558 396.771 282.906 396.651 282.976 396.362L284.02 392.052C284.058 391.895 284 391.728 283.871 391.629L278.86 387.768C278.797 387.72 278.75 387.654 278.723 387.579C278.697 387.503 278.693 387.422 278.711 387.345L282.601 371.279C282.655 371.058 282.879 370.921 283.1 370.975L293.771 373.558C293.992 373.611 294.216 373.474 294.27 373.253Z" fill="#F79229" stroke="#F79229" stroke-width="1.5625" stroke-miterlimit="10"/>
</g>
<g clip-path="url(#clip3_943_612)">
<path d="M254.58 221.866L256.382 222.849C256.473 222.898 256.588 222.865 256.638 222.774L259.03 218.387C259.08 218.296 259.195 218.262 259.286 218.312L260.87 219.176C260.961 219.226 260.995 219.341 260.945 219.432L259.759 221.606C259.71 221.697 259.744 221.812 259.834 221.861L261.635 222.843C261.726 222.893 261.841 222.859 261.891 222.768L263.077 220.594C263.126 220.503 263.241 220.469 263.332 220.519L265.207 221.542C265.298 221.591 265.413 221.558 265.463 221.467L266.445 219.666C266.494 219.575 266.461 219.46 266.37 219.41L264.496 218.389C264.405 218.339 264.371 218.224 264.421 218.133L265.607 215.959C265.656 215.868 265.623 215.753 265.532 215.704L263.729 214.72C263.638 214.671 263.524 214.705 263.474 214.796L262.288 216.97C262.238 217.061 262.124 217.094 262.033 217.045L260.448 216.181C260.357 216.131 260.324 216.016 260.373 215.925L262.766 211.539C262.815 211.448 262.781 211.333 262.691 211.283L260.888 210.3C260.797 210.251 260.682 210.285 260.633 210.375L258.24 214.762C258.191 214.853 258.076 214.887 257.985 214.837L252.483 211.836C252.455 211.821 252.432 211.799 252.415 211.773C252.398 211.747 252.388 211.716 252.386 211.685C252.383 211.654 252.389 211.622 252.402 211.594C252.415 211.565 252.435 211.54 252.46 211.521L254.479 209.977C254.586 209.894 254.574 209.727 254.456 209.662L252.684 208.696C252.62 208.661 252.54 208.667 252.481 208.712L250.194 210.459C250.135 210.504 250.055 210.51 249.991 210.475L246.136 208.372C246.045 208.323 245.93 208.357 245.881 208.447L244.898 210.25C244.848 210.341 244.882 210.456 244.973 210.505L247.729 212.008C247.756 212.024 247.779 212.045 247.796 212.072C247.813 212.098 247.824 212.128 247.826 212.16C247.828 212.191 247.823 212.222 247.81 212.251C247.797 212.28 247.777 212.304 247.752 212.323L245.731 213.867C245.624 213.949 245.636 214.117 245.754 214.182L247.526 215.148C247.59 215.183 247.67 215.177 247.729 215.132L250.016 213.385C250.045 213.363 250.079 213.349 250.115 213.347C250.151 213.344 250.187 213.352 250.219 213.369L256.821 216.97C256.912 217.02 256.946 217.135 256.897 217.225L254.505 221.61C254.455 221.701 254.489 221.816 254.58 221.866Z" fill="#F79229" stroke="#F79229" stroke-width="1.5625" stroke-miterlimit="10"/>
</g>
<g clip-path="url(#clip4_943_612)">
<path d="M467.01 678.695L462.648 677.537C462.428 677.479 462.2 677.611 462.142 677.831L459.324 688.446C459.266 688.666 459.038 688.798 458.818 688.739L454.984 687.722C454.764 687.663 454.632 687.435 454.69 687.216L456.087 681.954C456.145 681.734 456.013 681.506 455.793 681.448L451.435 680.291C451.216 680.233 450.988 680.365 450.929 680.585L449.533 685.846C449.474 686.066 449.247 686.198 449.027 686.14L444.489 684.935C444.269 684.877 444.041 685.009 443.983 685.229L442.826 689.587C442.768 689.807 442.9 690.035 443.12 690.093L447.654 691.297C447.873 691.355 448.006 691.583 447.947 691.803L446.55 697.064C446.492 697.284 446.624 697.512 446.844 697.57L451.206 698.728C451.426 698.786 451.654 698.654 451.712 698.434L453.109 693.173C453.167 692.953 453.395 692.821 453.615 692.879L457.449 693.897C457.669 693.955 457.801 694.183 457.743 694.403L454.925 705.018C454.866 705.238 454.998 705.465 455.218 705.524L459.58 706.682C459.8 706.74 460.028 706.608 460.086 706.388L462.904 695.773C462.963 695.553 463.19 695.421 463.41 695.479L476.724 699.014C476.791 699.032 476.852 699.066 476.902 699.113C476.952 699.161 476.989 699.22 477.01 699.286C477.032 699.351 477.036 699.421 477.024 699.489C477.011 699.557 476.982 699.621 476.938 699.674L473.433 704.025C473.247 704.258 473.36 704.609 473.648 704.685L477.934 705.823C478.089 705.865 478.258 705.811 478.36 705.684L482.33 700.759C482.432 700.632 482.6 700.578 482.756 700.619L492.084 703.096C492.303 703.154 492.531 703.022 492.59 702.802L493.747 698.44C493.806 698.22 493.674 697.992 493.454 697.934L486.785 696.164C486.718 696.146 486.657 696.112 486.607 696.064C486.557 696.017 486.52 695.957 486.498 695.892C486.477 695.826 486.473 695.756 486.485 695.688C486.498 695.62 486.527 695.557 486.571 695.503L490.079 691.153C490.265 690.92 490.153 690.57 489.865 690.493L485.579 689.355C485.423 689.314 485.255 689.368 485.153 689.495L481.183 694.42C481.133 694.482 481.066 694.528 480.991 694.552C480.915 694.577 480.834 694.579 480.757 694.559L464.78 690.318C464.56 690.26 464.428 690.032 464.487 689.812L467.304 679.201C467.362 678.981 467.23 678.753 467.01 678.695Z" fill="#F79229" stroke="#F79229" stroke-width="1.5625" stroke-miterlimit="10"/>
</g>
<g clip-path="url(#clip5_943_612)">
<path d="M721.147 558.501L720.482 562.398C720.448 562.594 720.582 562.782 720.778 562.816L730.261 564.435C730.457 564.468 730.591 564.656 730.557 564.853L729.972 568.278C729.939 568.474 729.751 568.608 729.554 568.574L724.854 567.772C724.657 567.738 724.469 567.872 724.436 568.068L723.771 571.961C723.738 572.158 723.871 572.346 724.067 572.379L728.768 573.182C728.964 573.215 729.097 573.403 729.064 573.6L728.372 577.654C728.338 577.85 728.471 578.038 728.668 578.072L732.561 578.736C732.757 578.77 732.946 578.637 732.979 578.44L733.671 574.39C733.704 574.193 733.892 574.06 734.089 574.094L738.789 574.896C738.985 574.93 739.174 574.796 739.207 574.6L739.872 570.703C739.906 570.507 739.773 570.319 739.576 570.285L734.876 569.483C734.679 569.449 734.546 569.261 734.58 569.065L735.164 565.639C735.198 565.443 735.386 565.31 735.583 565.343L745.065 566.962C745.262 566.995 745.45 566.862 745.483 566.666L746.149 562.769C746.182 562.573 746.049 562.384 745.852 562.351L736.37 560.732C736.173 560.699 736.04 560.51 736.074 560.314L738.104 548.42C738.114 548.361 738.139 548.305 738.177 548.257C738.214 548.21 738.263 548.173 738.319 548.149C738.374 548.125 738.435 548.116 738.495 548.121C738.555 548.127 738.613 548.148 738.663 548.181L742.736 550.895C742.954 551.038 743.251 550.913 743.295 550.656L743.948 546.827C743.972 546.687 743.912 546.545 743.793 546.466L739.183 543.392C739.064 543.313 739.004 543.171 739.028 543.031L740.45 534.699C740.484 534.502 740.35 534.314 740.154 534.281L736.257 533.615C736.061 533.582 735.873 533.715 735.839 533.912L734.822 539.869C734.812 539.929 734.787 539.985 734.749 540.032C734.712 540.079 734.663 540.117 734.607 540.14C734.552 540.164 734.491 540.174 734.431 540.168C734.371 540.162 734.313 540.142 734.263 540.108L730.191 537.391C729.973 537.247 729.676 537.373 729.632 537.63L728.978 541.459C728.954 541.598 729.015 541.741 729.133 541.82L733.744 544.893C733.802 544.932 733.847 544.987 733.875 545.051C733.902 545.115 733.911 545.186 733.899 545.254L731.463 559.527C731.429 559.723 731.241 559.857 731.044 559.823L721.565 558.205C721.369 558.171 721.181 558.305 721.147 558.501Z" fill="#F79229" stroke="#F79229" stroke-width="1.5625" stroke-miterlimit="10"/>
</g>
<g clip-path="url(#clip6_943_612)">
<path d="M1014.83 283.021L1011.46 286.013C1011.28 286.164 1011.27 286.426 1011.42 286.597L1018.7 294.819C1018.85 294.989 1018.84 295.252 1018.67 295.403L1015.7 298.033C1015.53 298.184 1015.26 298.168 1015.11 297.997L1011.5 293.922C1011.35 293.752 1011.09 293.736 1010.92 293.886L1007.54 296.876C1007.37 297.027 1007.36 297.289 1007.51 297.46L1011.12 301.535C1011.27 301.705 1011.25 301.968 1011.08 302.119L1007.57 305.232C1007.4 305.383 1007.38 305.645 1007.53 305.816L1010.52 309.191C1010.67 309.362 1010.93 309.377 1011.1 309.227L1014.62 306.117C1014.79 305.966 1015.05 305.982 1015.2 306.152L1018.81 310.228C1018.96 310.398 1019.22 310.414 1019.39 310.263L1022.77 307.271C1022.94 307.12 1022.96 306.857 1022.81 306.687L1019.2 302.612C1019.05 302.441 1019.06 302.179 1019.23 302.028L1022.2 299.398C1022.37 299.247 1022.64 299.263 1022.79 299.433L1030.07 307.655C1030.22 307.826 1030.48 307.842 1030.65 307.691L1034.03 304.699C1034.2 304.548 1034.22 304.285 1034.07 304.115L1026.79 295.893C1026.63 295.722 1026.65 295.46 1026.82 295.309L1037.13 286.177C1037.18 286.131 1037.25 286.099 1037.31 286.084C1037.38 286.068 1037.45 286.07 1037.52 286.088C1037.58 286.107 1037.65 286.142 1037.69 286.19C1037.74 286.238 1037.78 286.298 1037.8 286.364L1039.49 291.691C1039.58 291.975 1039.93 292.075 1040.15 291.878L1043.47 288.938C1043.59 288.831 1043.64 288.661 1043.59 288.506L1041.69 282.474C1041.64 282.318 1041.69 282.148 1041.81 282.041L1049.03 275.643C1049.2 275.492 1049.22 275.23 1049.07 275.059L1046.08 271.681C1045.93 271.51 1045.66 271.494 1045.49 271.645L1040.33 276.22C1040.28 276.265 1040.21 276.297 1040.15 276.313C1040.08 276.328 1040.01 276.326 1039.94 276.308C1039.88 276.289 1039.82 276.254 1039.77 276.206C1039.72 276.158 1039.68 276.098 1039.66 276.032L1037.98 270.703C1037.89 270.419 1037.53 270.318 1037.31 270.516L1033.99 273.455C1033.87 273.562 1033.82 273.732 1033.87 273.888L1035.78 279.92C1035.8 279.996 1035.8 280.077 1035.78 280.154C1035.76 280.23 1035.71 280.299 1035.66 280.352L1023.28 291.311C1023.11 291.462 1022.85 291.446 1022.7 291.275L1015.42 283.056C1015.27 282.886 1015 282.87 1014.83 283.021Z" fill="#F79229" stroke="#F79229" stroke-width="1.5625" stroke-miterlimit="10"/>
</g>
<path d="M203.746 663.961L205.288 665.188C205.779 665.589 206.469 666.106 207.139 666.683L209.518 668.698C210.435 669.464 211.295 670.278 212.334 671.196C213.345 672.108 214.5 673.116 215.554 674.156L219.087 677.54C220.297 678.732 221.451 679.965 222.744 681.287C228.315 687.002 233.484 693.098 238.214 699.532C240.758 702.939 243.076 706.466 245.371 710.144C247.549 713.792 249.689 717.588 251.526 721.447C253.357 725.282 254.959 729.222 256.324 733.245C257.647 737.204 258.692 741.249 259.45 745.35C260.939 753.489 261.13 761.715 259.858 769.843C259.26 773.918 258.109 777.919 257.035 781.993C255.901 786.052 254.707 790.148 253.349 794.237C250.638 802.561 247.493 810.734 243.926 818.721C240.342 826.815 236.242 834.775 231.775 842.499C229.526 846.35 227.183 850.143 224.747 853.876C222.307 857.577 219.776 861.217 217.158 864.792C211.918 871.893 206.395 878.638 200.67 884.908C195.151 890.974 189.335 896.76 183.243 902.245C171.611 912.764 160.131 921.068 151.255 926.663L148.065 928.637L145.169 930.355L140.408 933.017L137.298 934.626L136.182 935.165L135.453 934.148L133.473 931.22L130.535 926.565L128.795 923.645L126.916 920.358C121.734 911.122 115.533 898.238 110.235 883.333C107.45 875.548 105.048 867.633 103.036 859.618C100.94 851.322 99.2426 842.705 97.9624 833.916C97.3355 829.5 96.8156 825.07 96.4032 820.631C96.0162 816.178 95.7214 811.696 95.5526 807.212C95.2425 798.251 95.3663 789.261 96.0046 780.404C96.6088 771.65 97.6702 762.937 99.1845 754.302C99.9054 750.048 100.772 745.867 101.677 741.749C102.639 737.646 103.501 733.57 104.884 729.699C107.571 721.936 111.588 714.801 116.706 708.374C119.293 705.139 122.104 702.093 125.119 699.258C128.201 696.387 131.454 693.705 134.858 691.226C138.278 688.729 141.937 686.434 145.557 684.288C149.295 682.173 152.982 680.203 156.814 678.447C163.981 675.094 171.377 672.253 178.948 669.942C180.702 669.41 182.293 668.889 183.915 668.43L188.604 667.175C190.017 666.775 191.504 666.45 192.819 666.141C194.162 665.839 195.298 665.544 196.463 665.317L199.496 664.704C200.355 664.523 201.204 664.404 201.822 664.291C203.089 664.072 203.746 663.961 203.746 663.961V663.961Z" fill="#FF7B00"/>
<path d="M137.486 147.853L136.765 148.386C136.531 148.555 136.223 148.797 135.89 149.024L134.725 149.832C134.28 150.145 133.821 150.427 133.296 150.775C132.776 151.112 132.197 151.501 131.616 151.842L129.712 152.996C129.046 153.387 128.368 153.749 127.635 154.162C124.468 155.937 121.18 157.491 117.796 158.811C115.999 159.528 114.176 160.132 112.289 160.708C110.43 161.235 108.51 161.728 106.597 162.081C104.696 162.434 102.776 162.674 100.848 162.8C98.9523 162.916 97.0517 162.899 95.1601 162.749C91.4081 162.445 87.7707 161.56 84.3485 160.044C82.6281 159.301 81.0052 158.325 79.3414 157.373C77.6913 156.397 76.0319 155.389 74.3949 154.311C71.0558 152.14 67.8346 149.795 64.7447 147.287C61.61 144.759 58.5945 142.02 55.7262 139.148C54.2988 137.706 52.9076 136.229 51.5539 134.719C50.2149 133.211 48.9134 131.67 47.6505 130.099C45.1468 126.96 42.8332 123.738 40.7518 120.484C38.7362 117.345 36.8784 114.108 35.1852 110.785C31.9322 104.434 29.6346 98.4115 28.2211 93.852L27.7295 92.2178L27.3152 90.7427L26.7063 88.3371L26.3653 86.781L26.26 86.2269L26.7927 86.0263L28.3123 85.5012L30.7042 84.7582L32.1923 84.3372L33.8579 83.8983C38.5269 82.709 44.9191 81.5007 52.0932 80.9279C55.8421 80.6207 59.6032 80.4967 63.3626 80.5564C67.2551 80.6124 71.2414 80.881 75.2547 81.3534C77.2691 81.5979 79.277 81.891 81.2766 82.2326C83.2789 82.5868 85.2831 82.985 87.2736 83.4388C91.2483 84.3578 95.1844 85.4708 99.0015 86.7942C102.777 88.0906 106.481 89.5829 110.098 91.2652C111.882 92.0829 113.617 92.9559 115.32 93.8385C117.01 94.7447 118.7 95.6034 120.239 96.6667C123.333 98.7618 125.996 101.367 128.218 104.373C129.335 105.891 130.342 107.485 131.233 109.144C132.132 110.836 132.928 112.581 133.616 114.369C134.311 116.167 134.888 118.045 135.405 119.888C135.895 121.78 136.326 123.632 136.647 125.523C137.276 129.067 137.654 132.652 137.778 136.251C137.805 137.084 137.847 137.845 137.857 138.612L137.857 140.82C137.866 141.488 137.834 142.18 137.815 142.795C137.789 143.42 137.785 143.954 137.748 144.493L137.66 145.898C137.638 146.297 137.591 146.684 137.567 146.969C137.515 147.551 137.486 147.853 137.486 147.853V147.853Z" fill="#FF7B00"/>
<path d="M1293.16 151.028L1293.07 149.059C1293.04 148.426 1292.98 147.567 1292.97 146.682L1292.92 143.565C1292.89 142.37 1292.93 141.187 1292.94 139.801C1292.96 138.439 1292.95 136.906 1293.04 135.429L1293.25 130.541C1293.35 128.845 1293.52 127.165 1293.66 125.321C1294.28 117.364 1295.46 109.458 1297.18 101.661C1298.06 97.5008 1299.19 93.4333 1300.44 89.2821C1301.74 85.2399 1303.19 81.1278 1304.88 77.2024C1306.55 73.2969 1308.46 69.4946 1310.58 65.8158C1312.69 62.211 1315.04 58.7588 1317.62 55.4848C1322.76 48.9991 1328.82 43.4317 1335.77 39.0291C1339.23 36.7917 1343 35.0186 1346.77 33.1405C1350.57 31.3167 1354.43 29.5139 1358.4 27.8387C1366.45 24.3886 1374.67 21.3649 1383.02 18.7802C1391.47 16.139 1400.16 13.9725 1408.91 12.2385C1413.29 11.3904 1417.69 10.651 1422.1 10.0211C1426.49 9.41581 1430.9 8.91852 1435.31 8.52967C1444.11 7.7873 1452.82 7.49327 1461.31 7.66307C1469.51 7.81357 1477.69 8.37148 1485.83 9.33476C1501.41 11.1449 1515.22 14.3007 1525.28 17.2855L1528.87 18.3827L1532.07 19.4268L1537.21 21.2518L1540.47 22.5289L1541.61 23.013L1541.33 24.2315L1540.43 27.65L1538.87 32.9287L1537.82 36.1624L1536.59 39.7422C1533.06 49.7276 1527.46 62.8852 1519.75 76.6956C1515.73 83.9222 1511.37 90.9471 1506.67 97.7448C1501.81 104.79 1496.45 111.747 1490.69 118.505C1487.78 121.888 1484.79 125.199 1481.73 128.437C1478.63 131.663 1475.46 134.84 1472.2 137.923C1465.67 144.065 1458.82 149.9 1451.74 155.259C1444.76 160.577 1437.51 165.523 1430.02 170.078C1426.35 172.341 1422.64 174.446 1418.94 176.48C1415.22 178.462 1411.59 180.502 1407.77 182.015C1400.16 185.113 1392.15 186.796 1383.94 187.186C1379.8 187.374 1375.66 187.269 1371.54 186.871C1367.35 186.447 1363.19 185.77 1359.08 184.845C1354.95 183.92 1350.81 182.682 1346.81 181.375C1342.75 179.96 1338.84 178.486 1334.99 176.763C1327.75 173.585 1320.74 169.898 1314.01 165.729C1312.45 164.761 1311.01 163.908 1309.59 162.991L1305.56 160.294C1304.33 159.495 1303.1 158.591 1302 157.806C1300.89 156.996 1299.92 156.337 1298.98 155.61L1296.52 153.733C1295.82 153.207 1295.17 152.647 1294.68 152.257C1293.68 151.449 1293.16 151.028 1293.16 151.028V151.028Z" fill="#FF7B00"/>
<path d="M755.66 775.579L756.922 774.064C757.333 773.582 757.865 772.904 758.457 772.246L760.523 769.912C761.309 769.012 762.142 768.17 763.082 767.152C764.016 766.16 765.049 765.028 766.112 763.997L769.573 760.54C770.791 759.356 772.049 758.23 773.399 756.966C779.235 751.521 785.444 746.487 791.98 741.9C795.442 739.431 799.019 737.192 802.746 734.977C806.441 732.881 810.284 730.824 814.182 729.073C818.056 727.326 822.03 725.81 826.082 724.534C830.069 723.298 834.136 722.343 838.253 721.675C846.422 720.365 854.65 720.355 862.749 721.805C866.81 722.492 870.785 723.73 874.834 724.894C878.867 726.116 882.936 727.4 886.994 728.847C895.257 731.741 903.359 735.065 911.266 738.805C919.278 742.567 927.147 746.84 934.771 751.476C938.571 753.808 942.313 756.235 945.991 758.752C949.638 761.273 953.221 763.882 956.738 766.578C963.722 771.973 970.344 777.643 976.487 783.504C982.43 789.155 988.087 795.097 993.437 801.307C1003.7 813.168 1011.75 824.827 1017.15 833.824L1019.05 837.056L1020.71 839.989L1023.26 844.808L1024.8 847.952L1025.32 849.08L1024.28 849.786L1021.31 851.701L1016.59 854.536L1013.64 856.212L1010.31 858.019C1000.96 862.996 987.945 868.914 972.927 873.883C965.083 876.496 957.117 878.724 949.059 880.56C940.719 882.473 932.068 883.981 923.253 885.068C918.824 885.598 914.384 886.02 909.936 886.335C905.476 886.624 900.989 886.82 896.502 886.891C887.536 887.004 878.551 886.683 869.71 885.85C860.971 885.054 852.284 883.802 843.685 882.098C839.448 881.284 835.287 880.326 831.19 879.331C827.109 878.278 823.053 877.327 819.212 875.86C811.511 873.003 804.466 868.83 798.152 863.572C794.975 860.916 791.991 858.038 789.223 854.962C786.421 851.817 783.81 848.507 781.407 845.049C778.986 841.574 776.771 837.866 774.706 834.2C772.673 830.416 770.784 826.687 769.113 822.818C765.918 815.579 763.24 808.122 761.096 800.502C760.602 798.737 760.116 797.135 759.693 795.503L758.541 790.788C758.173 789.366 757.88 787.873 757.601 786.551C757.328 785.202 757.057 784.06 756.856 782.89L756.31 779.844C756.148 778.981 756.048 778.13 755.949 777.509C755.757 776.238 755.66 775.579 755.66 775.579V775.579Z" fill="#FF7B00"/>
<path d="M782.838 299.038L781.417 298.057C780.964 297.737 780.33 297.326 779.71 296.862L777.51 295.244C776.663 294.629 775.862 293.969 774.9 293.23C773.961 292.493 772.892 291.682 771.908 290.836L768.619 288.09C767.49 287.121 766.408 286.113 765.198 285.035C759.987 280.375 755.105 275.357 750.587 270.018C748.159 267.193 745.923 264.25 743.696 261.173C741.575 258.116 739.477 254.926 737.641 251.664C735.811 248.423 734.175 245.076 732.741 241.642C731.348 238.262 730.192 234.79 729.284 231.251C727.496 224.228 726.836 217.051 727.461 209.872C727.739 206.275 728.505 202.71 729.2 199.085C729.947 195.47 730.745 191.82 731.687 188.165C733.557 180.728 735.816 173.398 738.454 166.204C741.102 158.917 744.207 151.715 747.648 144.698C749.383 141.198 751.204 137.743 753.109 134.334C755.019 130.954 757.013 127.622 759.086 124.341C763.24 117.821 767.663 111.596 772.29 105.774C776.749 100.143 781.485 94.7386 786.48 89.5803C796.015 79.6911 805.549 71.7464 812.971 66.3255L815.64 64.41L818.068 62.7344L822.069 60.1236L824.69 58.5312L825.633 57.9933L826.331 58.8384L828.236 61.278L831.083 65.1704L832.779 67.6178L834.618 70.3771C839.699 78.1381 845.89 89.0254 851.412 101.734C854.312 108.37 856.886 115.142 859.124 122.026C861.453 129.15 863.452 136.578 865.097 144.182C865.91 148.003 866.63 151.843 867.256 155.698C867.861 159.566 868.387 163.465 868.803 167.373C869.611 175.186 870.041 183.049 870.014 190.827C870.01 198.513 869.605 206.191 868.799 213.827C868.424 217.588 867.917 221.293 867.373 224.946C866.777 228.589 866.269 232.203 865.293 235.669C863.409 242.613 860.326 249.089 856.238 255.012C854.172 257.994 851.898 260.824 849.433 263.482C846.911 266.176 844.23 268.714 841.404 271.084C838.564 273.472 835.505 275.696 832.47 277.788C829.33 279.861 826.226 281.803 822.983 283.567C816.921 286.926 810.628 289.853 804.15 292.325C802.649 292.895 801.29 293.446 799.9 293.944L795.878 295.322C794.667 295.756 793.387 296.129 792.256 296.477C791.101 296.822 790.126 297.148 789.121 297.416L786.507 298.133C785.767 298.343 785.033 298.498 784.499 298.633C783.406 298.901 782.838 299.038 782.838 299.038V299.038Z" fill="#FF7B00"/>
<path fill-rule="evenodd" clip-rule="evenodd" d="M256.224 400.638C241.457 407.864 227.009 416.49 223.902 419.934C222.306 421.705 222.999 423.684 229.292 435.319C233.264 442.664 236.331 449.39 236.331 449.39C236.331 449.39 231.264 452.573 225.295 455.585L214.441 461.062L250.852 470.314L254.458 471.23L294.476 481.398L299.299 478.89C303.571 476.669 304.297 475.693 305.653 470.357C307.612 462.647 306.158 453.656 301.063 441.97C296.249 430.927 282.454 408.279 275.41 399.852L270.306 393.747L256.224 400.638Z" fill="#EB4C40"/>
<path d="M229.292 435.319C222.999 423.684 222.306 421.705 223.902 419.934C223.902 419.934 207.379 433.897 208.248 445.608C208.58 450.095 211.641 456.617 211.641 456.617L214.441 461.062L225.295 455.585C231.264 452.573 236.331 449.39 236.331 449.39C236.331 449.39 233.264 442.664 229.292 435.319Z" fill="#EB4C40"/>
<path d="M229.292 435.319C222.999 423.684 222.306 421.705 223.902 419.934C223.902 419.934 207.379 433.897 208.248 445.608C208.58 450.095 211.641 456.617 211.641 456.617L214.441 461.062L225.295 455.585C231.264 452.573 236.331 449.39 236.331 449.39C236.331 449.39 233.264 442.664 229.292 435.319Z" fill="#D8453B"/>
<path fill-rule="evenodd" clip-rule="evenodd" d="M270.306 393.747L250.852 470.314L254.458 471.23L294.476 481.398L299.299 478.89C303.571 476.669 304.297 475.693 305.653 470.357C307.612 462.647 306.158 453.656 301.063 441.97C296.249 430.927 282.454 408.279 275.41 399.852L270.306 393.747Z" fill="#D8453B"/>
<path d="M93.7602 718.78L120.318 687.352L125.164 688.584L194.491 509.13L191.977 500.752C191.977 500.752 190.485 496.473 191.154 493.837C191.824 491.201 193.23 490.051 195.178 488.153C198.047 485.357 204.171 483.215 204.171 483.215L212.989 460.693L253.695 471.036L294.402 481.379L291.884 505.502C291.884 505.502 297.06 510.293 298.398 514.38C299.245 516.964 299.89 518.659 299.221 521.295C298.551 523.931 295.197 526.979 295.197 526.979L288.504 533.017L262.79 723.553L269.575 725.276L276.455 765.2L185.108 741.99L93.7602 718.78Z" fill="#E4C7AB"/>
<path fill-rule="evenodd" clip-rule="evenodd" d="M120.318 687.352L93.7602 718.78L185.108 741.99L276.455 765.2L269.575 725.276L262.79 723.553L288.504 533.017L295.197 526.979C295.197 526.979 298.551 523.931 299.221 521.295C299.854 518.801 299.31 517.149 298.532 514.788C298.488 514.654 298.444 514.518 298.398 514.38C297.06 510.293 291.884 505.502 291.884 505.502L294.402 481.379L253.695 471.036L249.755 486.544L193.977 706.068L125.164 688.584L120.318 687.352Z" fill="#CEB39A"/>
<path fill-rule="evenodd" clip-rule="evenodd" d="M93.7602 718.78L120.318 687.352L125.164 688.584L193.977 706.068L262.79 723.553L269.575 725.276L276.455 765.2L185.108 741.99L93.7602 718.78Z" fill="#835B52"/>
<path fill-rule="evenodd" clip-rule="evenodd" d="M185.108 741.99L276.455 765.2L269.575 725.276L262.79 723.553L193.977 706.068L185.108 741.99Z" fill="#76524A"/>
<ellipse cx="244.099" cy="506.774" rx="57.5" ry="27" transform="rotate(14.2564 244.099 506.774)" fill="#E4C7AB"/>
<path d="M97.8221 576.911L96.4554 553.865L187.198 513.467L194.912 525.745L198.285 531.761L232.922 512.188L236.782 517.296L201.657 537.777L116.936 588.99L97.8221 576.911Z" fill="#CAD2C8"/>
<path d="M177.166 364.226L200.207 362.781L240.912 453.387L228.66 461.142L222.656 464.535L242.346 499.105L237.251 502.983L216.652 467.928L165.151 383.381L177.166 364.226Z" fill="#CAD2C8"/>
<path d="M389.72 445.253L390.603 468.323L299.033 506.81L291.578 494.373L288.333 488.288L253.293 507.131L249.54 501.943L285.087 482.203L370.863 432.776L389.72 445.253Z" fill="#CAD2C8"/>
<path d="M311.936 654.119L288.916 655.879L246.976 565.838L259.121 557.916L265.078 554.441L244.917 520.143L249.959 516.196L271.036 550.967L323.687 634.802L311.936 654.119Z" fill="#CAD2C8"/>
<path fill-rule="evenodd" clip-rule="evenodd" d="M288.916 655.879L311.936 654.119L259.121 557.916L246.976 565.838L288.916 655.879ZM265.078 554.441L271.036 550.967L249.959 516.196L244.917 520.143L265.078 554.441Z" fill="#B2BCB1"/>
<path fill-rule="evenodd" clip-rule="evenodd" d="M96.4554 553.865L97.8221 576.911L194.912 525.745L187.198 513.467L96.4554 553.865ZM198.285 531.761L201.657 537.777L236.782 517.296L232.922 512.188L198.285 531.761Z" fill="#B2BCB1"/>
<path fill-rule="evenodd" clip-rule="evenodd" d="M200.207 362.781L177.166 364.226L228.66 461.142L240.912 453.387L200.207 362.781ZM222.656 464.535L216.652 467.928L237.251 502.983L242.346 499.105L222.656 464.535Z" fill="#B2BCB1"/>
<path fill-rule="evenodd" clip-rule="evenodd" d="M390.603 468.323L389.72 445.253L291.578 494.373L299.033 506.81L390.603 468.323ZM288.333 488.288L285.087 482.203L249.54 501.943L253.293 507.131L288.333 488.288Z" fill="#B2BCB1"/>
<path fill-rule="evenodd" clip-rule="evenodd" d="M271.036 550.967L265.078 554.441L244.917 520.143L249.959 516.196L271.036 550.967Z" fill="#E3813E"/>
<path fill-rule="evenodd" clip-rule="evenodd" d="M201.657 537.777L198.285 531.761L232.922 512.188L236.782 517.296L201.657 537.777Z" fill="#E3813E"/>
<path fill-rule="evenodd" clip-rule="evenodd" d="M216.652 467.928L222.656 464.535L242.346 499.105L237.251 502.983L216.652 467.928Z" fill="#E3813E"/>
<path fill-rule="evenodd" clip-rule="evenodd" d="M285.087 482.203L288.333 488.288L253.293 507.131L249.54 501.943L285.087 482.203Z" fill="#E3813E"/>
<circle cx="243.976" cy="507.258" r="12.5" transform="rotate(14.2564 243.976 507.258)" fill="#D6B58F"/>
<circle cx="244.518" cy="508.17" r="6.25" transform="rotate(14.2564 244.518 508.17)" fill="#42414B"/>
<path fill-rule="evenodd" clip-rule="evenodd" d="M247.026 201.921C245.589 194.581 243.5 187.216 242.351 185.445C241.761 184.536 240.81 184.607 234.956 186.002C231.261 186.883 227.943 187.439 227.943 187.439C227.943 187.439 227.141 184.838 226.521 181.859L225.392 176.445L217.039 191.356L216.211 192.833L207.031 209.222L207.565 211.637C208.038 213.776 208.381 214.21 210.567 215.434C213.724 217.202 217.846 217.622 223.582 216.759C229.002 215.944 240.579 212.549 245.112 210.446L248.396 208.921L247.026 201.921Z" fill="#EB4C40"/>
<path d="M234.956 186.002C240.81 184.607 241.761 184.536 242.351 185.445C242.351 185.445 238.161 176.54 232.912 175.543C230.902 175.161 227.675 175.738 227.675 175.738L225.392 176.445L226.521 181.859C227.141 184.838 227.943 187.439 227.943 187.439C227.943 187.439 231.261 186.883 234.956 186.002Z" fill="#EB4C40"/>
<path d="M234.956 186.002C240.81 184.607 241.761 184.536 242.351 185.445C242.351 185.445 238.161 176.54 232.912 175.543C230.902 175.161 227.675 175.738 227.675 175.738L225.392 176.445L226.521 181.859C227.141 184.838 227.943 187.439 227.943 187.439C227.943 187.439 231.261 186.883 234.956 186.002Z" fill="#D8453B"/>
<path fill-rule="evenodd" clip-rule="evenodd" d="M248.396 208.921L217.039 191.356L216.211 192.833L207.031 209.222L207.565 211.637C208.038 213.776 208.381 214.21 210.567 215.434C213.724 217.202 217.846 217.622 223.582 216.759C229.002 215.944 240.579 212.549 245.112 210.446L248.396 208.921Z" fill="#D8453B"/>
<path d="M126.347 93.0642L137.031 108.436L135.919 110.42L206.617 162.018L210.595 161.899C210.595 161.899 212.651 161.747 213.731 162.352C214.81 162.957 215.15 163.71 215.755 164.79C216.646 166.38 216.866 169.323 216.866 169.323L225.725 175.85L216.386 192.521L207.048 209.192L196.743 205.245C196.743 205.245 194.028 206.955 192.075 207.062C190.84 207.13 190.019 207.214 188.939 206.609C187.86 206.004 186.915 204.171 186.915 204.171L185.05 200.519L104.346 166.783L102.789 169.562L84.4344 167.884L105.391 130.474L126.347 93.0642Z" fill="#E4C7AB"/>
<path fill-rule="evenodd" clip-rule="evenodd" d="M137.031 108.436L126.347 93.0642L105.391 130.474L84.4344 167.884L102.789 169.562L104.346 166.783L185.05 200.519L186.915 204.171C186.915 204.171 187.86 206.004 188.939 206.609C189.961 207.181 190.751 207.137 191.88 207.073C191.944 207.069 192.009 207.066 192.075 207.062C194.028 206.955 196.743 205.245 196.743 205.245L207.048 209.192L216.386 192.521L210.036 188.963L120.132 138.602L135.919 110.42L137.031 108.436Z" fill="#CEB39A"/>
<path fill-rule="evenodd" clip-rule="evenodd" d="M126.347 93.0642L137.031 108.436L135.919 110.42L120.132 138.602L104.346 166.783L102.789 169.562L84.4344 167.884L105.391 130.474L126.347 93.0642Z" fill="#835B52"/>
<path fill-rule="evenodd" clip-rule="evenodd" d="M105.391 130.474L84.4344 167.884L102.789 169.562L104.346 166.783L120.132 138.602L105.391 130.474Z" fill="#76524A"/>
<ellipse cx="201.811" cy="184.096" rx="26.1601" ry="12.2839" transform="rotate(119.256 201.811 184.096)" fill="#E4C7AB"/>
<path d="M188.213 111.554L198.502 113.668L205.57 158.302L199.266 160.246L196.225 161.02L200.748 178.546L198.049 179.641L193.184 161.794L180.654 118.532L188.213 111.554Z" fill="#CAD2C8"/>
<path d="M272.336 171.467L270.258 181.762L225.648 188.981L223.682 182.684L222.898 179.646L205.388 184.228L204.283 181.533L222.114 176.608L265.333 163.931L272.336 171.467Z" fill="#CAD2C8"/>
<path d="M211.7 255.333L201.457 253.005L195.327 208.232L201.67 206.421L204.726 205.711L200.572 188.094L203.293 187.055L207.783 205.001L219.403 248.516L211.7 255.333Z" fill="#CAD2C8"/>
<path d="M129.072 196.557L131.009 186.233L175.516 178.405L177.568 184.675L178.393 187.702L195.84 182.881L196.981 185.561L179.219 190.729L136.177 203.995L129.072 196.557Z" fill="#CAD2C8"/>
<path fill-rule="evenodd" clip-rule="evenodd" d="M131.009 186.233L129.072 196.557L177.568 184.675L175.516 178.405L131.009 186.233ZM178.393 187.702L179.219 190.729L196.981 185.561L195.84 182.881L178.393 187.702Z" fill="#B2BCB1"/>
<path fill-rule="evenodd" clip-rule="evenodd" d="M198.502 113.668L188.213 111.554L199.266 160.246L205.57 158.302L198.502 113.668ZM196.225 161.02L193.184 161.794L198.049 179.641L200.748 178.546L196.225 161.02Z" fill="#B2BCB1"/>
<path fill-rule="evenodd" clip-rule="evenodd" d="M270.258 181.762L272.336 171.467L223.682 182.684L225.648 188.981L270.258 181.762ZM222.898 179.646L222.114 176.608L204.283 181.533L205.388 184.228L222.898 179.646Z" fill="#B2BCB1"/>
<path fill-rule="evenodd" clip-rule="evenodd" d="M201.457 253.005L211.7 255.333L201.67 206.421L195.327 208.232L201.457 253.005ZM204.726 205.711L207.783 205.001L203.293 187.055L200.572 188.094L204.726 205.711Z" fill="#B2BCB1"/>
<path fill-rule="evenodd" clip-rule="evenodd" d="M179.219 190.729L178.393 187.702L195.84 182.881L196.981 185.561L179.219 190.729Z" fill="#E3813E"/>
<path fill-rule="evenodd" clip-rule="evenodd" d="M193.184 161.794L196.225 161.02L200.748 178.546L198.049 179.641L193.184 161.794Z" fill="#E3813E"/>
<path fill-rule="evenodd" clip-rule="evenodd" d="M222.114 176.608L222.898 179.646L205.388 184.228L204.283 181.533L222.114 176.608Z" fill="#E3813E"/>
<path fill-rule="evenodd" clip-rule="evenodd" d="M207.783 205.001L204.726 205.711L200.572 188.094L203.293 187.055L207.783 205.001Z" fill="#E3813E"/>
<circle cx="201.613" cy="183.984" r="5.68697" transform="rotate(119.256 201.613 183.984)" fill="#D6B58F"/>
<circle cx="201.148" cy="184.115" r="2.84349" transform="rotate(119.256 201.148 184.115)" fill="#42414B"/>
<path fill-rule="evenodd" clip-rule="evenodd" d="M1060.58 285.19C1075.75 291.527 1091.76 296.704 1096.4 296.768C1098.78 296.801 1099.81 294.975 1104.41 282.573C1107.32 274.743 1110.35 268.002 1110.35 268.002C1110.35 268.002 1116.08 269.713 1122.28 272.216L1133.56 276.765L1116.51 243.29L1114.82 239.973L1096.08 203.182L1091.01 201.21C1086.53 199.462 1085.31 199.56 1080.41 202.058C1073.32 205.669 1067.52 212.69 1062.09 224.226C1056.96 235.126 1049.03 260.431 1047.34 271.283L1046.11 279.146L1060.58 285.19Z" fill="#EB4C40"/>
<path d="M1104.41 282.573C1099.81 294.975 1098.78 296.801 1096.4 296.768C1096.4 296.768 1117.79 299.985 1126.02 291.61C1129.18 288.402 1132.06 281.801 1132.06 281.801L1133.56 276.765L1122.28 272.216C1116.08 269.713 1110.35 268.002 1110.35 268.002C1110.35 268.002 1107.32 274.743 1104.41 282.573Z" fill="#EB4C40"/>
<path d="M1104.41 282.573C1099.81 294.975 1098.78 296.801 1096.4 296.768C1096.4 296.768 1117.79 299.985 1126.02 291.61C1129.18 288.402 1132.06 281.801 1132.06 281.801L1133.56 276.765L1122.28 272.216C1116.08 269.713 1110.35 268.002 1110.35 268.002C1110.35 268.002 1107.32 274.743 1104.41 282.573Z" fill="#D8453B"/>
<path fill-rule="evenodd" clip-rule="evenodd" d="M1046.11 279.146L1116.51 243.29L1114.82 239.973L1096.08 203.182L1091.01 201.21C1086.53 199.462 1085.31 199.56 1080.41 202.058C1073.32 205.669 1067.52 212.69 1062.09 224.226C1056.96 235.126 1049.03 260.431 1047.34 271.283L1046.11 279.146Z" fill="#D8453B"/>
<path d="M1406.89 197.577L1365.75 198.331L1363.48 193.876L1182.85 260.072L1178.21 267.485C1178.21 267.485 1175.98 271.429 1173.55 272.663C1171.13 273.898 1169.34 273.599 1166.63 273.386C1162.63 273.072 1156.99 269.88 1156.99 269.88L1134.24 278.1L1115.18 240.675L1096.11 203.25L1115.91 189.239C1115.91 189.239 1116.1 182.188 1118.29 178.487C1119.67 176.147 1120.52 174.544 1122.95 173.31C1125.37 172.075 1129.87 172.587 1129.87 172.587L1138.83 173.638L1299.03 67.3447L1295.86 61.1073L1321.34 29.6113L1364.12 113.594L1406.89 197.577Z" fill="#E4C7AB"/>
<path fill-rule="evenodd" clip-rule="evenodd" d="M1365.75 198.331L1406.89 197.577L1364.12 113.594L1321.34 29.6113L1295.86 61.1073L1299.03 67.3447L1138.83 173.638L1129.87 172.587C1129.87 172.587 1125.37 172.075 1122.95 173.31C1120.65 174.478 1119.77 175.976 1118.51 178.117C1118.44 178.238 1118.36 178.362 1118.29 178.487C1116.1 182.188 1115.91 189.239 1115.91 189.239L1096.11 203.25L1115.18 240.675L1129.43 233.413L1331.26 130.61L1363.48 193.876L1365.75 198.331Z" fill="#CEB39A"/>
<path fill-rule="evenodd" clip-rule="evenodd" d="M1406.89 197.577L1365.75 198.331L1363.48 193.876L1331.26 130.61L1299.03 67.3447L1295.86 61.1073L1321.34 29.6113L1364.12 113.594L1406.89 197.577Z" fill="#835B52"/>
<path fill-rule="evenodd" clip-rule="evenodd" d="M1364.12 113.594L1321.34 29.6113L1295.86 61.1073L1299.03 67.3447L1331.26 130.61L1364.12 113.594Z" fill="#76524A"/>
<ellipse cx="1148.37" cy="224.327" rx="57.5" ry="27" transform="rotate(-116.993 1148.37 224.327)" fill="#E4C7AB"/>
<path d="M1297.55 288.062L1281.12 304.284L1190.92 262.695L1195.07 248.8L1197.37 242.298L1159.81 229.161L1161.11 222.89L1199.67 235.796L1294.03 265.727L1297.55 288.062Z" fill="#CAD2C8"/>
<path d="M1085.33 368.638L1069.05 352.266L1110.33 261.923L1124.24 266.021L1130.75 268.299L1143.76 230.701L1150.04 231.975L1137.26 270.576L1107.65 365.041L1085.33 368.638Z" fill="#CAD2C8"/>
<path d="M1006.11 155.404L1022.87 139.53L1112.18 183.001L1107.74 196.806L1105.31 203.258L1142.58 217.179L1141.15 223.421L1102.87 209.71L1009.16 177.808L1006.11 155.404Z" fill="#CAD2C8"/>
<path d="M1214.43 76.1744L1230.93 92.3216L1190.88 183.221L1176.92 179.313L1170.38 177.125L1157.88 214.897L1151.59 213.709L1163.84 174.937L1192.16 80.0758L1214.43 76.1744Z" fill="#CAD2C8"/>
<path fill-rule="evenodd" clip-rule="evenodd" d="M1230.93 92.3216L1214.43 76.1744L1176.92 179.313L1190.88 183.221L1230.93 92.3216ZM1170.38 177.125L1163.84 174.937L1151.59 213.709L1157.88 214.897L1170.38 177.125Z" fill="#B2BCB1"/>
<path fill-rule="evenodd" clip-rule="evenodd" d="M1281.12 304.284L1297.55 288.062L1195.07 248.8L1190.92 262.695L1281.12 304.284ZM1197.37 242.298L1199.67 235.796L1161.11 222.89L1159.81 229.161L1197.37 242.298Z" fill="#B2BCB1"/>
<path fill-rule="evenodd" clip-rule="evenodd" d="M1069.05 352.266L1085.33 368.638L1124.24 266.021L1110.33 261.923L1069.05 352.266ZM1130.75 268.299L1137.26 270.576L1150.04 231.975L1143.76 230.701L1130.75 268.299Z" fill="#B2BCB1"/>
<path fill-rule="evenodd" clip-rule="evenodd" d="M1022.87 139.53L1006.11 155.404L1107.74 196.806L1112.18 183.001L1022.87 139.53ZM1105.31 203.258L1102.87 209.71L1141.15 223.421L1142.58 217.179L1105.31 203.258Z" fill="#B2BCB1"/>
<path fill-rule="evenodd" clip-rule="evenodd" d="M1163.84 174.937L1170.38 177.125L1157.88 214.897L1151.59 213.709L1163.84 174.937Z" fill="#E3813E"/>
<path fill-rule="evenodd" clip-rule="evenodd" d="M1199.67 235.796L1197.37 242.298L1159.81 229.161L1161.11 222.89L1199.67 235.796Z" fill="#E3813E"/>
<path fill-rule="evenodd" clip-rule="evenodd" d="M1137.26 270.576L1130.75 268.299L1143.76 230.701L1150.04 231.975L1137.26 270.576Z" fill="#E3813E"/>
<path fill-rule="evenodd" clip-rule="evenodd" d="M1102.87 209.71L1105.31 203.258L1142.58 217.179L1141.15 223.421L1102.87 209.71Z" fill="#E3813E"/>
<circle cx="1148.82" cy="224.1" r="12.5" transform="rotate(-116.993 1148.82 224.1)" fill="#D6B58F"/>
<circle cx="1149.15" cy="223.092" r="6.25" transform="rotate(-116.993 1149.15 223.092)" fill="#42414B"/>
<path fill-rule="evenodd" clip-rule="evenodd" d="M493.553 717.333C500.453 732.254 508.76 746.889 512.135 750.07C513.87 751.705 515.865 751.056 527.634 745.02C535.065 741.21 541.857 738.291 541.857 738.291C541.857 738.291 544.928 743.426 547.808 749.461L553.046 760.432L563.094 724.233L564.089 720.647L575.133 680.863L572.731 675.986C570.605 671.666 569.645 670.919 564.341 669.447C556.675 667.319 547.655 668.574 535.859 673.412C524.714 677.982 501.768 691.277 493.188 698.134L486.972 703.103L493.553 717.333Z" fill="#EB4C40"/>
<path d="M527.634 745.02C515.865 751.056 513.87 751.705 512.135 750.07C512.135 750.07 525.732 766.896 537.459 766.285C541.952 766.051 548.54 763.134 548.54 763.134L553.046 760.432L547.808 749.461C544.928 743.426 541.857 738.291 541.857 738.291C541.857 738.291 535.065 741.21 527.634 745.02Z" fill="#EB4C40"/>
<path d="M527.634 745.02C515.865 751.056 513.87 751.705 512.135 750.07C512.135 750.07 525.732 766.896 537.459 766.285C541.952 766.051 548.54 763.134 548.54 763.134L553.046 760.432L547.808 749.461C544.928 743.426 541.857 738.291 541.857 738.291C541.857 738.291 535.065 741.21 527.634 745.02Z" fill="#D8453B"/>
<path fill-rule="evenodd" clip-rule="evenodd" d="M486.972 703.103L563.094 724.233L564.089 720.647L575.133 680.863L572.731 675.986C570.605 671.666 569.645 670.919 564.341 669.447C556.675 667.319 547.655 668.574 535.859 673.412C524.714 677.982 501.768 691.277 493.188 698.134L486.972 703.103Z" fill="#D8453B"/>
<path d="M808.052 886.741L777.215 859.5L778.552 854.682L600.663 781.432L592.233 783.762C592.233 783.762 587.922 785.16 585.301 784.433C582.681 783.705 581.562 782.274 579.707 780.285C576.974 777.355 574.968 771.186 574.968 771.186L552.645 761.876L563.879 721.406L575.113 680.936L599.175 683.983C599.175 683.983 604.078 678.914 608.193 677.666C610.796 676.876 612.504 676.268 615.125 676.995C617.746 677.723 620.719 681.143 620.719 681.143L626.609 687.967L816.534 717.856L818.406 711.111L858.472 705.109L833.262 795.925L808.052 886.741Z" fill="#E4C7AB"/>
<path fill-rule="evenodd" clip-rule="evenodd" d="M777.215 859.5L808.052 886.741L833.262 795.925L858.472 705.109L818.406 711.111L816.534 717.856L626.609 687.967L620.719 681.143C620.719 681.143 617.746 677.723 615.125 676.995C612.645 676.307 610.982 676.815 608.604 677.54C608.47 677.581 608.333 677.623 608.193 677.666C604.078 678.914 599.175 683.983 599.175 683.983L575.113 680.936L563.879 721.406L579.296 725.686L797.543 786.269L778.552 854.682L777.215 859.5Z" fill="#CEB39A"/>
<path fill-rule="evenodd" clip-rule="evenodd" d="M808.052 886.741L777.215 859.5L778.552 854.682L797.543 786.269L816.534 717.856L818.406 711.111L858.472 705.109L833.262 795.925L808.052 886.741Z" fill="#835B52"/>
<path fill-rule="evenodd" clip-rule="evenodd" d="M833.262 795.925L858.472 705.109L818.406 711.111L816.534 717.856L797.543 786.269L833.262 795.925Z" fill="#76524A"/>
<ellipse cx="599.397" cy="731.785" rx="57.5" ry="27" transform="rotate(-74.4858 599.397 731.785)" fill="#E4C7AB"/>
<path d="M666.307 879.566L643.236 880.426L604.84 788.819L617.284 781.376L623.372 778.136L604.564 743.078L609.756 739.33L629.461 774.897L678.802 860.722L666.307 879.566Z" fill="#CAD2C8"/>
<path d="M455.414 795.573L454.476 772.505L545.953 733.799L553.438 746.218L556.698 752.295L591.692 733.369L595.457 738.547L559.958 758.373L474.301 808.005L455.414 795.573Z" fill="#CAD2C8"/>
<path d="M541.088 584.849L564.172 584.472L600.639 676.865L588.042 684.045L581.887 687.156L599.956 722.601L594.687 726.239L575.732 690.267L528.2 603.427L541.088 584.849Z" fill="#CAD2C8"/>
<path d="M748.196 667.199L749.45 690.251L658.51 730.205L650.856 717.889L647.514 711.857L612.781 731.26L608.945 726.133L644.171 705.825L729.141 655.026L748.196 667.199Z" fill="#CAD2C8"/>
<path fill-rule="evenodd" clip-rule="evenodd" d="M749.45 690.251L748.196 667.199L650.856 717.889L658.51 730.205L749.45 690.251ZM647.514 711.857L644.171 705.825L608.945 726.133L612.781 731.26L647.514 711.857Z" fill="#B2BCB1"/>
<path fill-rule="evenodd" clip-rule="evenodd" d="M643.236 880.426L666.307 879.566L617.284 781.376L604.84 788.819L643.236 880.426ZM623.372 778.136L629.461 774.897L609.756 739.33L604.564 743.078L623.372 778.136Z" fill="#B2BCB1"/>
<path fill-rule="evenodd" clip-rule="evenodd" d="M454.476 772.505L455.414 795.573L553.438 746.218L545.953 733.799L454.476 772.505ZM556.698 752.295L559.958 758.373L595.457 738.547L591.692 733.369L556.698 752.295Z" fill="#B2BCB1"/>
<path fill-rule="evenodd" clip-rule="evenodd" d="M564.172 584.472L541.088 584.849L588.042 684.045L600.639 676.865L564.172 584.472ZM581.887 687.156L575.732 690.267L594.687 726.239L599.956 722.601L581.887 687.156Z" fill="#B2BCB1"/>
<path fill-rule="evenodd" clip-rule="evenodd" d="M644.171 705.825L647.514 711.857L612.781 731.26L608.945 726.133L644.171 705.825Z" fill="#E3813E"/>
<path fill-rule="evenodd" clip-rule="evenodd" d="M629.461 774.897L623.372 778.136L604.564 743.078L609.756 739.33L629.461 774.897Z" fill="#E3813E"/>
<path fill-rule="evenodd" clip-rule="evenodd" d="M559.958 758.373L556.698 752.295L591.692 733.369L595.457 738.547L559.958 758.373Z" fill="#E3813E"/>
<path fill-rule="evenodd" clip-rule="evenodd" d="M575.732 690.267L581.887 687.156L599.956 722.601L594.687 726.239L575.732 690.267Z" fill="#E3813E"/>
<circle cx="599.879" cy="731.918" r="12.5" transform="rotate(-74.4858 599.879 731.918)" fill="#D6B58F"/>
<circle cx="600.802" cy="731.396" r="6.25" transform="rotate(-74.4858 600.802 731.396)" fill="#42414B"/>
<path fill-rule="evenodd" clip-rule="evenodd" d="M752.754 532.291C765.225 525.091 777.334 516.688 779.843 513.492C781.131 511.849 780.407 510.161 774.211 500.371C770.3 494.19 767.217 488.496 767.217 488.496C767.217 488.496 771.454 485.411 776.49 482.422L785.647 476.985L753.274 471.082L750.068 470.497L714.488 464.009L710.424 466.49C706.824 468.686 706.248 469.582 705.383 474.326C704.133 481.181 705.941 488.951 711.094 498.859C715.962 508.22 729.375 527.185 736.034 534.127L740.861 539.157L752.754 532.291Z" fill="#EB4C40"/>
<path d="M774.211 500.371C780.407 510.161 781.131 511.849 779.843 513.492C779.843 513.492 793.445 500.3 791.985 490.119C791.425 486.218 788.36 480.702 788.36 480.702L785.647 476.985L776.49 482.422C771.454 485.411 767.217 488.496 767.217 488.496C767.217 488.496 770.3 494.19 774.211 500.371Z" fill="#EB4C40"/>
<path d="M774.211 500.371C780.407 510.161 781.131 511.849 779.843 513.492C779.843 513.492 793.445 500.3 791.985 490.119C791.425 486.218 788.36 480.702 788.36 480.702L785.647 476.985L776.49 482.422C771.454 485.411 767.217 488.496 767.217 488.496C767.217 488.496 770.3 494.19 774.211 500.371Z" fill="#D8453B"/>
<path fill-rule="evenodd" clip-rule="evenodd" d="M740.861 539.157L753.274 471.082L750.068 470.497L714.488 464.009L710.424 466.49C706.824 468.686 706.248 469.582 705.383 474.326C704.133 481.181 705.941 488.951 711.094 498.859C715.962 508.22 729.375 527.185 736.034 534.127L740.861 539.157Z" fill="#D8453B"/>
<path d="M875.667 244.544L854.342 273.599L850.033 272.813L800.201 433.785L802.9 440.955C802.9 440.955 804.46 444.606 804.033 446.949C803.605 449.293 802.445 450.382 800.857 452.157C798.517 454.773 793.294 457.011 793.294 457.011L786.938 477.22L750.746 470.621L714.554 464.021L715.31 442.79C715.31 442.79 710.5 438.913 709.085 435.422C708.19 433.214 707.525 431.772 707.952 429.428C708.38 427.085 711.128 424.22 711.128 424.22L716.615 418.543L727.671 250.499L721.639 249.399L713.235 214.923L794.451 229.734L875.667 244.544Z" fill="#E4C7AB"/>
<path fill-rule="evenodd" clip-rule="evenodd" d="M854.342 273.599L875.667 244.544L794.451 229.734L713.235 214.923L721.639 249.399L727.671 250.499L716.615 418.543L711.128 424.22C711.128 424.22 708.38 427.085 707.952 429.428C707.548 431.646 708.122 433.057 708.943 435.073C708.99 435.188 709.037 435.304 709.085 435.422C710.5 438.913 715.31 442.79 715.31 442.79L714.554 464.021L750.746 470.621L753.26 456.833L788.852 261.656L850.033 272.813L854.342 273.599Z" fill="#CEB39A"/>
<path fill-rule="evenodd" clip-rule="evenodd" d="M875.667 244.544L854.342 273.599L850.033 272.813L788.852 261.656L727.671 250.499L721.639 249.399L713.235 214.923L794.451 229.734L875.667 244.544Z" fill="#835B52"/>
<path fill-rule="evenodd" clip-rule="evenodd" d="M794.451 229.734L713.235 214.923L721.639 249.399L727.671 250.499L788.852 261.656L794.451 229.734Z" fill="#76524A"/>
<ellipse cx="756.991" cy="438.816" rx="50.3654" ry="23.6498" transform="rotate(-169.665 756.991 438.816)" fill="#E4C7AB"/>
<path d="M880.616 368.762L883.191 388.819L806.314 429.558L798.837 419.291L795.53 414.236L766.434 433.415L762.754 429.182L792.222 409.181L863.189 359.351L880.616 368.762Z" fill="#CAD2C8"/>
<path d="M824.022 559.374L803.973 562.017L762.974 485.278L773.216 477.767L778.26 474.442L758.982 445.412L763.202 441.718L783.304 471.118L833.373 541.916L824.022 559.374Z" fill="#CAD2C8"/>
<path d="M633.423 501.3L631.269 481.193L708.984 442.075L716.243 452.496L719.444 457.62L748.935 439.054L752.526 443.363L722.645 462.743L650.649 511.074L633.423 501.3Z" fill="#CAD2C8"/>
<path d="M688.884 314.119L708.894 311.203L750.938 387.374L740.8 395.024L735.802 398.417L755.475 427.181L751.306 430.933L730.805 401.811L679.772 331.704L688.884 314.119Z" fill="#CAD2C8"/>
<path fill-rule="evenodd" clip-rule="evenodd" d="M708.894 311.203L688.884 314.119L740.8 395.024L750.938 387.374L708.894 311.203ZM735.802 398.417L730.805 401.811L751.306 430.933L755.475 427.181L735.802 398.417Z" fill="#B2BCB1"/>
<path fill-rule="evenodd" clip-rule="evenodd" d="M883.191 388.819L880.616 368.762L798.837 419.291L806.314 429.558L883.191 388.819ZM795.53 414.236L792.222 409.181L762.754 429.182L766.434 433.415L795.53 414.236Z" fill="#B2BCB1"/>
<path fill-rule="evenodd" clip-rule="evenodd" d="M803.973 562.017L824.022 559.374L773.216 477.767L762.974 485.278L803.973 562.017ZM778.26 474.442L783.304 471.118L763.202 441.718L758.982 445.412L778.26 474.442Z" fill="#B2BCB1"/>
<path fill-rule="evenodd" clip-rule="evenodd" d="M631.269 481.193L633.423 501.3L716.243 452.496L708.984 442.075L631.269 481.193ZM719.444 457.62L722.645 462.743L752.526 443.363L748.935 439.054L719.444 457.62Z" fill="#B2BCB1"/>
<path fill-rule="evenodd" clip-rule="evenodd" d="M730.805 401.811L735.802 398.417L755.475 427.181L751.306 430.933L730.805 401.811Z" fill="#E3813E"/>
<path fill-rule="evenodd" clip-rule="evenodd" d="M792.222 409.181L795.53 414.236L766.434 433.415L762.754 429.182L792.222 409.181Z" fill="#E3813E"/>
<path fill-rule="evenodd" clip-rule="evenodd" d="M783.304 471.118L778.26 474.442L758.982 445.412L763.202 441.718L783.304 471.118Z" fill="#E3813E"/>
<path fill-rule="evenodd" clip-rule="evenodd" d="M722.645 462.743L719.444 457.62L748.935 439.054L752.526 443.363L722.645 462.743Z" fill="#E3813E"/>
<circle cx="757.07" cy="438.385" r="10.949" transform="rotate(-169.665 757.07 438.385)" fill="#D6B58F"/>
<circle cx="756.541" cy="437.621" r="5.4745" transform="rotate(-169.665 756.541 437.621)" fill="#42414B"/>
<path d="M232.308 635.959C240.63 649.95 236.139 667.976 222.277 676.22C208.416 684.465 190.432 679.806 182.111 665.815C173.789 651.824 178.28 633.798 192.141 625.554C206.003 617.309 223.986 621.968 232.308 635.959V635.959ZM212.691 574.262C203.867 579.51 201.008 590.984 206.305 599.89C211.603 608.796 223.05 611.762 231.874 606.514C240.697 601.265 243.556 589.791 238.259 580.885C232.961 571.979 221.514 569.014 212.691 574.262Z" fill="#2B3B47"/>
<path d="M146.429 163.702C139.3 165.712 131.908 161.615 129.917 154.553C127.926 147.491 132.09 140.136 139.219 138.127C146.347 136.117 153.74 140.214 155.731 147.276C157.722 154.338 153.557 161.693 146.429 163.702V163.702ZM175.852 162.346C174.584 157.85 169.879 155.243 165.341 156.522C160.803 157.801 158.152 162.483 159.42 166.978C160.687 171.474 165.393 174.081 169.93 172.802C174.468 171.523 177.119 166.842 175.852 162.346Z" fill="#2B3B47"/>
<path d="M1253.27 148.017C1258.31 132.535 1274.82 124.027 1290.16 129.012C1305.5 133.998 1313.85 150.591 1308.82 166.072C1303.79 181.553 1287.27 190.062 1271.93 185.076C1256.6 180.09 1248.24 163.498 1253.27 148.017V148.017ZM1219.82 203.445C1229.59 206.618 1240.1 201.202 1243.3 191.348C1246.5 181.493 1241.19 170.931 1231.42 167.757C1221.66 164.583 1211.15 169.999 1207.94 179.854C1204.74 189.709 1210.06 200.271 1219.82 203.445Z" fill="#2B3B47"/>
<path d="M728.292 746.409C742.462 738.396 760.385 743.282 768.324 757.321C776.262 771.36 771.21 789.237 757.04 797.25C742.869 805.262 724.946 800.377 717.008 786.338C709.07 772.298 714.122 754.422 728.292 746.409V746.409ZM666.179 764.667C671.233 773.604 682.641 776.714 691.662 771.613C700.682 766.513 703.898 755.134 698.845 746.197C693.791 737.26 682.383 734.15 673.362 739.251C664.342 744.351 661.126 755.73 666.179 764.667Z" fill="#2B3B47"/>
<path d="M759.556 325.219C751.446 313.491 754.29 297.47 765.91 289.435C777.529 281.399 793.523 284.393 801.633 296.121C809.744 307.849 806.899 323.87 795.28 331.905C783.66 339.94 767.666 336.947 759.556 325.219V325.219ZM780.395 377.959C787.791 372.844 789.602 362.646 784.439 355.18C779.277 347.715 769.096 345.809 761.7 350.924C754.303 356.039 752.492 366.237 757.655 373.703C762.818 381.168 772.999 383.074 780.395 377.959Z" fill="#2B3B47"/>
<g clip-path="url(#clip7_943_612)">
<path d="M1539.21 525.059L1536.02 521.872C1535.86 521.711 1535.59 521.712 1535.43 521.873L1527.68 529.649C1527.52 529.81 1527.25 529.81 1527.09 529.65L1524.28 526.848C1524.12 526.688 1524.12 526.424 1524.28 526.263L1528.13 522.409C1528.29 522.248 1528.29 521.985 1528.13 521.824L1524.93 518.64C1524.77 518.479 1524.51 518.48 1524.35 518.641L1520.51 522.495C1520.34 522.656 1520.08 522.657 1519.92 522.496L1516.6 519.18C1516.44 519.02 1516.17 519.02 1516.01 519.181L1512.83 522.374C1512.67 522.535 1512.67 522.798 1512.83 522.959L1516.15 526.271C1516.31 526.432 1516.31 526.695 1516.15 526.856L1512.31 530.711C1512.15 530.872 1512.15 531.135 1512.31 531.296L1515.5 534.483C1515.66 534.643 1515.93 534.643 1516.09 534.482L1519.93 530.627C1520.09 530.466 1520.36 530.466 1520.52 530.627L1523.33 533.428C1523.49 533.589 1523.49 533.852 1523.33 534.013L1515.57 541.789C1515.41 541.95 1515.41 542.214 1515.57 542.374L1518.77 545.561C1518.93 545.722 1519.19 545.722 1519.35 545.56L1527.11 537.784C1527.27 537.623 1527.53 537.623 1527.69 537.783L1537.45 547.511C1537.49 547.56 1537.53 547.62 1537.55 547.686C1537.57 547.752 1537.57 547.822 1537.56 547.89C1537.54 547.957 1537.51 548.02 1537.47 548.072C1537.42 548.125 1537.36 548.165 1537.3 548.19L1532.09 550.2C1531.81 550.309 1531.73 550.669 1531.94 550.879L1535.08 554.01C1535.2 554.124 1535.37 554.162 1535.52 554.103L1541.42 551.829C1541.58 551.77 1541.75 551.808 1541.86 551.922L1548.7 558.737C1548.86 558.897 1549.12 558.897 1549.28 558.736L1552.47 555.54C1552.63 555.379 1552.63 555.116 1552.47 554.955L1547.58 550.083C1547.53 550.034 1547.5 549.974 1547.48 549.908C1547.46 549.842 1547.45 549.772 1547.47 549.704C1547.48 549.637 1547.51 549.574 1547.56 549.521C1547.6 549.469 1547.66 549.429 1547.73 549.404L1552.94 547.396C1553.22 547.288 1553.3 546.928 1553.09 546.718L1549.95 543.586C1549.83 543.472 1549.66 543.435 1549.51 543.493L1543.61 545.768C1543.53 545.796 1543.45 545.803 1543.37 545.786C1543.3 545.77 1543.22 545.731 1543.17 545.675L1531.46 534.002C1531.3 533.842 1531.3 533.578 1531.46 533.417L1539.22 525.644C1539.38 525.483 1539.38 525.22 1539.21 525.059Z" fill="#F79229" stroke="#F79229" stroke-width="1.5625" stroke-miterlimit="10"/>
</g>
<g clip-path="url(#clip8_943_612)">
<path d="M1386.77 794.224L1388.81 796.017C1388.91 796.107 1389.07 796.097 1389.16 795.995L1393.52 791.043C1393.61 790.941 1393.77 790.931 1393.87 791.021L1395.66 792.597C1395.77 792.687 1395.78 792.845 1395.68 792.948L1393.52 795.402C1393.43 795.505 1393.44 795.663 1393.54 795.753L1395.58 797.544C1395.68 797.635 1395.84 797.625 1395.93 797.522L1398.09 795.068C1398.18 794.965 1398.34 794.955 1398.44 795.045L1400.56 796.911C1400.66 797.001 1400.82 796.991 1400.91 796.888L1402.7 794.856C1402.79 794.753 1402.78 794.595 1402.68 794.505L1400.56 792.641C1400.46 792.551 1400.45 792.393 1400.54 792.29L1402.7 789.836C1402.79 789.734 1402.78 789.576 1402.68 789.485L1400.65 787.693C1400.54 787.602 1400.39 787.612 1400.3 787.715L1398.13 790.169C1398.04 790.272 1397.88 790.282 1397.78 790.191L1395.99 788.615C1395.89 788.525 1395.88 788.367 1395.97 788.265L1400.33 783.313C1400.42 783.21 1400.41 783.053 1400.31 782.962L1398.28 781.169C1398.17 781.079 1398.02 781.089 1397.93 781.192L1393.56 786.143C1393.47 786.246 1393.32 786.256 1393.21 786.165L1387 780.693C1386.97 780.666 1386.95 780.631 1386.93 780.592C1386.92 780.553 1386.92 780.511 1386.92 780.47C1386.93 780.429 1386.94 780.391 1386.97 780.357C1386.99 780.324 1387.03 780.298 1387.06 780.281L1390.12 778.882C1390.28 778.806 1390.31 778.588 1390.18 778.469L1388.18 776.708C1388.11 776.644 1388 776.627 1387.91 776.668L1384.46 778.251C1384.37 778.292 1384.26 778.276 1384.19 778.212L1379.84 774.378C1379.74 774.288 1379.58 774.298 1379.49 774.401L1377.7 776.435C1377.61 776.538 1377.62 776.696 1377.72 776.786L1380.83 779.527C1380.86 779.554 1380.88 779.589 1380.9 779.628C1380.91 779.667 1380.92 779.709 1380.91 779.75C1380.9 779.791 1380.89 779.83 1380.86 779.863C1380.84 779.896 1380.8 779.922 1380.77 779.939L1377.71 781.337C1377.55 781.412 1377.52 781.631 1377.65 781.75L1379.65 783.511C1379.72 783.575 1379.83 783.591 1379.92 783.551L1383.37 781.967C1383.42 781.947 1383.46 781.941 1383.51 781.948C1383.56 781.955 1383.6 781.975 1383.64 782.007L1391.09 788.573C1391.19 788.663 1391.2 788.821 1391.11 788.924L1386.75 793.874C1386.66 793.976 1386.67 794.134 1386.77 794.224Z" fill="#F79229" stroke="#F79229" stroke-width="1.5625" stroke-miterlimit="10"/>
</g>
<path d="M1740.53 753.486L1742.38 752.807C1742.97 752.595 1743.77 752.275 1744.62 752.002L1747.57 751.017C1748.71 750.631 1749.85 750.32 1751.17 749.91C1752.48 749.52 1753.94 749.057 1755.37 748.697L1760.1 747.438C1761.75 747.023 1763.4 746.678 1765.2 746.261C1772.98 744.471 1780.88 743.224 1788.83 742.527C1793.06 742.124 1797.28 741.977 1801.62 741.927C1805.86 741.963 1810.22 742.108 1814.47 742.544C1818.7 742.973 1822.9 743.652 1827.05 744.576C1831.11 745.503 1835.11 746.713 1839.01 748.197C1846.74 751.155 1853.87 755.267 1860.15 760.579C1863.32 763.207 1866.14 766.27 1869.06 769.305C1871.94 772.383 1874.82 775.532 1877.61 778.817C1883.31 785.46 1888.66 792.395 1893.63 799.593C1898.68 806.862 1903.35 814.501 1907.62 822.332C1909.75 826.255 1911.77 830.228 1913.69 834.25C1915.59 838.258 1917.38 842.311 1919.07 846.406C1922.42 854.574 1925.31 862.798 1927.69 870.947C1930 878.815 1931.92 886.791 1933.44 894.846C1936.39 910.251 1937.51 924.375 1937.68 934.866L1937.71 938.616L1937.67 941.984L1937.47 947.435L1937.23 950.928L1937.11 952.162L1935.86 952.256L1932.33 952.425L1926.83 952.516L1923.43 952.485L1919.64 952.383C1909.06 952.009 1894.83 950.611 1879.34 947.39C1871.24 945.723 1863.23 943.662 1855.34 941.215C1847.16 938.694 1838.92 935.666 1830.75 932.191C1826.65 930.432 1822.59 928.574 1818.59 926.619C1814.58 924.635 1810.6 922.558 1806.68 920.371C1798.86 915.979 1791.25 911.201 1784.01 906.052C1776.85 900.986 1769.95 895.551 1763.36 889.769C1760.1 886.943 1756.98 884.03 1753.94 881.116C1750.93 878.161 1747.9 875.307 1745.31 872.113C1740.07 865.783 1736.06 858.643 1733.23 850.93C1731.81 847.039 1730.67 843.054 1729.82 839.005C1728.97 834.879 1728.37 830.707 1728.02 826.51C1727.66 822.29 1727.6 817.972 1727.65 813.764C1727.79 809.47 1728.02 805.297 1728.51 801.111C1729.37 793.245 1730.79 785.45 1732.75 777.781C1733.21 776.006 1733.59 774.375 1734.04 772.751L1735.4 768.093C1735.8 766.678 1736.29 765.239 1736.71 763.955C1737.15 762.651 1737.49 761.526 1737.9 760.413L1738.95 757.503C1739.25 756.675 1739.58 755.889 1739.81 755.302C1740.28 754.106 1740.53 753.486 1740.53 753.486V753.486Z" fill="#FF7B00"/>
<path d="M1257.56 664.698L1256.48 665.174C1256.13 665.323 1255.66 665.545 1255.17 665.74L1253.43 666.44C1252.76 666.714 1252.09 666.943 1251.31 667.238C1250.54 667.521 1249.68 667.852 1248.84 668.122L1246.05 669.052C1245.08 669.362 1244.1 669.63 1243.03 669.947C1238.43 671.309 1233.75 672.35 1229 673.063C1226.48 673.462 1223.95 673.707 1221.35 673.898C1218.81 674.034 1216.19 674.108 1213.62 674.005C1211.07 673.904 1208.53 673.653 1206.01 673.252C1203.53 672.847 1201.09 672.27 1198.7 671.525C1193.95 670.038 1189.52 667.836 1185.56 664.884C1183.56 663.425 1181.75 661.693 1179.89 659.981C1178.05 658.242 1176.21 656.46 1174.41 654.593C1170.75 650.821 1167.28 646.86 1164.03 642.728C1160.73 638.556 1157.65 634.147 1154.79 629.61C1153.38 627.336 1152.02 625.028 1150.71 622.687C1149.43 620.354 1148.2 617.989 1147.03 615.596C1144.73 610.822 1142.69 605.997 1140.96 601.198C1139.28 596.565 1137.83 591.853 1136.62 587.078C1134.28 577.948 1133.08 569.52 1132.59 563.234L1132.44 560.986L1132.33 558.965L1132.25 555.688L1132.27 553.584L1132.29 552.84L1133.04 552.737L1135.15 552.504L1138.45 552.246L1140.49 552.138L1142.76 552.059C1149.12 551.891 1157.71 552.201 1167.11 553.558C1172.03 554.257 1176.91 555.196 1181.74 556.371C1186.74 557.579 1191.79 559.089 1196.82 560.87C1199.35 561.773 1201.85 562.737 1204.32 563.761C1206.8 564.802 1209.27 565.9 1211.7 567.066C1216.55 569.41 1221.29 571.993 1225.82 574.812C1230.31 577.585 1234.64 580.588 1238.81 583.811C1240.87 585.386 1242.85 587.017 1244.79 588.651C1246.7 590.312 1248.62 591.911 1250.29 593.73C1253.67 597.333 1256.34 601.466 1258.32 605.987C1259.32 608.268 1260.15 610.615 1260.81 613.012C1261.48 615.455 1261.99 617.935 1262.36 620.439C1262.73 622.957 1262.92 625.544 1263.05 628.07C1263.13 630.65 1263.14 633.161 1263 635.69C1262.78 640.439 1262.22 645.167 1261.33 649.839C1261.12 650.921 1260.95 651.913 1260.74 652.904L1260.09 655.748C1259.91 656.611 1259.67 657.493 1259.46 658.278C1259.25 659.077 1259.09 659.763 1258.88 660.446L1258.36 662.231C1258.21 662.738 1258.04 663.222 1257.93 663.583C1257.69 664.318 1257.56 664.698 1257.56 664.698V664.698Z" fill="#FF7B00"/>
<path fill-rule="evenodd" clip-rule="evenodd" d="M1542.84 571.796C1541.34 588.167 1541.2 604.993 1542.52 609.438C1543.21 611.722 1545.26 612.159 1558.47 612.83C1566.81 613.253 1574.15 614.129 1574.15 614.129C1574.15 614.129 1574.23 620.111 1573.7 626.777L1572.74 638.897L1599.57 612.598L1602.23 609.993L1631.71 581.089L1632.08 575.665C1632.4 570.862 1631.94 569.734 1628.09 565.803C1622.52 560.122 1614.08 556.691 1601.45 554.97C1589.52 553.343 1563 553.358 1552.14 554.995L1544.27 556.183L1542.84 571.796Z" fill="#EB4C40"/>
<path d="M1558.47 612.83C1545.26 612.159 1543.21 611.722 1542.52 609.438C1542.52 609.438 1545.86 630.811 1556.32 636.156C1560.33 638.203 1567.49 638.978 1567.49 638.978L1572.74 638.897L1573.7 626.777C1574.23 620.111 1574.15 614.129 1574.15 614.129C1574.15 614.129 1566.81 613.253 1558.47 612.83Z" fill="#EB4C40"/>
<path d="M1558.47 612.83C1545.26 612.159 1543.21 611.722 1542.52 609.438C1542.52 609.438 1545.86 630.811 1556.32 636.156C1560.33 638.203 1567.49 638.978 1567.49 638.978L1572.74 638.897L1573.7 626.777C1574.23 620.111 1574.15 614.129 1574.15 614.129C1574.15 614.129 1566.81 613.253 1558.47 612.83Z" fill="#D8453B"/>
<path fill-rule="evenodd" clip-rule="evenodd" d="M1544.27 556.183L1599.57 612.598L1602.23 609.993L1631.71 581.089L1632.08 575.665C1632.4 570.862 1631.94 569.734 1628.09 565.803C1622.52 560.122 1614.08 556.691 1601.45 554.97C1589.52 553.343 1563 553.358 1552.14 554.995L1544.27 556.183Z" fill="#D8453B"/>
<path d="M1730.2 875.942L1717.15 836.919L1720.72 833.419L1603.44 680.922L1594.98 678.717C1594.98 678.717 1590.54 677.767 1588.64 675.825C1586.74 673.883 1586.48 672.084 1585.88 669.433C1584.98 665.529 1586.33 659.184 1586.33 659.184L1571.67 639.945L1601.67 610.544L1631.66 581.143L1650.96 595.832C1650.96 595.832 1657.74 593.9 1661.93 594.88C1664.58 595.5 1666.36 595.83 1668.26 597.772C1670.17 599.714 1671.03 604.164 1671.03 604.164L1672.71 613.02L1822.13 734.015L1827.12 729.114L1864.81 743.986L1797.5 809.964L1730.2 875.942Z" fill="#E4C7AB"/>
<path fill-rule="evenodd" clip-rule="evenodd" d="M1717.15 836.919L1730.2 875.942L1797.5 809.964L1864.81 743.986L1827.12 729.114L1822.13 734.015L1672.71 613.02L1671.03 604.164C1671.03 604.164 1670.17 599.714 1668.26 597.772C1666.46 595.934 1664.77 595.54 1662.35 594.978C1662.21 594.946 1662.07 594.913 1661.93 594.88C1657.74 593.9 1650.96 595.832 1650.96 595.832L1631.66 581.143L1601.67 610.544L1612.87 621.97L1771.42 783.717L1720.72 833.419L1717.15 836.919Z" fill="#CEB39A"/>
<path fill-rule="evenodd" clip-rule="evenodd" d="M1730.2 875.942L1717.15 836.919L1720.72 833.419L1771.42 783.717L1822.13 734.015L1827.12 729.114L1864.81 743.986L1797.5 809.964L1730.2 875.942Z" fill="#835B52"/>
<path fill-rule="evenodd" clip-rule="evenodd" d="M1797.5 809.964L1864.81 743.986L1827.12 729.114L1822.13 734.015L1771.42 783.717L1797.5 809.964Z" fill="#76524A"/>
<ellipse cx="1627.21" cy="637.316" rx="57.5" ry="27" transform="rotate(-44.4294 1627.21 637.316)" fill="#E4C7AB"/>
<path d="M1611.11 798.738L1590.71 787.928L1603.36 689.407L1617.85 689.198L1624.75 689.444L1626.03 649.68L1632.4 649.036L1631.64 689.689L1631.36 788.686L1611.11 798.738Z" fill="#CAD2C8"/>
<path d="M1470.64 620.413L1481.38 599.977L1579.94 612.292L1580.2 626.79L1579.98 633.683L1619.75 634.828L1620.41 641.197L1579.76 640.576L1480.76 640.633L1470.64 620.413Z" fill="#CAD2C8"/>
<path d="M1650.33 480.934L1670.5 492.17L1655.79 590.404L1641.29 590.309L1634.41 589.919L1632.29 629.647L1625.91 630.157L1627.52 589.529L1629.87 490.56L1650.33 480.934Z" fill="#CAD2C8"/>
<path d="M1788.35 655.941L1777.89 676.522L1679.17 665.556L1678.71 651.063L1678.84 644.168L1639.06 643.566L1638.3 637.207L1678.96 637.272L1777.95 635.862L1788.35 655.941Z" fill="#CAD2C8"/>
<path fill-rule="evenodd" clip-rule="evenodd" d="M1777.89 676.522L1788.35 655.941L1678.71 651.063L1679.17 665.556L1777.89 676.522ZM1678.84 644.168L1678.96 637.272L1638.3 637.207L1639.06 643.566L1678.84 644.168Z" fill="#B2BCB1"/>
<path fill-rule="evenodd" clip-rule="evenodd" d="M1590.71 787.928L1611.11 798.738L1617.85 689.198L1603.36 689.407L1590.71 787.928ZM1624.75 689.444L1631.64 689.689L1632.4 649.036L1626.03 649.68L1624.75 689.444Z" fill="#B2BCB1"/>
<path fill-rule="evenodd" clip-rule="evenodd" d="M1481.38 599.977L1470.64 620.413L1580.2 626.79L1579.94 612.292L1481.38 599.977ZM1579.98 633.683L1579.76 640.576L1620.41 641.197L1619.75 634.828L1579.98 633.683Z" fill="#B2BCB1"/>
<path fill-rule="evenodd" clip-rule="evenodd" d="M1670.5 492.17L1650.33 480.934L1641.29 590.309L1655.79 590.404L1670.5 492.17ZM1634.41 589.919L1627.52 589.529L1625.91 630.157L1632.29 629.647L1634.41 589.919Z" fill="#B2BCB1"/>
<path fill-rule="evenodd" clip-rule="evenodd" d="M1678.96 637.272L1678.84 644.168L1639.06 643.566L1638.3 637.207L1678.96 637.272Z" fill="#E3813E"/>
<path fill-rule="evenodd" clip-rule="evenodd" d="M1631.64 689.689L1624.75 689.444L1626.03 649.68L1632.4 649.036L1631.64 689.689Z" fill="#E3813E"/>
<path fill-rule="evenodd" clip-rule="evenodd" d="M1579.76 640.576L1579.98 633.683L1619.75 634.828L1620.41 641.197L1579.76 640.576Z" fill="#E3813E"/>
<path fill-rule="evenodd" clip-rule="evenodd" d="M1627.52 589.529L1634.41 589.919L1632.29 629.647L1625.91 630.157L1627.52 589.529Z" fill="#E3813E"/>
<circle cx="1627.56" cy="637.673" r="12.5" transform="rotate(-44.4294 1627.56 637.673)" fill="#D6B58F"/>
<circle cx="1628.62" cy="637.684" r="6.25" transform="rotate(-44.4294 1628.62 637.684)" fill="#42414B"/>
<path fill-rule="evenodd" clip-rule="evenodd" d="M1382.87 766.329C1383.16 756.455 1382.62 746.358 1381.66 743.742C1381.16 742.397 1379.92 742.211 1371.97 742.299C1366.95 742.355 1362.52 742.102 1362.52 742.102C1362.52 742.102 1362.25 738.517 1362.32 734.5L1362.44 727.196L1347.33 743.963L1345.83 745.625L1329.22 764.053L1329.2 767.32C1329.19 770.213 1329.5 770.872 1331.96 773.087C1335.51 776.287 1340.7 778.032 1348.34 778.595C1355.56 779.128 1371.46 778.135 1377.91 776.75L1382.59 775.745L1382.87 766.329Z" fill="#EB4C40"/>
<path d="M1371.97 742.299C1379.92 742.211 1381.16 742.397 1381.66 743.742C1381.66 743.742 1378.86 731.047 1372.39 728.23C1369.91 727.151 1365.59 726.952 1365.59 726.952L1362.44 727.196L1362.32 734.5C1362.25 738.517 1362.52 742.102 1362.52 742.102C1362.52 742.102 1366.95 742.355 1371.97 742.299Z" fill="#EB4C40"/>
<path d="M1371.97 742.299C1379.92 742.211 1381.16 742.397 1381.66 743.742C1381.66 743.742 1378.86 731.047 1372.39 728.23C1369.91 727.151 1365.59 726.952 1365.59 726.952L1362.44 727.196L1362.32 734.5C1362.25 738.517 1362.52 742.102 1362.52 742.102C1362.52 742.102 1366.95 742.355 1371.97 742.299Z" fill="#D8453B"/>
<path fill-rule="evenodd" clip-rule="evenodd" d="M1382.59 775.745L1347.33 743.963L1345.83 745.625L1329.22 764.053L1329.2 767.32C1329.19 770.213 1329.5 770.872 1331.96 773.087C1335.51 776.287 1340.7 778.032 1348.34 778.595C1355.56 779.128 1371.46 778.135 1377.91 776.75L1382.59 775.745Z" fill="#D8453B"/>
<path d="M1259.21 590.874L1268.49 613.793L1266.48 616.025L1342.47 703.13L1347.63 704.139C1347.63 704.139 1350.32 704.544 1351.54 705.638C1352.75 706.732 1352.97 707.802 1353.43 709.369C1354.12 711.678 1353.54 715.533 1353.54 715.533L1363.04 726.527L1346.15 745.273L1329.25 764.019L1317.13 755.926C1317.13 755.926 1313.13 757.336 1310.59 756.904C1308.98 756.63 1307.89 756.499 1306.68 755.405C1305.47 754.31 1304.79 751.674 1304.79 751.674L1303.45 746.425L1209.35 679.404L1206.53 682.529L1183.38 675.008L1221.3 632.941L1259.21 590.874Z" fill="#E4C7AB"/>
<path fill-rule="evenodd" clip-rule="evenodd" d="M1268.49 613.793L1259.21 590.874L1221.3 632.941L1183.38 675.008L1206.53 682.529L1209.35 679.404L1303.45 746.425L1304.79 751.674C1304.79 751.674 1305.47 754.31 1306.68 755.405C1307.83 756.44 1308.86 756.613 1310.33 756.861C1310.42 756.875 1310.5 756.889 1310.59 756.904C1313.13 757.336 1317.13 755.926 1317.13 755.926L1329.25 764.019L1346.15 745.273L1339.01 738.836L1237.91 647.714L1266.48 616.025L1268.49 613.793Z" fill="#CEB39A"/>
<path fill-rule="evenodd" clip-rule="evenodd" d="M1259.21 590.874L1268.49 613.793L1266.48 616.025L1237.91 647.714L1209.35 679.404L1206.53 682.529L1183.38 675.008L1221.3 632.941L1259.21 590.874Z" fill="#835B52"/>
<path fill-rule="evenodd" clip-rule="evenodd" d="M1221.3 632.941L1183.38 675.008L1206.53 682.529L1209.35 679.404L1237.91 647.714L1221.3 632.941Z" fill="#76524A"/>
<ellipse cx="1329.83" cy="730.165" rx="34.5509" ry="16.2239" transform="rotate(132.03 1329.83 730.165)" fill="#E4C7AB"/>
<path d="M1333.5 632.756L1346.14 638.483L1342.21 698.038L1333.52 698.702L1329.38 698.811L1330.09 722.706L1326.29 723.328L1325.24 698.919L1321.73 639.536L1333.5 632.756Z" fill="#CAD2C8"/>
<path d="M1424.36 734.492L1418.68 747.147L1359.11 743.419L1358.42 734.733L1358.3 730.591L1334.4 731.38L1333.77 727.585L1358.17 726.449L1417.54 722.741L1424.36 734.492Z" fill="#CAD2C8"/>
<path d="M1321.77 824.811L1309.26 818.821L1314.43 759.361L1323.13 758.88L1327.28 758.858L1327.07 734.953L1330.88 734.41L1331.42 758.836L1333.68 818.279L1321.77 824.811Z" fill="#CAD2C8"/>
<path d="M1232.5 724.974L1238.01 712.243L1297.63 715.156L1298.44 723.831L1298.62 727.972L1322.5 726.856L1323.18 730.642L1298.8 732.112L1239.48 736.631L1232.5 724.974Z" fill="#CAD2C8"/>
<path fill-rule="evenodd" clip-rule="evenodd" d="M1238.01 712.243L1232.5 724.974L1298.44 723.831L1297.63 715.156L1238.01 712.243ZM1298.62 727.972L1298.8 732.112L1323.18 730.642L1322.5 726.856L1298.62 727.972Z" fill="#B2BCB1"/>
<path fill-rule="evenodd" clip-rule="evenodd" d="M1346.14 638.483L1333.5 632.756L1333.52 698.702L1342.21 698.038L1346.14 638.483ZM1329.38 698.811L1325.24 698.919L1326.29 723.328L1330.09 722.706L1329.38 698.811Z" fill="#B2BCB1"/>
<path fill-rule="evenodd" clip-rule="evenodd" d="M1418.68 747.147L1424.36 734.492L1358.42 734.733L1359.11 743.419L1418.68 747.147ZM1358.3 730.591L1358.17 726.449L1333.77 727.585L1334.4 731.38L1358.3 730.591Z" fill="#B2BCB1"/>
<path fill-rule="evenodd" clip-rule="evenodd" d="M1309.26 818.821L1321.77 824.811L1323.13 758.88L1314.43 759.361L1309.26 818.821ZM1327.28 758.858L1331.42 758.836L1330.88 734.41L1327.07 734.953L1327.28 758.858Z" fill="#B2BCB1"/>
<path fill-rule="evenodd" clip-rule="evenodd" d="M1298.8 732.112L1298.62 727.972L1322.5 726.856L1323.18 730.642L1298.8 732.112Z" fill="#E3813E"/>
<path fill-rule="evenodd" clip-rule="evenodd" d="M1325.24 698.919L1329.38 698.811L1330.09 722.706L1326.29 723.328L1325.24 698.919Z" fill="#E3813E"/>
<path fill-rule="evenodd" clip-rule="evenodd" d="M1358.17 726.449L1358.3 730.591L1334.4 731.38L1333.77 727.585L1358.17 726.449Z" fill="#E3813E"/>
<path fill-rule="evenodd" clip-rule="evenodd" d="M1331.42 758.836L1327.28 758.858L1327.07 734.953L1330.88 734.41L1331.42 758.836Z" fill="#E3813E"/>
<circle cx="1329.61" cy="729.964" r="7.51107" transform="rotate(132.03 1329.61 729.964)" fill="#D6B58F"/>
<circle cx="1328.98" cy="729.997" r="3.75553" transform="rotate(132.03 1328.98 729.997)" fill="#42414B"/>
<path d="M1731.45 714.531C1747.73 714.693 1760.79 727.899 1760.63 744.026C1760.47 760.153 1747.14 773.096 1730.87 772.934C1714.59 772.772 1701.52 759.566 1701.68 743.439C1701.84 727.312 1715.17 714.369 1731.45 714.531V714.531ZM1668.54 699.225C1668.44 709.491 1676.76 717.897 1687.12 718C1697.48 718.103 1705.96 709.865 1706.07 699.599C1706.17 689.333 1697.85 680.927 1687.49 680.824C1677.13 680.721 1668.65 688.959 1668.54 699.225Z" fill="#2B3B47"/>
<path d="M1264.45 687.724C1254.69 688.231 1246.36 680.796 1245.86 671.118C1245.35 661.44 1252.87 653.183 1262.64 652.676C1272.4 652.169 1280.73 659.604 1281.23 669.282C1281.73 678.961 1274.22 687.217 1264.45 687.724V687.724ZM1302.75 694.569C1302.43 688.409 1297.13 683.676 1290.91 683.999C1284.69 684.321 1279.91 689.577 1280.23 695.738C1280.55 701.898 1285.85 706.631 1292.07 706.308C1298.29 705.986 1303.07 700.73 1302.75 694.569Z" fill="#2B3B47"/>
<path d="M259.078 450.416V458.341C259.078 458.908 259.464 459.403 260.014 459.538C272.449 462.593 284.883 456.136 297.318 458.91C298.086 459.081 298.814 458.494 298.814 457.707V450.416C285.569 446.64 272.323 454.191 259.078 450.416V450.416Z" fill="#FF473E"/>
<path d="M259.078 441.542V450.416C272.323 454.191 285.569 446.64 298.814 450.416V441.542C285.569 437.766 272.323 445.317 259.078 441.542Z" fill="#0B67B2"/>
<path d="M259.078 433.906V441.542C272.323 445.317 285.569 437.766 298.814 441.542V433.271C298.814 432.705 298.428 432.21 297.878 432.075C285.443 429.02 273.009 435.476 260.574 432.702C259.806 432.531 259.078 433.119 259.078 433.906Z" fill="#E8E8E8"/>
<path d="M519.078 698.416V706.341C519.078 706.908 519.464 707.403 520.014 707.538C532.449 710.593 544.883 704.136 557.318 706.91C558.086 707.081 558.814 706.494 558.814 705.707V698.416C545.569 694.64 532.323 702.191 519.078 698.416V698.416Z" fill="#FF473E"/>
<path d="M519.078 689.542V698.416C532.323 702.191 545.569 694.64 558.814 698.416V689.542C545.569 685.766 532.323 693.317 519.078 689.542Z" fill="#0B67B2"/>
<path d="M519.078 681.906V689.542C532.323 693.317 545.569 685.766 558.814 689.542V681.271C558.814 680.705 558.428 680.21 557.878 680.075C545.443 677.02 533.009 683.476 520.574 680.702C519.806 680.531 519.078 681.119 519.078 681.906Z" fill="#E8E8E8"/>
<g clip-path="url(#clip9_943_612)">
<path d="M734.233 511.52L741.147 510.894C741.641 510.849 742.042 510.473 742.117 509.982C743.799 498.894 737.183 488.557 738.619 477.49C738.708 476.807 738.138 476.218 737.451 476.28L731.091 476.857C728.845 488.71 736.479 499.667 734.233 511.52V511.52Z" fill="#FF473E"/>
<path d="M726.492 512.222L734.233 511.52C736.479 499.667 728.845 488.71 731.091 476.857L723.35 477.559C721.104 489.412 728.738 500.369 726.492 512.222Z" fill="#0B67B2"/>
<path d="M719.831 512.826L726.492 512.222C728.738 500.369 721.104 489.412 723.35 477.559L716.135 478.213C715.641 478.257 715.24 478.633 715.165 479.124C713.484 490.213 720.099 500.549 718.663 511.616C718.574 512.299 719.144 512.888 719.831 512.826Z" fill="#E8E8E8"/>
</g>
<path d="M1574.08 582.416V590.341C1574.08 590.908 1574.46 591.403 1575.01 591.538C1587.45 594.593 1599.88 588.136 1612.32 590.91C1613.09 591.081 1613.81 590.494 1613.81 589.707V582.416C1600.57 578.64 1587.32 586.191 1574.08 582.416V582.416Z" fill="#FF473E"/>
<path d="M1574.08 573.542V582.416C1587.32 586.191 1600.57 578.64 1613.81 582.416V573.542C1600.57 569.766 1587.32 577.317 1574.08 573.542Z" fill="#0B67B2"/>
<path d="M1574.08 565.906V573.542C1587.32 577.317 1600.57 569.766 1613.81 573.542V565.271C1613.81 564.705 1613.43 564.21 1612.88 564.075C1600.44 561.02 1588.01 567.476 1575.57 564.702C1574.81 564.531 1574.08 565.119 1574.08 565.906Z" fill="#E8E8E8"/>
<path d="M1060.08 247.416V255.341C1060.08 255.908 1060.46 256.403 1061.01 256.538C1073.45 259.593 1085.88 253.136 1098.32 255.91C1099.09 256.081 1099.81 255.494 1099.81 254.707V247.416C1086.57 243.64 1073.32 251.191 1060.08 247.416V247.416Z" fill="#FF473E"/>
<path d="M1060.08 238.542V247.416C1073.32 251.191 1086.57 243.64 1099.81 247.416V238.542C1086.57 234.766 1073.32 242.317 1060.08 238.542Z" fill="#0B67B2"/>
<path d="M1060.08 230.906V238.542C1073.32 242.317 1086.57 234.766 1099.81 238.542V230.271C1099.81 229.705 1099.43 229.21 1098.88 229.075C1086.44 226.02 1074.01 232.476 1061.57 229.702C1060.81 229.531 1060.08 230.119 1060.08 230.906Z" fill="#E8E8E8"/>
<ellipse cx="1753.45" cy="162.698" rx="169.446" ry="157.698" fill="#005D4B"/>
<path fill-rule="evenodd" clip-rule="evenodd" d="M1742.37 42.6291C1721.47 45.4465 1715.28 51.6359 1725.25 59.7376C1727.77 61.7874 1732.92 64.8053 1736.7 66.4449C1742.59 68.9999 1745.25 69.425 1755.33 69.425C1765.57 69.425 1768.03 69.0183 1774.36 66.2742C1786.92 60.8307 1792.64 62.3568 1807 74.9808C1819.44 85.9159 1819.96 87.8981 1814.24 102.502C1807.29 120.226 1808.2 123.749 1822.83 136.108L1832.48 144.257L1830.44 156.496C1829.31 163.227 1827.5 170.475 1826.41 172.603C1825.32 174.73 1819.47 180.799 1813.4 186.087C1806.19 192.377 1802.38 196.555 1802.38 198.16C1802.38 202.089 1806.69 205.198 1812.13 205.198C1820.1 205.198 1820.55 206.662 1817.4 222.59C1814.4 237.752 1813.06 240.917 1807.5 245.942C1802.64 250.328 1772.24 266.507 1765.85 268.107C1752.83 271.368 1744.05 269.289 1723.06 257.983C1707.26 249.473 1700.66 244.654 1697.73 239.487C1695.99 236.407 1680.53 161.714 1679.09 149.45L1678.27 142.396L1687.02 134.761C1696.46 126.516 1699.08 121.774 1698.03 114.835C1696.94 107.679 1687.28 86.1417 1684.55 84.7885C1680.09 82.5806 1676.34 84.5009 1672.92 90.751C1667.49 100.671 1664.84 112.596 1664.05 130.659C1663.33 147.066 1663.29 147.232 1659.82 149.935C1652.94 155.292 1652.82 159.096 1658.78 181.234C1664.31 201.749 1666.15 205.198 1671.62 205.198C1674.44 205.198 1674.73 205.906 1677.36 219.233C1681.98 242.631 1683.82 246.957 1692.62 254.972C1700 261.705 1722.62 274.639 1736.69 280.172C1744.7 283.322 1764.63 283.412 1773.28 280.335C1786.47 275.644 1811.44 261.404 1818.72 254.418C1826.88 246.6 1828.83 241.883 1833.3 219.233C1835.85 206.307 1836.29 205.198 1838.8 205.198C1844.42 205.198 1845.71 202.814 1851.39 181.9C1857.59 159.075 1857.52 155.138 1850.84 149.936C1847.39 147.251 1847.33 146.988 1846.58 131.234C1846.15 122.348 1844.92 112.223 1843.8 108.422C1833.84 74.6474 1801.7 46.9784 1767.31 42.5902C1756.42 41.2003 1752.93 41.2049 1742.37 42.6291ZM1728.86 137.087C1718.94 138.911 1705.85 142.756 1699.46 145.727C1692.93 148.757 1691.58 153.076 1695.9 157.076C1698.14 159.15 1700.03 159.367 1715.71 159.367C1732.22 159.367 1733.04 159.476 1733.04 161.659C1733.04 164.61 1737.28 168.533 1740.47 168.533C1741.83 168.533 1744.06 167.502 1745.42 166.242C1747.59 164.241 1747.9 162.423 1747.9 151.92C1747.9 141.417 1747.59 139.598 1745.42 137.598C1742.59 134.977 1740.66 134.918 1728.86 137.087ZM1765.34 137.504C1763.05 139.618 1762.76 141.258 1762.76 151.92C1762.76 162.423 1763.07 164.241 1765.23 166.242C1766.6 167.502 1768.83 168.533 1770.19 168.533C1773.38 168.533 1777.62 164.61 1777.62 161.659C1777.62 159.476 1778.44 159.367 1794.95 159.367C1810.63 159.367 1812.52 159.15 1814.76 157.076C1817.87 154.2 1817.92 150.835 1814.9 148.041C1810.8 144.244 1789.14 137.775 1774.31 135.918C1768.8 135.227 1767.56 135.446 1765.34 137.504ZM1738 218.947C1732.46 224.072 1737.38 230.488 1748.63 232.82C1764.8 236.168 1781.1 226.756 1772.66 218.947C1769.65 216.156 1769 216.138 1761.38 218.643C1755.64 220.529 1755.02 220.529 1749.28 218.643C1741.66 216.138 1741.01 216.156 1738 218.947ZM1735.52 241.472C1730.5 243.238 1729.02 249.374 1732.83 252.569C1734.75 254.172 1738.25 254.465 1755.54 254.465C1773.78 254.465 1776.22 254.238 1778.04 252.37C1780.56 249.801 1780.67 246.466 1778.34 243.513C1776.74 241.493 1774.79 241.267 1756.98 241.054C1746.2 240.925 1736.54 241.113 1735.52 241.472ZM1655.66 294.064C1638.63 302.611 1624.01 310.444 1623.16 311.47C1620.92 314.17 1621.25 317.151 1624.09 319.774C1626.47 321.979 1628.21 322.065 1670.86 322.065C1719.52 322.065 1720.72 321.906 1720.61 315.412C1720.54 310.775 1693.87 279.2 1689.7 278.812C1687.68 278.624 1675.95 283.878 1655.66 294.064ZM1815.74 279.958C1811.74 282.871 1787.52 313.207 1787.52 315.306C1787.52 316.504 1788.64 318.513 1790 319.774C1792.38 321.979 1794.12 322.065 1836.77 322.065C1874.86 322.065 1881.45 321.815 1883.82 320.281C1887.18 318.107 1887.49 312.838 1884.41 310.377C1880.84 307.527 1821.98 278.526 1819.76 278.526C1818.63 278.526 1816.82 279.171 1815.74 279.958ZM1735.52 299.15C1731.9 302.494 1732.44 305.09 1738.14 311.937C1745.96 321.327 1747.21 322.065 1755.33 322.065C1763.45 322.065 1764.7 321.327 1772.52 311.937C1778.22 305.09 1778.75 302.494 1775.14 299.15C1772.9 297.076 1771.01 296.858 1755.33 296.858C1739.65 296.858 1737.76 297.076 1735.52 299.15Z" fill="white"/>
</g>
<defs>
<clipPath id="clip0_943_612">
<rect width="2013" height="1000" fill="white"/>
</clipPath>
<clipPath id="clip1_943_612">
<rect width="40.0363" height="37.7615" fill="white" transform="translate(245.968 191.17) rotate(105)"/>
</clipPath>
<clipPath id="clip2_943_612">
<rect width="52.9485" height="52.9485" fill="white" transform="translate(259.459 343) rotate(13.6094)"/>
</clipPath>
<clipPath id="clip3_943_612">
<rect width="24.0893" height="24.0893" fill="white" transform="translate(271.974 210.13) rotate(118.609)"/>
</clipPath>
<clipPath id="clip4_943_612">
<rect width="52.9485" height="52.9485" fill="white" transform="translate(436 712.834) rotate(-75.1328)"/>
</clipPath>
<clipPath id="clip5_943_612">
<rect width="46.3786" height="46.3786" fill="white" transform="translate(753.38 582.853) rotate(-170.312)"/>
</clipPath>
<clipPath id="clip6_943_612">
<rect width="52.9485" height="52.9485" fill="white" transform="translate(1026.1 327.743) rotate(-131.526)"/>
</clipPath>
<clipPath id="clip7_943_612">
<rect width="52.9485" height="52.9485" fill="white" transform="translate(1495.28 539.076) rotate(-45.0764)"/>
</clipPath>
<clipPath id="clip8_943_612">
<rect width="31.816" height="31.816" fill="white" transform="translate(1412.61 784.188) rotate(131.383)"/>
</clipPath>
<clipPath id="clip9_943_612">
<rect width="35.0368" height="35.0368" fill="white" transform="translate(712.94 513.519) rotate(-95.1795)"/>
</clipPath>
</defs>
</svg>
