<svg width="2013" height="1000" viewBox="0 0 2013 1000" fill="none" xmlns="http://www.w3.org/2000/svg">
<g clip-path="url(#clip0_937_612)">
<rect width="2013" height="1000" fill="white"/>
<path fill-rule="evenodd" clip-rule="evenodd" d="M1531.45 290.133C1520.8 277.61 1508.87 265.741 1504.77 263.582C1502.66 262.473 1500.91 263.633 1491.19 272.605C1485.06 278.269 1479.3 282.903 1479.3 282.903C1479.3 282.903 1474.96 278.78 1470.57 273.739L1462.58 264.575L1462.61 302.143L1462.61 305.864L1462.65 347.154L1466.27 351.207C1469.48 354.798 1470.6 355.26 1476.11 355.256C1484.06 355.249 1492.41 351.62 1502.48 343.795C1511.99 336.402 1530.53 317.438 1536.95 308.531L1541.61 302.077L1531.45 290.133Z" fill="#EB4C40"/>
<path d="M1491.19 272.605C1500.91 263.633 1502.66 262.473 1504.77 263.582C1504.77 263.582 1487.15 251.021 1476.02 254.756C1471.76 256.187 1466.19 260.764 1466.19 260.764L1462.58 264.575L1470.57 273.739C1474.96 278.78 1479.3 282.903 1479.3 282.903C1479.3 282.903 1485.06 278.269 1491.19 272.605Z" fill="#EB4C40"/>
<path d="M1491.19 272.605C1500.91 263.633 1502.66 262.473 1504.77 263.582C1504.77 263.582 1487.15 251.021 1476.02 254.756C1471.76 256.187 1466.19 260.764 1466.19 260.764L1462.58 264.575L1470.57 273.739C1474.96 278.78 1479.3 282.903 1479.3 282.903C1479.3 282.903 1485.06 278.269 1491.19 272.605Z" fill="#D8453B"/>
<path fill-rule="evenodd" clip-rule="evenodd" d="M1541.61 302.077L1462.61 302.143L1462.61 305.864L1462.65 347.154L1466.27 351.207C1469.48 354.798 1470.6 355.26 1476.11 355.256C1484.06 355.249 1492.41 351.62 1502.48 343.795C1511.99 336.402 1530.53 317.438 1536.95 308.531L1541.61 302.077Z" fill="#D8453B"/>
<path d="M1183.03 211.311L1220.05 229.28L1220.05 234.28L1411.07 257.12L1418.57 252.614C1418.57 252.614 1422.34 250.111 1425.06 250.108C1427.78 250.106 1429.25 251.185 1431.57 252.603C1434.98 254.693 1438.57 260.097 1438.57 260.097L1462.58 263.077L1462.61 305.077L1462.65 347.077L1438.65 350.597C1438.65 350.597 1435.28 356.796 1431.66 359.103C1429.36 360.562 1427.88 361.606 1425.16 361.608C1422.44 361.611 1418.66 359.114 1418.66 359.114L1411.15 354.12L1220.17 376.28L1220.18 383.28L1183.19 399.811L1183.11 305.561L1183.03 211.311Z" fill="#E4C7AB"/>
<path fill-rule="evenodd" clip-rule="evenodd" d="M1220.05 229.28L1183.03 211.311L1183.11 305.561L1183.19 399.811L1220.18 383.28L1220.17 376.28L1411.15 354.12L1418.66 359.114C1418.66 359.114 1422.44 361.611 1425.16 361.608C1427.73 361.606 1429.2 360.671 1431.29 359.334C1431.41 359.258 1431.53 359.181 1431.66 359.103C1435.28 356.796 1438.65 350.597 1438.65 350.597L1462.65 347.077L1462.61 305.077L1446.61 305.09L1220.11 305.28L1220.05 234.28L1220.05 229.28Z" fill="#CEB39A"/>
<path fill-rule="evenodd" clip-rule="evenodd" d="M1183.03 211.311L1220.05 229.28L1220.05 234.28L1220.11 305.28L1220.17 376.28L1220.18 383.28L1183.19 399.811L1183.11 305.561L1183.03 211.311Z" fill="#835B52"/>
<path fill-rule="evenodd" clip-rule="evenodd" d="M1183.11 305.561L1183.19 399.811L1220.18 383.28L1220.17 376.28L1220.11 305.28L1183.11 305.561Z" fill="#76524A"/>
<ellipse cx="1425.61" cy="304.608" rx="57.5" ry="27" transform="rotate(89.952 1425.61 304.608)" fill="#E4C7AB"/>
<path d="M1321.51 180.195L1343.5 173.177L1405.07 251.125L1395.07 261.634L1390.08 266.388L1417.6 295.115L1413.61 300.118L1385.08 271.142L1314.52 201.701L1321.51 180.195Z" fill="#CAD2C8"/>
<path d="M1547.2 204.53L1554.29 226.5L1476.55 288.329L1466.01 278.374L1461.24 273.394L1432.61 301.015L1427.59 297.036L1456.47 268.414L1525.67 197.621L1547.2 204.53Z" fill="#CAD2C8"/>
<path d="M1521.2 430.514L1499.07 437.07L1439.15 357.848L1449.36 347.551L1454.45 342.903L1427.54 313.605L1431.64 308.687L1459.55 338.254L1528.63 409.159L1521.2 430.514Z" fill="#CAD2C8"/>
<path d="M1299.59 406.747L1292.2 384.876L1369.09 321.989L1379.77 331.8L1384.6 336.714L1412.86 308.704L1417.93 312.614L1389.44 341.628L1321.22 413.361L1299.59 406.747Z" fill="#CAD2C8"/>
<path fill-rule="evenodd" clip-rule="evenodd" d="M1292.2 384.876L1299.59 406.747L1379.77 331.8L1369.09 321.989L1292.2 384.876ZM1384.6 336.714L1389.44 341.628L1417.93 312.614L1412.86 308.704L1384.6 336.714Z" fill="#B2BCB1"/>
<path fill-rule="evenodd" clip-rule="evenodd" d="M1343.5 173.177L1321.51 180.195L1395.07 261.634L1405.07 251.125L1343.5 173.177ZM1390.08 266.388L1385.08 271.142L1413.61 300.118L1417.6 295.115L1390.08 266.388Z" fill="#B2BCB1"/>
<path fill-rule="evenodd" clip-rule="evenodd" d="M1554.29 226.5L1547.2 204.53L1466.01 278.374L1476.55 288.329L1554.29 226.5ZM1461.24 273.394L1456.47 268.414L1427.59 297.036L1432.61 301.015L1461.24 273.394Z" fill="#B2BCB1"/>
<path fill-rule="evenodd" clip-rule="evenodd" d="M1499.07 437.07L1521.2 430.514L1449.36 347.551L1439.15 357.848L1499.07 437.07ZM1454.45 342.903L1459.55 338.254L1431.64 308.687L1427.54 313.605L1454.45 342.903Z" fill="#B2BCB1"/>
<path fill-rule="evenodd" clip-rule="evenodd" d="M1389.44 341.628L1384.6 336.714L1412.86 308.704L1417.93 312.614L1389.44 341.628Z" fill="#E3813E"/>
<path fill-rule="evenodd" clip-rule="evenodd" d="M1385.08 271.142L1390.08 266.388L1417.6 295.115L1413.61 300.118L1385.08 271.142Z" fill="#E3813E"/>
<path fill-rule="evenodd" clip-rule="evenodd" d="M1456.47 268.414L1461.24 273.394L1432.61 301.015L1427.59 297.036L1456.47 268.414Z" fill="#E3813E"/>
<path fill-rule="evenodd" clip-rule="evenodd" d="M1459.55 338.254L1454.45 342.903L1427.54 313.605L1431.64 308.687L1459.55 338.254Z" fill="#E3813E"/>
<circle cx="1425.11" cy="304.608" r="12.5" transform="rotate(89.952 1425.11 304.608)" fill="#D6B58F"/>
<circle cx="1424.36" cy="305.359" r="6.25" transform="rotate(89.952 1424.36 305.359)" fill="#42414B"/>
<path fill-rule="evenodd" clip-rule="evenodd" d="M957.43 39.9933C944.828 46.1364 932.87 53.0412 930.68 55.4406C929.555 56.6737 930.702 57.7192 939.6 63.5651C945.218 67.2557 949.808 70.7124 949.808 70.7124C949.808 70.7124 945.653 73.2245 940.58 75.7599L931.356 80.3705L968.922 80.7947L972.643 80.8367L1013.93 81.3029L1018.01 79.2113C1021.62 77.3594 1022.1 76.7004 1022.13 73.4489C1022.19 68.7502 1018.62 63.7741 1010.87 57.737C1003.55 52.0328 984.726 40.8609 975.868 36.9606L969.449 34.1353L957.43 39.9933Z" fill="#EB4C40"/>
<path d="M939.6 63.5651C930.702 57.7192 929.555 56.6737 930.68 55.4406C930.68 55.4406 917.987 65.6947 921.639 72.3142C923.037 74.8501 927.573 78.1902 927.573 78.1902L931.356 80.3705L940.58 75.7599C945.653 73.2245 949.808 70.7124 949.808 70.7124C949.808 70.7124 945.218 67.2557 939.6 63.5651Z" fill="#EB4C40"/>
<path d="M939.6 63.5651C930.702 57.7192 929.555 56.6737 930.68 55.4406C930.68 55.4406 917.987 65.6947 921.639 72.3142C923.037 74.8501 927.573 78.1902 927.573 78.1902L931.356 80.3705L940.58 75.7599C945.653 73.2245 949.808 70.7124 949.808 70.7124C949.808 70.7124 945.218 67.2557 939.6 63.5651Z" fill="#D8453B"/>
<path fill-rule="evenodd" clip-rule="evenodd" d="M969.449 34.1353L968.922 80.7947L972.643 80.8367L1013.93 81.3029L1018.01 79.2113C1021.62 77.3594 1022.1 76.7004 1022.13 73.4489C1022.19 68.7502 1018.62 63.7741 1010.87 57.737C1003.55 52.0328 984.726 40.8609 975.868 36.9606L969.449 34.1353Z" fill="#D8453B"/>
<path d="M875.998 244.846L894.243 223.196L899.243 223.253L923.515 110.703L919.065 106.223C919.065 106.223 916.591 103.962 916.609 102.355C916.627 100.749 917.716 99.8983 919.152 98.5445C921.267 96.5501 926.698 94.4948 926.698 94.4948L929.858 80.3536L971.856 80.8278L1013.85 81.3021L1017.19 95.5166C1017.19 95.5166 1023.37 97.5763 1025.65 99.7469C1027.09 101.12 1028.12 102.008 1028.1 103.614C1028.08 105.221 1025.56 107.425 1025.56 107.425L1020.51 111.798L1041.23 224.856L1048.23 224.935L1064.49 246.974L970.242 245.91L875.998 244.846Z" fill="#E4C7AB"/>
<path fill-rule="evenodd" clip-rule="evenodd" d="M894.243 223.196L875.998 244.846L970.242 245.91L1064.49 246.974L1048.23 224.935L1041.23 224.856L1020.51 111.798L1025.56 107.425C1025.56 107.425 1028.08 105.221 1028.1 103.614C1028.12 102.094 1027.19 101.217 1025.87 99.9638C1025.8 99.8928 1025.72 99.8205 1025.65 99.7469C1023.37 97.5763 1017.19 95.5166 1017.19 95.5166L1013.85 81.3021L971.856 80.8278L971.749 90.2778L970.238 224.054L899.243 223.253L894.243 223.196Z" fill="#CEB39A"/>
<path fill-rule="evenodd" clip-rule="evenodd" d="M875.998 244.846L894.243 223.196L899.243 223.253L970.238 224.054L1041.23 224.856L1048.23 224.935L1064.49 246.974L970.242 245.91L875.998 244.846Z" fill="#835B52"/>
<path fill-rule="evenodd" clip-rule="evenodd" d="M970.242 245.91L1064.49 246.974L1048.23 224.935L1041.23 224.856L970.238 224.054L970.242 245.91Z" fill="#76524A"/>
<ellipse cx="971.109" cy="102.675" rx="57.5" ry="15.9479" transform="rotate(0.646913 971.109 102.675)" fill="#E4C7AB"/>
<path d="M845.923 162.695L839.07 149.622L917.476 114.179L927.908 120.204L932.625 123.211L961.556 107.293L966.529 109.712L937.341 126.217L867.375 167.072L845.923 162.695Z" fill="#CAD2C8"/>
<path d="M871.95 29.6869L893.972 25.7556L955.208 72.3954L945.173 78.5049L940.157 81.2643L967.559 98.5L963.543 101.416L935.141 84.0238L864.878 42.3213L871.95 29.6869Z" fill="#CAD2C8"/>
<path d="M1097.72 47.7011L1104.11 60.8525L1024.45 95.3074L1014.23 89.1563L1009.62 86.0926L980.12 101.644L975.233 99.1649L1005.01 83.0288L1076.43 43.0605L1097.72 47.7011Z" fill="#CAD2C8"/>
<path d="M1072.29 178.306L1050.37 182.415L988.065 136.263L997.955 130.073L1002.9 127.273L975.109 110.256L979.056 107.307L1007.86 124.473L1079.07 165.614L1072.29 178.306Z" fill="#CAD2C8"/>
<path fill-rule="evenodd" clip-rule="evenodd" d="M1050.37 182.415L1072.29 178.306L997.955 130.073L988.065 136.263L1050.37 182.415ZM1002.9 127.273L1007.86 124.473L979.056 107.307L975.109 110.256L1002.9 127.273Z" fill="#B2BCB1"/>
<path fill-rule="evenodd" clip-rule="evenodd" d="M839.07 149.622L845.923 162.695L927.908 120.204L917.476 114.179L839.07 149.622ZM932.625 123.211L937.341 126.217L966.529 109.712L961.556 107.293L932.625 123.211Z" fill="#B2BCB1"/>
<path fill-rule="evenodd" clip-rule="evenodd" d="M893.972 25.7556L871.95 29.6869L945.173 78.5049L955.208 72.3954L893.972 25.7556ZM940.157 81.2643L935.141 84.0238L963.543 101.416L967.559 98.5L940.157 81.2643Z" fill="#B2BCB1"/>
<path fill-rule="evenodd" clip-rule="evenodd" d="M1104.11 60.8525L1097.72 47.7011L1014.23 89.1563L1024.45 95.3074L1104.11 60.8525ZM1009.62 86.0926L1005.01 83.0288L975.233 99.1649L980.12 101.644L1009.62 86.0926Z" fill="#B2BCB1"/>
<path fill-rule="evenodd" clip-rule="evenodd" d="M1007.86 124.473L1002.9 127.273L975.109 110.256L979.056 107.307L1007.86 124.473Z" fill="#E3813E"/>
<path fill-rule="evenodd" clip-rule="evenodd" d="M937.341 126.217L932.625 123.211L961.556 107.293L966.529 109.712L937.341 126.217Z" fill="#E3813E"/>
<path fill-rule="evenodd" clip-rule="evenodd" d="M935.141 84.0238L940.157 81.2643L967.559 98.5L963.543 101.416L935.141 84.0238Z" fill="#E3813E"/>
<path fill-rule="evenodd" clip-rule="evenodd" d="M1005.01 83.0288L1009.62 86.0926L980.12 101.644L975.233 99.1649L1005.01 83.0288Z" fill="#E3813E"/>
<ellipse cx="971.106" cy="102.971" rx="12.5" ry="7.38328" transform="rotate(0.646913 971.106 102.971)" fill="#D6B58F"/>
<ellipse cx="971.85" cy="103.422" rx="6.25" ry="3.69164" transform="rotate(0.646913 971.85 103.422)" fill="#42414B"/>
<rect x="739.946" y="416.37" width="110" height="36" rx="18" transform="rotate(-90.3774 739.946 416.37)" fill="#B37A60"/>
<rect x="739.946" y="416.37" width="110" height="36" rx="18" transform="rotate(-90.3774 739.946 416.37)" fill="#B37A60"/>
<rect x="651.724" y="382.951" width="45" height="33" rx="16.5" transform="rotate(-90.3774 651.724 382.951)" fill="#B37A60"/>
<ellipse cx="710.238" cy="233.062" rx="16.5" ry="24.5" transform="rotate(-90.3774 710.238 233.062)" fill="#B37A60"/>
<rect x="644.658" y="372.997" width="130" height="133" transform="rotate(-90.3774 644.658 372.997)" fill="#B37A60"/>
<rect x="644.658" y="372.997" width="130" height="133" transform="rotate(-90.3774 644.658 372.997)" fill="#B37A60"/>
<path fill-rule="evenodd" clip-rule="evenodd" d="M639.57 375.051C643.548 381.494 651.246 384.885 661.734 384.816C672.221 384.746 679.874 381.255 683.767 374.76L685.645 371.63L685.699 379.446C685.734 384.199 686.312 388.319 687.178 389.96C694.658 404.135 723.454 404.534 731.821 390.577L733.758 387.348L733.813 395.164C733.876 404.088 735.264 407.578 740.172 411.145C745.483 415.007 750.001 416.304 757.961 416.251C765.92 416.199 770.421 414.842 775.68 410.911C782.188 406.048 781.924 409.559 781.398 334.72C781.045 284.62 780.633 267.303 779.83 268.787C778.01 272.142 773.959 276.132 771.181 277.306L768.555 278.415L768.964 295.818C769.314 310.764 769.145 313.452 767.767 314.851C765.762 316.887 764.862 316.901 762.865 314.928C761.557 313.633 761.265 310.543 761.176 297.044L761.069 280.725L754.639 280.166C747.369 279.534 741.679 277.496 738.19 274.274C730.039 266.75 732.064 257.675 743.223 251.726C747.54 249.425 749.63 248.978 756.358 248.917C767.732 248.815 776.505 252.884 779.496 259.648C780.698 262.364 780.85 258.82 780.675 232.202C780.5 205.583 780.3 202.041 779.135 204.773C776.556 210.82 766.262 216.262 757.291 216.321C747.436 216.386 736.715 211.207 734.002 205.07C732.684 202.09 732.623 202.298 732.634 209.75C732.642 214.06 732.032 219.05 731.274 220.902C729.968 224.092 725.091 228.608 721.599 229.858C719.798 230.503 720.186 235.607 722.035 235.594C722.607 235.591 724.588 236.728 726.438 238.123C742.877 250.515 723.305 269.374 700.309 263.299C688.69 260.23 682.378 251.592 686.222 244.021C688.729 239.086 695.882 234.505 702.745 233.438C705.4 233.027 705.264 232.946 698.227 230.745C692.94 229.092 688.93 226.225 686.574 222.41L684.655 219.305L684.704 227.121C684.733 232.017 684.211 236.001 683.306 237.785C681.715 240.917 676.821 245.461 674.079 246.351C672.482 246.869 672.364 248.457 672.737 264.353C673.087 279.326 672.918 282.016 671.54 283.415C669.535 285.451 668.635 285.465 666.638 283.492C665.329 282.197 665.038 279.094 664.948 265.464L664.84 248.999L660.521 249.028C651.199 249.089 642.532 245.01 638.658 238.738C636.782 235.699 636.76 236.633 637.202 303.8C637.631 368.952 637.736 372.083 639.57 375.051ZM651.026 342.866C651.886 341.994 652.974 341.278 653.445 341.275C653.916 341.272 655.014 341.973 655.885 342.834C658.182 345.105 658.316 365.443 656.049 367.745C655.19 368.616 654.101 369.332 653.63 369.335C653.159 369.338 652.061 368.637 651.19 367.777C648.894 365.505 648.76 345.168 651.026 342.866ZM650.762 302.78C652.724 300.79 653.634 300.784 655.621 302.748C657.939 305.04 658.099 329.346 655.812 331.668C654.952 332.539 653.864 333.255 653.393 333.258C652.921 333.261 651.824 332.56 650.953 331.7C648.635 329.408 648.475 305.102 650.762 302.78ZM650.498 262.695C651.358 261.823 652.446 261.107 652.917 261.104C653.388 261.101 654.486 261.802 655.357 262.663C657.675 264.954 657.835 289.26 655.547 291.582C654.688 292.454 653.6 293.17 653.128 293.173C652.657 293.176 651.56 292.474 650.689 291.614C648.371 289.323 648.211 265.017 650.498 262.695ZM667.135 358.794C667.994 357.923 669.082 357.207 669.554 357.204C670.025 357.201 671.122 357.902 671.993 358.762C674.26 361.004 674.367 377.393 672.131 379.665C671.272 380.537 670.183 381.252 669.712 381.255C669.241 381.258 668.143 380.557 667.272 379.697C666.072 378.51 665.676 375.989 665.632 369.256C665.588 362.523 665.95 359.997 667.135 358.794ZM666.712 294.658C668.673 292.667 669.583 292.661 671.571 294.626C673.943 296.971 674.261 345.22 671.92 347.597C671.06 348.468 669.972 349.184 669.501 349.187C669.03 349.19 667.932 348.489 667.061 347.629C664.689 345.283 664.371 297.034 666.712 294.658ZM747.253 374.302C749.214 372.311 750.124 372.305 752.112 374.27C753.355 375.5 753.709 378.159 753.765 386.715C753.821 395.27 753.503 397.934 752.276 399.181C751.416 400.052 750.328 400.768 749.857 400.771C749.386 400.774 748.288 400.073 747.417 399.213C746.174 397.982 745.82 395.323 745.764 386.767C745.707 378.212 746.026 375.548 747.253 374.302ZM746.989 334.216C748.95 332.226 749.86 332.22 751.848 334.184C754.165 336.476 754.325 360.782 752.038 363.104C751.179 363.975 750.09 364.691 749.619 364.694C749.148 364.697 748.05 363.996 747.179 363.136C744.862 360.844 744.702 336.538 746.989 334.216ZM746.725 294.13C747.584 293.259 748.673 292.543 749.144 292.54C749.615 292.537 750.713 293.238 751.584 294.098C753.901 296.39 754.061 320.696 751.774 323.018C750.915 323.89 749.826 324.605 749.355 324.609C748.884 324.612 747.786 323.91 746.915 323.05C744.598 320.758 744.438 296.453 746.725 294.13ZM763.361 390.23C765.323 388.24 766.233 388.234 768.22 390.198C769.42 391.385 769.816 393.906 769.86 400.639C769.904 407.373 769.542 409.899 768.358 411.101C767.498 411.972 766.41 412.688 765.939 412.691C765.468 412.694 764.37 411.993 763.499 411.133C762.299 409.946 761.903 407.425 761.859 400.692C761.814 393.959 762.177 391.433 763.361 390.23ZM762.939 326.093C764.9 324.103 765.81 324.097 767.798 326.061C769.151 327.401 769.403 331.227 769.543 352.537C769.684 373.846 769.482 377.676 768.146 379.032C767.287 379.904 766.199 380.62 765.727 380.623C765.256 380.626 764.159 379.925 763.288 379.065C761.935 377.725 761.682 373.899 761.542 352.589C761.402 331.28 761.603 327.45 762.939 326.093Z" fill="#76524A"/>
<ellipse cx="661.239" cy="233.385" rx="16.5" ry="24.5" transform="rotate(-90.3774 661.239 233.385)" fill="#B37A60"/>
<ellipse cx="661.239" cy="233.385" rx="16.5" ry="24.5" transform="rotate(-90.3774 661.239 233.385)" fill="#B37A60"/>
<ellipse cx="708.343" cy="249.075" rx="16.5" ry="24.5" transform="rotate(-90.3774 708.343 249.075)" fill="#B37A60"/>
<ellipse cx="708.343" cy="249.075" rx="16.5" ry="24.5" transform="rotate(-90.3774 708.343 249.075)" fill="#B37A60"/>
<ellipse cx="756.448" cy="264.758" rx="16.5" ry="24.5" transform="rotate(-90.3774 756.448 264.758)" fill="#B37A60"/>
<ellipse cx="757.026" cy="200.753" rx="16.5" ry="24.5" transform="rotate(-90.3774 757.026 200.753)" fill="#B37A60"/>
<ellipse cx="708.126" cy="216.075" rx="16.5" ry="24.5" transform="rotate(-90.3774 708.126 216.075)" fill="#B37A60"/>
<path d="M1417.86 590.011L1424.18 603.317L1386.04 616.464L1331.91 587.516L1333.59 585.049L1339.57 579.796L1346.99 574.626L1354.9 570.082L1363.28 566.163L1371.25 562.86L1379 560.315L1385.37 558.032L1390.69 556.842L1395.69 562.341L1403.09 570.07L1411.03 579.666L1417.86 590.011Z" fill="#5CE170" stroke="#5CE170"/>
<path d="M1443.39 564.393L1450.43 564.669L1454.64 573.539L1457.89 582.056L1460.46 589.806L1462.68 597.623L1463.88 603.843L1464.43 613.229L1424.18 603.317L1402.61 569.444L1406.35 568.377L1414.03 566.383L1423.77 564.891L1431.72 564.279L1443.39 564.393Z" fill="#5CE170" stroke="#5CE170"/>
<path d="M1413.3 637.079L1404.82 634.927L1326.18 746.733L1333.85 754.051L1344.16 761.05L1357.5 768.009L1371.69 772.839L1392.18 775.039L1411.87 773.99L1423.84 770.106L1435.29 762.561L1442.99 756.98L1451.21 747.541L1461.88 734.056L1470.2 719.583L1478.68 702.214L1482.9 692.46L1473.04 681.258L1455.09 662.458L1439.09 650.093L1423.14 640.763L1413.3 637.079Z" fill="#30D65C" stroke="#30D65C"/>
<path d="M1456.57 692.645L1445.08 703.037L1432.92 711.09L1424.27 715.759L1416.3 718.536M1416.3 718.536L1407.23 721.348L1398.65 723.397L1384.36 725.532M1416.3 718.536L1413.01 715.274L1414.09 707.29L1415.22 701.736L1417.85 695.106L1419.51 691.686L1421.16 688.267L1422.8 685.082L1424.43 681.898M1416.3 718.536L1421.03 721.66L1426.37 723.83L1433.21 724.923L1439.07 725.86L1444.66 725.964L1451.38 724.203M1384.36 725.532L1377.1 725.948M1384.36 725.532L1391.97 732.238L1398.07 734.841L1404.35 736.14L1410.05 736.707" stroke="#4DFC7B" stroke-width="13" stroke-linecap="round"/>
<ellipse cx="1344.81" cy="682.489" rx="68.7617" ry="66.5988" transform="rotate(34.1825 1344.81 682.489)" fill="#5CE170"/>
<path d="M1391.38 613.481L1386.03 617.361L1403.64 636.226L1444.56 657.113L1474.33 684.237L1476.42 681.153L1478.33 675.24L1479.89 669.392L1481.91 658.444L1483.39 644.731L1483.96 632.803L1483.63 621.763L1475.58 618.098L1463.12 612.94L1446.45 607.328L1432.74 604.021L1423 603.719L1414.3 604.117L1408.56 605.027L1398.38 608.928L1391.38 613.481Z" fill="#30D65C" stroke="#30D65C"/>
<path d="M1413.72 673.712L1412.94 685.5L1285.41 713.639L1273.43 690.483L1270.16 674.447L1270.7 657.691L1277.05 639.473L1286.35 623.561L1295.29 610.404L1302.6 601.853L1310.96 592.209L1317.49 586.133L1321.1 583.478L1331.36 587.441L1338.87 590.136L1349.54 594.379L1359.51 599.65L1371.68 606.115L1383.43 614.093L1392.9 622.325L1400.16 630.26L1405.35 637.692L1409.7 647.253L1411.91 655.966L1413.15 666.118L1413.72 673.712Z" fill="#5CE170" stroke="#5CE170"/>
<path d="M1346.5 632.534C1347.62 629.127 1345.76 625.454 1342.34 624.331C1338.93 623.207 1335.25 625.059 1334.14 628.467L1346.5 632.534ZM1338.08 696.744L1331.81 698.461L1331.9 698.784L1332.02 699.097L1338.08 696.744ZM1333.1 660.619L1326.67 659.655L1326.62 659.991L1326.6 660.33L1333.1 660.619ZM1335.28 645.878L1329.1 643.845L1328.93 644.369L1328.85 644.914L1335.28 645.878ZM1332.68 670.548L1326.18 670.259L1326.16 670.879L1326.25 671.493L1332.68 670.548ZM1335.73 688.236L1329.34 689.448L1329.39 689.703L1329.46 689.953L1335.73 688.236ZM1343.36 710.246L1337.31 712.6L1337.44 712.928L1337.6 713.241L1343.36 710.246ZM1346.77 716.764L1341 719.758L1341.19 720.124L1341.43 720.463L1346.77 716.764ZM1358.58 734.4L1364.94 733.035L1364.68 731.853L1364.02 730.842L1358.58 734.4ZM1355.52 718.505L1359.67 723.518L1360.39 722.927L1360.91 722.16L1355.52 718.505ZM1360.13 711.721L1365.52 715.376L1365.91 714.796L1366.17 714.144L1360.13 711.721ZM1363.16 704.162L1369.2 706.586L1369.38 706.128L1369.49 705.647L1363.16 704.162ZM1371.06 698.902C1371.87 695.409 1369.7 691.913 1366.2 691.093C1362.7 690.274 1359.2 692.441 1358.39 695.934L1371.06 698.902ZM1343.56 721.492L1342.07 727.813L1342.38 727.887L1342.7 727.93L1343.56 721.492ZM1334.73 719.405L1332.5 725.501L1332.87 725.636L1333.25 725.727L1334.73 719.405ZM1330.22 710.829C1326.85 709.589 1323.11 711.313 1321.88 714.68C1320.64 718.047 1322.38 721.781 1325.75 723.021L1330.22 710.829ZM1339.17 680.061L1337.78 686.405L1340.41 686.985L1342.68 685.537L1339.17 680.061ZM1347.15 674.966L1350.66 680.441L1350.82 680.337L1350.98 680.224L1347.15 674.966ZM1352.49 671.086L1356.32 676.345L1356.75 676.038L1357.11 675.669L1352.49 671.086ZM1358.2 665.347L1362.82 669.93L1362.97 669.773L1363.12 669.605L1358.2 665.347ZM1363.77 658.918L1368.69 663.176L1368.74 663.118L1368.79 663.059L1363.77 658.918ZM1373.87 656.9C1376.16 654.136 1375.76 650.041 1372.99 647.754C1370.22 645.467 1366.12 645.854 1363.83 648.619L1373.87 656.9ZM1360.98 662.133L1365.9 666.391L1365.9 666.391L1360.98 662.133ZM1328.08 676.435L1324.43 681.804L1324.96 682.166L1325.56 682.417L1328.08 676.435ZM1322.93 672.936L1318.08 677.258L1318.62 677.855L1319.28 678.305L1322.93 672.936ZM1318.13 667.577L1322.98 663.255L1322.98 663.255L1318.13 667.577ZM1314.02 662.985L1308.55 666.48L1308.83 666.919L1309.18 667.307L1314.02 662.985ZM1310.95 658.195L1304.64 659.746L1304.9 660.787L1305.48 661.69L1310.95 658.195ZM1315.59 649.894C1314.72 646.41 1311.19 644.28 1307.71 645.137C1304.22 645.994 1302.1 649.513 1302.96 652.997L1315.59 649.894ZM1339.53 661.583L1341.71 646.842L1328.85 644.914L1326.67 659.655L1339.53 661.583ZM1341.46 647.912L1346.5 632.534L1334.14 628.467L1329.1 643.845L1341.46 647.912ZM1340.36 677.961L1339.11 669.602L1326.25 671.493L1327.5 679.852L1340.36 677.961ZM1339.18 670.836L1339.6 660.907L1326.6 660.33L1326.18 670.259L1339.18 670.836ZM1344.35 695.027L1341.99 686.519L1329.46 689.953L1331.81 698.461L1344.35 695.027ZM1342.11 687.024L1340.32 677.694L1327.54 680.118L1329.34 689.448L1342.11 687.024ZM1349.42 707.893L1344.13 694.39L1332.02 699.097L1337.31 712.6L1349.42 707.893ZM1356.07 718.759L1352.11 713.064L1341.43 720.463L1345.39 726.158L1356.07 718.759ZM1352.53 713.769L1349.13 707.252L1337.6 713.241L1341 719.758L1352.53 713.769ZM1367.87 746.542L1364.94 733.035L1352.23 735.765L1355.16 749.272L1367.87 746.542ZM1364.02 730.842L1356.16 718.901L1345.3 726.016L1353.15 737.958L1364.02 730.842ZM1354.88 727.472L1359.67 723.518L1351.38 713.492L1346.58 717.446L1354.88 727.472ZM1360.91 722.16L1365.52 715.376L1354.75 708.065L1350.14 714.849L1360.91 722.16ZM1366.17 714.144L1369.2 706.586L1357.12 701.739L1354.09 709.297L1366.17 714.144ZM1369.49 705.647L1371.06 698.902L1358.39 695.934L1356.82 702.678L1369.49 705.647ZM1351.59 716.021L1344.41 715.054L1342.7 727.93L1349.88 728.897L1351.59 716.021ZM1345.04 715.17L1336.22 713.084L1333.25 725.727L1342.07 727.813L1345.04 715.17ZM1336.97 713.309L1330.22 710.829L1325.75 723.021L1332.5 725.501L1336.97 713.309ZM1332.54 685.25L1337.78 686.405L1340.56 673.718L1335.32 672.563L1332.54 685.25ZM1342.68 685.537L1350.66 680.441L1343.63 669.49L1335.66 674.586L1342.68 685.537ZM1350.98 680.224L1356.32 676.345L1348.66 665.828L1343.32 669.707L1350.98 680.224ZM1357.11 675.669L1362.82 669.93L1353.58 660.765L1347.87 666.503L1357.11 675.669ZM1368.79 663.059L1371.33 659.979L1361.29 651.698L1358.75 654.777L1368.79 663.059ZM1371.33 659.979L1373.87 656.9L1363.83 648.619L1361.29 651.698L1371.33 659.979ZM1363.12 669.605L1365.9 666.391L1356.06 657.875L1353.28 661.09L1363.12 669.605ZM1365.9 666.391L1368.69 663.176L1358.85 654.66L1356.06 657.875L1365.9 666.391ZM1336.45 672.924L1330.6 670.452L1325.56 682.417L1331.41 684.889L1336.45 672.924ZM1331.73 671.065L1326.58 667.566L1319.28 678.305L1324.43 681.804L1331.73 671.065ZM1327.77 668.613L1322.98 663.255L1313.29 671.9L1318.08 677.258L1327.77 668.613ZM1322.98 663.255L1318.87 658.662L1309.18 667.307L1313.29 671.9L1322.98 663.255ZM1319.5 659.489L1316.43 654.7L1305.48 661.69L1308.55 666.48L1319.5 659.489ZM1317.27 656.643L1315.59 649.894L1302.96 652.997L1304.64 659.746L1317.27 656.643Z" fill="#97F4A5"/>
<path d="M982.22 347.368L984.297 356.251L998.49 355.999L999.078 350.405L1000.84 345.466L1003.26 340.952L1005.5 338.186L1009.9 333.352L1014.65 328.557L1009.97 312.5L1010.5 310.79L1006.75 289.177L1010.22 284.774L997.481 274.576L983.445 275.022L970.472 283.89L974.861 289.308L963.595 303.838L968.141 309.45L967.909 328.516L980.403 342.754L982.22 347.368Z" fill="#37B94C" stroke="#37B94C"/>
<path d="M991.201 523.155L992.215 523.616L1000.65 517.446L1001.77 515.267L1003.33 510.485L1005.43 503.991L1007.68 496.1L1009.38 488.327L1010.59 481.915L1012.01 473.405L1013.59 465.089L1015.02 456.579L1016.91 441.932L1018.35 429.889L1019.39 421.691L1020.31 412.951L1020.88 404.173L1021.23 399.084L1021.67 394.889L1021.92 390.85L1022.47 385.605L1021.78 380.405L1021.01 375.904L1019.05 372.689L1010.27 361.852L1007.3 359.768L1005.62 358.882L1001.92 357.072L998.804 356.386L995.845 355.893L993.237 355.438L989.854 355.607L986.435 356.126L984.454 356.445L982.086 357.076L979.717 357.707L977.119 358.844L975.958 359.78L973.056 362.122L971.121 363.683L969.343 365.438L967.528 367.542L965.833 370.19L964.792 371.67L963.752 373.15L962.831 375.173L962.297 376.883L962.077 378.981L962.006 386.398L962.978 399.053L967.038 432.896L969.301 446.749L970.808 457.693L972.775 467.625L976.579 485.355L977.705 491.486L978.859 495.675L979.976 500.213L980.613 502.579L981.093 504.752L982.043 507.505L983.187 510.102L984.138 512.855L986.342 517.156L991.201 523.155Z" fill="#FF7B00" stroke="#FF7B00"/>
<ellipse rx="12.1819" ry="8.71603" transform="matrix(0.778242 -0.627965 0.629451 0.77704 1010.64 321.234)" fill="#37B94C"/>
<ellipse rx="13.1764" ry="10.4592" transform="matrix(0.778242 -0.627965 0.629451 0.77704 1008.34 301.013)" fill="#37B94C"/>
<ellipse rx="8.94998" ry="9.46312" transform="matrix(0.778242 -0.627965 0.629451 0.77704 1004.67 280.293)" fill="#37B94C"/>
<ellipse rx="7.70693" ry="7.71991" transform="matrix(0.778242 -0.627965 0.629451 0.77704 990.587 272.779)" fill="#37B94C"/>
<ellipse rx="8.45276" ry="8.21797" transform="matrix(0.778242 -0.627965 0.629451 0.77704 976.036 278.12)" fill="#37B94C"/>
<ellipse rx="9.4472" ry="10.4592" transform="matrix(0.778242 -0.627965 0.629451 0.77704 969.547 297.756)" fill="#37B94C"/>
<ellipse rx="8.94998" ry="10.4592" transform="matrix(0.778242 -0.627965 0.629451 0.77704 969.998 320.431)" fill="#37B94C"/>
<path d="M970.115 381.848L972.628 381.004L973.909 380.61L975.54 380.254L978.065 379.817L980.747 379.573L983.236 379.485L985.53 379.553L987.982 379.815L990.59 380.27" stroke="#B74600" stroke-opacity="0.4" stroke-width="13" stroke-linecap="round"/>
<path d="M1003.37 365.181L994.831 355.431L1000.05 356.342L1005 358.108L1010.31 361.503L1018.65 371.409L1021.21 375.747L1021.53 377.726L1022.7 385.099L1020.42 411.902L1019.02 425.187L1017.47 438.28L1015.65 452.227L1013.52 465.788L1008.55 492.834L1002.39 514.449L1000.62 517.796L994.657 522.286L992.952 523.342L1007.13 388.386L1007.45 383.648L1007.62 380.308L1007.49 378.173L1007.24 375.494L1006.99 372.816L1005.77 369.326L1003.37 365.181Z" fill="#DE6C03"/>
<path d="M987.547 496.045L988.759 495.776L989.376 495.649L990.159 495.524L991.368 495.358L992.648 495.239L993.832 495.163L994.92 495.131L996.079 495.144L997.308 495.204" stroke="#B74600" stroke-opacity="0.4" stroke-width="13" stroke-linecap="round"/>
<path d="M979.513 454.529L980.725 454.261L981.342 454.134L982.125 454.008L983.334 453.843L984.613 453.723L985.797 453.647L986.886 453.615L988.045 453.629L989.274 453.688" stroke="#B74600" stroke-opacity="0.4" stroke-width="13" stroke-linecap="round"/>
<path d="M973.673 428.896L975.287 428.138L976.11 427.789L977.164 427.488L978.8 427.136L980.544 426.982L982.168 426.978L983.67 427.122L985.281 427.465L987.002 428.006" stroke="#B74600" stroke-opacity="0.4" stroke-width="13" stroke-linecap="round"/>
<path d="M984.703 401.436L987.592 400.556L989.064 400.144L990.936 399.764L993.833 399.291L996.907 399.009L999.757 398.886L1002.38 398.923L1005.19 399.151L1008.17 399.57" stroke="#B74600" stroke-opacity="0.4" stroke-width="13" stroke-linecap="round"/>
<path d="M1078.02 506.495L1063.4 507.644L1049.75 516.946L1057.08 517.463L1062.33 518.732L1066.33 520.425L1068.03 521.957L1070.52 524.956L1072.61 528.183L1099.96 525.493L1101.85 525.883L1136.13 523.939L1138.93 526.318L1165.93 518.215L1179.16 509.012L1179.42 500.305L1167.42 503.051L1157.99 495.329L1145.56 498.173L1118.82 497.569L1086.34 505.414L1078.02 506.495Z" fill="#37B94C" stroke="#37B94C"/>
<path d="M820.467 508.21L818.813 508.863L819.21 514.536L821.192 515.318L826.413 516.456L833.528 517.985L842.475 519.642L851.792 520.941L859.673 521.882L870.305 523.018L880.508 524.251L891.14 525.386L909.992 526.973L925.606 528.203L936.178 529.077L947.637 529.886L959.495 530.466L966.34 530.82L971.84 531.208L977.311 531.466L984.186 531.951L992.228 531.621L999.352 531.225L1005.84 530.015L1029.84 524.523L1035.72 522.628L1038.63 521.55L1044.84 519.166L1048.89 517.142L1052.51 515.216L1055.73 513.518L1058.83 511.299L1061.47 509.048L1062.97 507.743L1064.42 506.176L1065.86 504.61L1066.82 502.882L1066.64 502.099L1066.19 500.143L1065.9 498.839L1065.17 497.633L1063.98 496.394L1061.91 495.221L1060.85 494.505L1059.78 493.788L1057.83 493.137L1055.93 492.747L1053.18 492.553L1042.76 492.33L1023.9 492.667L972.012 494.524L950.18 495.678L933.21 496.405L917.216 497.458L888.378 499.529L878.593 500.121L871.528 500.778L864.005 501.402L860.029 501.763L856.481 502.026L851.648 502.583L846.845 503.27L842.012 503.827L833.751 505.169L820.467 508.21Z" fill="#FF7B00" stroke="#FF7B00"/>
<ellipse cx="1086.93" cy="525.729" rx="6.55568" ry="15.3855" transform="rotate(77.1084 1086.93 525.729)" fill="#37B94C"/>
<ellipse cx="1117.81" cy="524.7" rx="7.09084" ry="18.4627" transform="rotate(77.1084 1117.81 524.7)" fill="#37B94C"/>
<ellipse cx="1150.75" cy="522.789" rx="4.81642" ry="16.7043" transform="rotate(77.1084 1150.75 522.789)" fill="#37B94C"/>
<ellipse cx="1175.28" cy="513.742" rx="4.14747" ry="13.6272" transform="rotate(77.1084 1175.28 513.742)" fill="#37B94C"/>
<ellipse cx="1182.09" cy="504.086" rx="4.54884" ry="14.5064" transform="rotate(77.1084 1182.09 504.086)" fill="#37B94C"/>
<ellipse cx="1160.72" cy="499.371" rx="5.084" ry="18.4627" transform="rotate(77.1084 1160.72 499.371)" fill="#37B94C"/>
<ellipse cx="1128.19" cy="499.129" rx="4.81642" ry="18.4627" transform="rotate(77.1084 1128.19 499.129)" fill="#37B94C"/>
<path d="M1041.19 497.75L1039.9 499.415L1039.2 500.264L1038.09 501.34L1036.22 503.005L1033.91 504.767L1031.58 506.399L1029.22 507.9L1026.43 509.499L1023.21 511.197" stroke="#B74600" stroke-opacity="0.4" stroke-width="13" stroke-linecap="round"/>
<path d="M1031.94 519.924L1054.16 514.563L1047.72 517.958L1040.34 521.158L1030.29 524.555L1008.04 529.785L999.382 531.356L996.263 531.52L984.674 532.114L949.012 529.983L931.595 528.754L914.606 527.427L896.67 525.904L879.591 524.186L846.232 520.292L821.74 515.741L818.751 514.504L818.285 510.493L818.474 509.352L995.4 521.836L1001.79 522.158L1006.34 522.351L1009.49 522.317L1013.52 522.217L1017.56 522.117L1023.71 521.396L1031.94 519.924Z" fill="#DE6C03"/>
<path d="M862.428 506.459L861.61 507.259L861.181 507.667L860.586 508.182L859.626 508.978L858.532 509.819L857.471 510.596L856.441 511.31L855.278 512.068L853.981 512.872" stroke="#B74600" stroke-opacity="0.4" stroke-width="13" stroke-linecap="round"/>
<path d="M929.092 502.181L928.274 502.981L927.845 503.389L927.25 503.904L926.29 504.7L925.196 505.541L924.134 506.318L923.105 507.032L921.942 507.79L920.645 508.594" stroke="#B74600" stroke-opacity="0.4" stroke-width="13" stroke-linecap="round"/>
<path d="M971.121 498.964L970.599 500.039L970.28 500.587L969.665 501.284L968.548 502.364L967.044 503.51L965.448 504.573L963.76 505.554L961.684 506.601L959.221 507.715" stroke="#B74600" stroke-opacity="0.4" stroke-width="13" stroke-linecap="round"/>
<path d="M999.079 506.839L997.472 508.752L996.601 509.726L995.29 510.961L993.099 512.87L990.463 514.89L987.823 516.759L985.179 518.478L982.09 520.308L978.555 522.25" stroke="#B74600" stroke-opacity="0.4" stroke-width="13" stroke-linecap="round"/>
<path d="M890.908 350.464L891.574 359.558L905.636 361.457L907.089 356.017L909.597 351.403L912.694 347.308L915.337 344.913L920.442 340.804L925.887 336.784L923.76 320.206L924.554 318.596L924.221 296.669L928.339 292.845L917.342 280.837L903.405 279.153L889.204 285.953L892.695 291.972L879.298 304.626L882.914 310.86L879.71 329.668L889.832 345.63L890.908 350.464Z" fill="#37B94C" stroke="#37B94C"/>
<path d="M872.356 525.547L873.286 526.156L882.587 521.336L884.028 519.352L886.32 514.862L889.407 508.763L892.857 501.304L895.751 493.879L897.941 487.725L900.677 479.531L903.537 471.552L906.273 463.358L910.428 449.169L913.732 437.486L916.037 429.542L918.307 421.043L920.238 412.454L921.385 407.479L922.475 403.4L923.349 399.445L924.712 394.346L924.838 389.102L924.783 384.537L923.344 381.063L916.362 369.025L913.754 366.516L912.235 365.386L908.856 363.036L905.885 361.887L903.039 360.952L900.533 360.107L897.165 359.763L893.706 359.758L891.699 359.773L889.26 360.038L886.822 360.303L884.078 361.033L882.784 361.783L879.552 363.658L877.397 364.908L875.366 366.373L873.245 368.178L871.158 370.538L869.898 371.843L868.639 373.148L867.414 375.007L866.619 376.617L866.074 378.657L864.847 385.976L863.834 398.629L862.565 432.69L862.64 446.723L862.421 457.766L862.814 467.88L863.807 485.978L863.964 492.207L864.45 496.521L864.845 501.175L865.105 503.61L865.241 505.83L865.75 508.694L866.475 511.434L866.985 514.298L868.491 518.883L872.356 525.547Z" fill="#FF7B00" stroke="#FF7B00"/>
<ellipse cx="923.065" cy="328.94" rx="12.2077" ry="8.69761" transform="rotate(-30.1139 923.065 328.94)" fill="#37B94C"/>
<ellipse cx="923.945" cy="308.608" rx="13.2042" ry="10.4371" transform="rotate(-30.1139 923.945 308.608)" fill="#37B94C"/>
<ellipse cx="923.555" cy="287.576" rx="8.96892" ry="9.44311" transform="rotate(-30.1139 923.555 287.576)" fill="#37B94C"/>
<ellipse cx="910.811" cy="278.018" rx="7.72324" ry="7.70359" transform="rotate(-30.1139 910.811 278.018)" fill="#37B94C"/>
<ellipse cx="895.602" cy="281.093" rx="8.47065" ry="8.2006" transform="rotate(-30.1139 895.602 281.093)" fill="#37B94C"/>
<ellipse cx="886.127" cy="299.517" rx="9.46719" ry="10.4371" transform="rotate(-30.1139 886.127 299.517)" fill="#37B94C"/>
<ellipse cx="883.035" cy="321.994" rx="8.96892" ry="10.4371" transform="rotate(-30.1139 883.035 321.994)" fill="#37B94C"/>
<path d="M873.569 382.707L876.184 382.253L877.511 382.058L879.178 381.953L881.741 381.903L884.429 382.068L886.901 382.358L889.157 382.773L891.539 383.402L894.045 384.247" stroke="#B74600" stroke-opacity="0.4" stroke-width="13" stroke-linecap="round"/>
<path d="M909.024 371.27L902.109 360.342L907.121 362.032L911.736 364.526L916.453 368.685L923.151 379.738L924.998 384.412L925.009 386.417L925.018 393.881L918.58 420.023L915.128 432.941L911.552 445.645L907.578 459.153L903.356 472.232L894.23 498.209L884.765 518.637L882.496 521.676L875.906 525.211L874.057 525.996L909.118 394.772L910.174 390.138L910.867 386.863L911.072 384.733L911.243 382.049L911.414 379.364L910.746 375.729L909.024 371.27Z" fill="#DE6C03"/>
<path d="M872.976 498.202L874.215 498.12L874.845 498.088L875.638 498.082L876.858 498.102L878.141 498.177L879.322 498.282L880.403 498.415L881.546 498.604L882.751 498.848" stroke="#B74600" stroke-opacity="0.4" stroke-width="13" stroke-linecap="round"/>
<path d="M871.515 455.958L872.754 455.876L873.384 455.844L874.177 455.838L875.397 455.858L876.68 455.933L877.861 456.038L878.942 456.171L880.085 456.359L881.29 456.604" stroke="#B74600" stroke-opacity="0.4" stroke-width="13" stroke-linecap="round"/>
<path d="M869.744 429.741L871.457 429.237L872.325 429.016L873.413 428.878L875.084 428.778L876.831 428.89L878.436 429.132L879.898 429.502L881.436 430.084L883.052 430.879" stroke="#B74600" stroke-opacity="0.4" stroke-width="13" stroke-linecap="round"/>
<path d="M884.926 404.273L887.918 403.841L889.436 403.657L891.345 403.565L894.281 403.536L897.362 403.723L900.197 404.033L902.786 404.466L905.519 405.116L908.398 405.981" stroke="#B74600" stroke-opacity="0.4" stroke-width="13" stroke-linecap="round"/>
<path d="M777.381 216C777.403 203.85 787.272 194.018 799.422 194.041L1173.67 194.739C1185.82 194.762 1195.65 204.63 1195.63 216.78L1195.27 410.98C1195.26 416.503 1190.77 420.972 1185.25 420.962L787 420.219C781.477 420.209 777.008 415.723 777.019 410.2L777.381 216Z" fill="#493338"/>
<path d="M777.381 216C777.403 203.85 787.272 194.018 799.422 194.041L1100.22 194.602C1112.37 194.625 1122.2 204.493 1122.18 216.643L1121.8 420.843L787 420.219C781.477 420.209 777.008 415.723 777.019 410.2L777.381 216Z" fill="#655155"/>
<rect x="777.289" y="264.953" width="344.797" height="24.2574" rx="12.1287" transform="rotate(0.106839 777.289 264.953)" fill="#BFB5B7" fill-opacity="0.4"/>
<rect x="777.161" y="334.086" width="344.797" height="24.2574" rx="12.1287" transform="rotate(0.106839 777.161 334.086)" fill="#BFB5B7" fill-opacity="0.4"/>
<ellipse cx="820.432" cy="241.989" rx="13.3548" ry="13.3416" transform="rotate(0.106839 820.432 241.989)" fill="#BFB5B7" fill-opacity="0.6"/>
<ellipse cx="1045.64" cy="242.409" rx="13.3548" ry="13.3416" transform="rotate(0.106839 1045.64 242.409)" fill="#BFB5B7" fill-opacity="0.6"/>
<ellipse cx="1045.51" cy="310.936" rx="13.3548" ry="13.3416" transform="rotate(0.106839 1045.51 310.936)" fill="#BFB5B7" fill-opacity="0.6"/>
<ellipse cx="1045.38" cy="382.495" rx="13.3548" ry="13.3416" transform="rotate(0.106839 1045.38 382.495)" fill="#BFB5B7" fill-opacity="0.6"/>
<ellipse cx="820.171" cy="382.075" rx="13.3548" ry="13.3416" transform="rotate(0.106839 820.171 382.075)" fill="#BFB5B7" fill-opacity="0.6"/>
<ellipse cx="820.304" cy="310.516" rx="13.3548" ry="13.3416" transform="rotate(0.106839 820.304 310.516)" fill="#BFB5B7" fill-opacity="0.6"/>
<path d="M919.812 243.062V249.683H889.08L888.67 244.556L906.453 216.343H913.162L905.896 228.501L897.049 243.062H919.812ZM914.978 216.343V258.999H906.541V216.343H914.978ZM953.094 233.921V241.304C953.094 244.507 952.752 247.271 952.068 249.595C951.385 251.899 950.398 253.794 949.109 255.278C947.84 256.743 946.326 257.827 944.568 258.53C942.81 259.233 940.857 259.585 938.709 259.585C936.99 259.585 935.388 259.37 933.904 258.94C932.42 258.491 931.082 257.798 929.89 256.86C928.719 255.923 927.703 254.741 926.844 253.315C926.004 251.87 925.359 250.151 924.91 248.159C924.461 246.167 924.236 243.882 924.236 241.304V233.921C924.236 230.718 924.578 227.974 925.261 225.688C925.965 223.384 926.951 221.499 928.22 220.034C929.51 218.569 931.033 217.495 932.791 216.812C934.549 216.108 936.502 215.757 938.65 215.757C940.369 215.757 941.961 215.981 943.426 216.431C944.91 216.86 946.248 217.534 947.439 218.452C948.631 219.37 949.646 220.552 950.486 221.997C951.326 223.423 951.97 225.132 952.42 227.124C952.869 229.097 953.094 231.362 953.094 233.921ZM944.627 242.417V232.778C944.627 231.235 944.539 229.888 944.363 228.735C944.207 227.583 943.963 226.606 943.631 225.806C943.299 224.985 942.888 224.321 942.4 223.813C941.912 223.306 941.355 222.935 940.73 222.7C940.105 222.466 939.412 222.349 938.65 222.349C937.693 222.349 936.844 222.534 936.101 222.905C935.379 223.276 934.763 223.872 934.256 224.692C933.748 225.493 933.357 226.567 933.084 227.915C932.83 229.243 932.703 230.864 932.703 232.778V242.417C932.703 243.96 932.781 245.317 932.937 246.489C933.113 247.661 933.367 248.667 933.699 249.507C934.051 250.327 934.461 251.001 934.929 251.528C935.418 252.036 935.974 252.407 936.599 252.642C937.244 252.876 937.947 252.993 938.709 252.993C939.646 252.993 940.476 252.808 941.199 252.437C941.941 252.046 942.566 251.44 943.074 250.62C943.601 249.78 943.992 248.687 944.246 247.339C944.5 245.991 944.627 244.351 944.627 242.417ZM988.719 243.062V249.683H957.986L957.576 244.556L975.359 216.343H982.068L974.802 228.501L965.955 243.062H988.719ZM983.885 216.343V258.999H975.447V216.343H983.885Z" fill="#493338"/>
<path d="M491.312 805.885L499.21 802.263L499.274 805.719L499.29 810.017L499.432 813.643L499.837 818.789L500.075 820.73L498.998 821.224L496.504 820.522L490.109 820.789L485.054 822.083L476.923 825.196L477.151 824.272L477.48 823.095L477.888 822.088L478.498 820.578L478.905 819.571L479.516 818.061L480.103 816.972L480.69 815.882L481.354 814.962L481.917 814.294L482.479 813.626L483.042 812.958L483.604 812.29L484.167 811.622L485.089 810.789L485.651 810.121L486.573 809.288L487.853 808.291L489.313 807.211L490.133 806.63L490.773 806.132L491.312 805.885Z" fill="#DC143C"/>
<path d="M526.501 798.769L528.714 799.804L529.742 800.153L530.592 800.583L526.71 802.363L524.901 803.808L520.701 806.965L515.991 811.38L515.41 813.902L513.114 811.264L512.958 810.925L512.056 809.904L510.507 807.949L508.983 805.572L508.337 804.638L507.793 803.452L506.03 799.135L506.928 798.723L508.878 798.239L510.469 797.919L511.702 797.764L512.934 797.609L514.166 797.454L515.399 797.299L517.145 797.318L518.892 797.337L520.28 797.521L522.876 797.97L524.778 798.328L526.501 798.769Z" fill="#DC143C"/>
<path d="M499.413 815.497L499.716 820.894L515.432 813.687L514.94 813.092L513.957 811.903L513.13 811.052L512.147 809.862L510.931 808.164L509.56 806.128L508.421 804.599L505.986 798.335L505.726 796.814L505.465 795.293L505.361 794.111L505.256 792.929L505.407 790.399L506.721 787.541L507.828 785.187L509.013 783.004L511.333 779.479L513.188 776.373L511.945 773.662L510.885 772.303L509.876 771.535L508.688 770.85L507.473 770.587L504.763 771.83L503.32 773.927L500.699 783.946L499.7 790.35L498.947 800.743L499.108 802.515L499.124 806.813L499.116 811.533L499.413 815.497Z" fill="#37B94C"/>
<path d="M489.938 829.89L497.383 821.965L521.435 810.934L535.379 810.075L546.253 812.469L557.76 819.085L562.866 824.535L565.891 829.709L575.675 849.622L581.242 868.393L586.402 888.171L586.887 901.071L586.046 909.659L582.861 916.451L578.642 921.461L574.591 923.524L570.463 925.418L552.334 933.732L550.102 934.55L547.715 935.03L545.867 935.262L544.198 935.413L542.092 935.558L539.651 935.447L535.231 934.809L532.145 933.764L529.83 932.98L527.001 932.022L524.914 930.313L518.701 924.346L512.949 917.962L507.736 911.331L503.396 904.71L498.56 896.06L493.413 886.733L483.683 867.411L481.449 860.644L481.087 853.223L483.634 840.777L489.938 829.89Z" fill="#FE1745"/>
<path d="M515.991 811.38L515.41 813.902L522.643 811.2L535.971 810.419L546.253 812.469L557.503 818.998L563.099 825.043L575.447 850.546L582.132 872.701L586.378 888.592L586.287 905.447L592.749 902.484L593.695 901.23L596.251 897.803L598.131 892.429L599.09 887.888L599.607 881.91L599.358 877.103L598.744 871.029L597.64 864.358L596.853 859.798L595.886 855.321L594.739 850.926L593.568 846.952L591.8 841.201L590.964 837.484L589.255 833.757L588.084 829.783L587.224 826.487L586.316 824.033L582.198 815.054L580.931 812.764L579.46 810.978L578.581 809.536L576.853 807.663L574.946 805.872L573.218 803.999L571.543 802.717L569.612 801.347L566.651 799.629L561.532 797.466L556.723 795.981L553.535 795.187L548.576 794.796L543.03 795.494L539.566 796.467L537.053 797.62L531.31 800.254L526.822 802.312L523.262 804.97L520.701 806.965L517.936 809.463L515.991 811.38Z" fill="#F41643"/>
<path d="M496.504 820.522L498.998 821.224L497.562 821.882L489.836 830.142L483.712 840.947L481.164 853.392L481.604 860.983L484.018 867.667L494.603 888.853L503.473 904.879L507.838 911.079L518.959 924.433L529.107 931.876L515.208 938.045L511.715 938.007L508.861 937.47L505.673 936.677L503.203 935.554L499.908 933.58L493.366 928.789L485.706 920.614L479.745 913.301L476.595 908.799L473.779 904.554L471.454 900.905L469.774 898.19L467.861 894.966L466.026 891.912L463.623 888.093L461.244 883.853L460.108 882.323L459.564 881.137L456.845 875.208L455.446 872.159L454.95 870.131L454.192 866.582L453.978 864.22L453.656 860.677L453.592 857.221L453.988 853.348L454.822 849.48L456.343 844.272L459.199 838.656L461.396 835.393L463.903 832.808L466.207 830.726L466.949 829.976L468.846 828.901L471.718 827.584L477.103 825.114L480.411 823.802L485.054 822.083L486.388 821.676L490.109 820.789L491.958 820.557L494.321 820.498L496.504 820.522Z" fill="#F41643"/>
<path d="M1242.16 878.732L1244.11 887.197L1240.72 886.564L1236.5 885.713L1232.92 885.121L1227.8 884.48L1225.85 884.322L1225.59 883.168L1226.78 880.866L1227.8 874.549L1227.56 869.337L1226.14 860.745L1227 861.155L1228.09 861.715L1228.99 862.316L1230.35 863.219L1231.25 863.821L1232.61 864.724L1233.56 865.518L1234.51 866.312L1235.27 867.148L1235.82 867.834L1236.36 868.52L1236.9 869.205L1237.44 869.891L1237.98 870.577L1238.61 871.647L1239.15 872.333L1239.78 873.404L1240.5 874.859L1241.26 876.507L1241.67 877.427L1242.03 878.154L1242.16 878.732Z" fill="#DC143C"/>
<path d="M1242.04 914.633L1240.58 916.591L1240.03 917.529L1239.43 918.274L1238.47 914.113L1237.42 912.05L1235.18 907.299L1231.8 901.796L1229.45 900.719L1232.49 899.001L1232.86 898.918L1234.04 898.239L1236.27 897.117L1238.9 896.103L1239.95 895.659L1241.22 895.365L1245.8 894.509L1246.03 895.471L1246.11 897.478L1246.1 899.102L1246 900.34L1245.91 901.578L1245.81 902.817L1245.71 904.055L1245.34 905.762L1244.97 907.469L1244.51 908.791L1243.55 911.243L1242.81 913.034L1242.04 914.633Z" fill="#DC143C"/>
<path d="M1231.11 884.729L1225.76 883.938L1229.65 900.784L1230.34 900.422L1231.7 899.699L1232.7 899.06L1234.06 898.337L1235.97 897.488L1238.24 896.556L1239.97 895.749L1246.6 894.626L1248.14 894.678L1249.68 894.73L1250.86 894.865L1252.04 895.001L1254.49 895.66L1257.02 897.522L1259.1 899.081L1261 900.682L1263.99 903.665L1266.66 906.108L1269.56 905.437L1271.11 904.672L1272.06 903.839L1272.97 902.813L1273.47 901.677L1272.8 898.772L1271.04 896.935L1261.75 892.348L1255.68 890.079L1245.66 887.246L1243.89 887.047L1239.68 886.196L1235.05 885.237L1231.11 884.729Z" fill="#37B94C"/>
<path d="M1218.92 872.547L1225.19 881.436L1231.14 907.218L1229.17 921.049L1224.63 931.218L1215.83 941.154L1209.47 945.057L1203.79 946.977L1182.31 952.546L1162.81 954.215L1142.39 955.282L1129.66 953.157L1121.42 950.602L1115.41 946.113L1111.35 940.97L1110.15 936.587L1109.12 932.161L1104.64 912.729L1104.28 910.378L1104.3 907.943L1104.44 906.086L1104.63 904.421L1104.91 902.329L1105.51 899.961L1107.03 895.76L1108.67 892.947L1109.91 890.838L1111.42 888.26L1113.51 886.561L1120.61 881.679L1128.02 877.332L1135.57 873.562L1142.93 870.646L1152.37 867.653L1162.55 864.492L1183.43 858.856L1190.51 858.032L1197.85 859.174L1209.53 864.178L1218.92 872.547Z" fill="#FE1745"/>
<path d="M1231.8 901.796L1229.45 900.719L1230.64 908.348L1228.72 921.56L1224.63 931.218L1215.97 940.92L1208.92 945.183L1181.45 952.136L1158.41 954.218L1141.99 955.174L1125.49 951.687L1127.09 958.613L1128.13 959.792L1130.97 962.987L1135.86 965.912L1140.11 967.766L1145.86 969.478L1150.62 970.203L1156.7 970.826L1163.45 971.09L1168.08 971.237L1172.66 971.193L1177.19 970.956L1181.32 970.61L1187.31 970.037L1191.12 969.968L1195.11 969.045L1199.24 968.699L1202.65 968.521L1205.23 968.127L1214.86 965.903L1217.35 965.124L1219.4 964.043L1220.99 963.473L1223.17 962.158L1225.31 960.651L1227.49 959.336L1229.09 957.954L1230.82 956.339L1233.1 953.785L1236.25 949.207L1238.67 944.796L1240.09 941.833L1241.48 937.055L1241.91 931.483L1241.66 927.894L1241.03 925.2L1239.61 919.043L1238.5 914.233L1236.61 910.21L1235.18 907.299L1233.29 904.088L1231.8 901.796Z" fill="#F41643"/>
<path d="M1226.78 880.866L1225.59 883.168L1225.23 881.629L1218.7 872.396L1209.35 864.22L1197.67 859.216L1190.15 858.116L1183.12 859.133L1160.23 865.23L1142.75 870.688L1135.79 873.712L1120.47 881.913L1111.13 890.352L1107.89 875.495L1108.64 872.081L1109.74 869.395L1111.16 866.432L1112.75 864.239L1115.35 861.41L1121.36 855.968L1130.92 850.113L1139.28 845.749L1144.32 843.571L1149.05 841.668L1153.09 840.126L1156.09 839.028L1159.63 837.805L1163 836.623L1167.22 835.039L1171.85 833.563L1173.58 832.759L1174.85 832.465L1181.21 830.997L1184.48 830.242L1186.56 830.166L1190.19 830.138L1192.55 830.404L1196.08 830.804L1199.48 831.437L1203.19 832.606L1206.81 834.202L1211.61 836.743L1216.53 840.672L1219.29 843.481L1221.31 846.458L1222.89 849.135L1223.47 850.013L1224.14 852.087L1224.86 855.166L1226.19 860.938L1226.81 864.443L1227.56 869.337L1227.68 870.726L1227.8 874.549L1227.66 876.407L1227.24 878.733L1226.78 880.866Z" fill="#F41643"/>
<path d="M682.222 584.662L696.475 588.385L681.993 626.04L625.005 648.838L624.194 645.969L624.02 638.013L624.842 629.002L626.451 620.027L628.846 611.088L631.444 602.867L634.485 595.295L636.836 588.951L639.352 584.109L646.778 583.821L657.456 583.131L669.91 583.231L682.222 584.662Z" fill="#5CE170" stroke="#5CE170"/>
<path d="M679.043 548.635L683.785 543.423L693.287 545.905L701.898 548.897L709.482 551.921L716.894 555.252L722.424 558.338L729.964 563.957L696.475 588.385L656.669 583.095L658.257 579.548L661.672 572.387L666.803 563.967L671.447 557.492L679.043 548.635Z" fill="#5CE170" stroke="#5CE170"/>
<path d="M715.314 618.443L708.211 623.546L743.18 755.693L753.722 754.525L765.711 751.141L779.625 745.406L792.451 737.655L807.322 723.387L819.187 707.644L823.92 695.98L825.512 682.362L826.199 672.872L824.263 660.508L820.804 643.668L815.083 627.982L807.247 610.312L802.494 600.808L787.575 601.146L761.634 602.787L741.875 607.073L724.469 613.277L715.314 618.443Z" fill="#30D65C" stroke="#30D65C"/>
<path d="M785.691 621.082L786.251 636.563L784.591 651.052L782.601 660.674L779.597 668.562M779.597 668.562L775.913 677.314L771.958 685.2L764.397 697.512M779.597 668.562L774.98 668.983L769.562 663.021L766.042 658.578L762.662 652.296L761.108 648.831L759.554 645.366L758.169 642.063L756.785 638.761M779.597 668.562L785.031 666.953L790.128 664.262L795.365 659.732L799.854 655.849L803.529 651.64L806.509 645.359M764.397 697.512L760.039 703.342M764.397 697.512L774.423 696.007L780.343 693.011L785.378 689.042L789.48 685.044" stroke="#4DFC7B" stroke-width="13" stroke-linecap="round"/>
<ellipse cx="705.998" cy="700.085" rx="68.7617" ry="66.5988" transform="rotate(-15.7615 705.998 700.085)" fill="#5CE170"/>
<path d="M683.145 620.034L682.675 626.622L708.444 625.288L750.769 607.403L790.685 602.076L789.673 598.488L786.374 593.222L782.903 588.263L775.82 579.676L766.278 569.716L757.517 561.603L748.852 554.752L740.866 558.556L728.9 564.773L713.879 573.919L702.521 582.289L696.026 589.545L690.73 596.462L687.734 601.439L684.17 611.741L683.145 620.034Z" fill="#30D65C" stroke="#30D65C"/>
<path d="M743.622 641.697L752.144 649.878L691.613 765.6L666.179 759.868L651.805 752.047L639.326 740.851L629.468 724.268L623.274 706.908L618.953 691.602L617.115 680.501L615.111 667.898L614.666 658.986L614.957 654.515L624.592 649.213L631.485 645.202L641.6 639.765L652.052 635.524L664.834 630.367L678.501 626.509L690.895 624.561L701.64 624.11L710.67 624.918L720.786 627.743L728.88 631.656L737.447 637.243L743.622 641.697Z" fill="#5CE170" stroke="#5CE170"/>
<path d="M668.849 666.645C666.96 663.597 662.95 662.659 659.893 664.549C656.837 666.439 655.891 670.442 657.78 673.489L668.849 666.645ZM712.576 714.412L709.857 720.315L710.162 720.455L710.48 720.562L712.576 714.412ZM681.721 694.976L676.843 699.28L677.068 699.534L677.319 699.764L681.721 694.976ZM671.842 683.821L666.308 687.243L666.598 687.712L666.964 688.125L671.842 683.821ZM689.051 701.686L684.649 706.474L685.107 706.893L685.636 707.218L689.051 701.686ZM704.55 710.739L701.368 716.407L701.594 716.534L701.83 716.642L704.55 710.739ZM726.313 719.056L724.217 725.206L724.551 725.319L724.895 725.395L726.313 719.056ZM733.492 720.645L732.074 726.984L732.477 727.073L732.888 727.111L733.492 720.645ZM754.594 722.952L757.639 717.209L756.569 716.645L755.367 716.503L754.594 722.952ZM740.459 715.063L746.966 715.114L746.974 714.187L746.722 713.294L740.459 715.063ZM738.232 707.171L744.495 705.402L744.304 704.727L743.973 704.108L738.232 707.171ZM734.393 699.992L740.135 696.928L739.902 696.493L739.606 696.098L734.393 699.992ZM735.453 690.556C733.303 687.687 729.225 687.103 726.346 689.254C723.467 691.404 722.877 695.474 725.028 698.344L735.453 690.556ZM735.044 726.145L738.927 731.35L739.185 731.159L739.422 730.943L735.044 726.145ZM727.77 731.555L730.998 737.188L731.339 736.994L731.653 736.76L727.77 731.555ZM718.3 729.492C715.18 731.276 714.096 735.244 715.88 738.355C717.663 741.466 721.638 742.541 724.757 740.757L718.3 729.492ZM700.509 702.842L704.472 707.986L706.61 706.345L706.96 703.677L700.509 702.842ZM701.743 693.456L708.194 694.291L708.22 694.1L708.233 693.908L701.743 693.456ZM702.213 686.868L708.704 687.32L708.741 686.8L708.694 686.281L702.213 686.868ZM701.492 678.809L707.973 678.221L707.953 678.001L707.918 677.782L701.492 678.809ZM700.156 670.407L706.582 669.38L706.57 669.304L706.556 669.229L700.156 670.407ZM705.116 661.372C704.469 657.846 701.079 655.514 697.544 656.165C694.009 656.816 691.668 660.202 692.315 663.729L705.116 661.372ZM700.824 674.608L707.25 673.581L707.25 673.581L700.824 674.608ZM690.597 708.996L692.359 715.244L692.979 715.069L693.553 714.776L690.597 708.996ZM684.603 710.688L684.793 717.178L685.594 717.154L686.365 716.936L684.603 710.688ZM677.417 710.909L677.226 704.418L677.226 704.418L677.417 710.909ZM671.257 711.098L670.41 717.537L670.927 717.604L671.448 717.588L671.257 711.098ZM665.615 710.367L662.74 716.196L663.703 716.668L664.767 716.806L665.615 710.367ZM662.243 701.477C659.02 699.898 655.119 701.228 653.532 704.447C651.944 707.667 653.271 711.557 656.495 713.137L662.243 701.477ZM686.6 690.672L676.72 679.517L666.964 688.125L676.843 699.28L686.6 690.672ZM677.377 680.398L668.849 666.645L657.78 673.489L666.308 687.243L677.377 680.398ZM699.67 700.577L692.467 696.154L685.636 707.218L692.838 711.64L699.67 700.577ZM693.454 696.898L686.124 690.188L677.319 699.764L684.649 706.474L693.454 696.898ZM715.296 708.509L707.27 704.836L701.83 716.642L709.857 720.315L715.296 708.509ZM707.732 705.07L699.436 700.44L693.071 711.777L701.368 716.407L707.732 705.07ZM728.409 712.906L714.672 708.262L710.48 720.562L724.217 725.206L728.409 712.906ZM741.004 714.811L734.095 714.178L732.888 727.111L739.797 727.743L741.004 714.811ZM734.91 714.305L727.731 712.717L724.895 725.395L732.074 726.984L734.91 714.305ZM769.867 723.653L757.639 717.209L751.548 728.694L763.777 735.139L769.867 723.653ZM755.367 716.503L741.174 714.828L739.627 727.725L753.82 729.4L755.367 716.503ZM746.907 721.328L746.966 715.114L733.953 715.012L733.894 721.226L746.907 721.328ZM746.722 713.294L744.495 705.402L731.968 708.94L734.196 716.832L746.722 713.294ZM743.973 704.108L740.135 696.928L728.652 703.055L732.49 710.234L743.973 704.108ZM739.606 696.098L735.453 690.556L725.028 698.344L729.18 703.885L739.606 696.098ZM736.023 716.479L730.667 721.348L739.422 730.943L744.778 726.074L736.023 716.479ZM731.161 720.941L723.887 726.351L731.653 736.76L738.927 731.35L731.161 720.941ZM724.541 725.923L718.3 729.492L724.757 740.757L730.998 737.188L724.541 725.923ZM700.216 711.253L704.472 707.986L696.547 697.697L692.291 700.964L700.216 711.253ZM706.96 703.677L708.194 694.291L695.292 692.621L694.058 702.007L706.96 703.677ZM708.233 693.908L708.704 687.32L695.723 686.416L695.253 693.004L708.233 693.908ZM708.694 686.281L707.973 678.221L695.011 679.396L695.733 687.455L708.694 686.281ZM706.556 669.229L705.836 665.3L693.035 667.657L693.756 671.585L706.556 669.229ZM705.836 665.3L705.116 661.372L692.315 663.729L693.035 667.657L705.836 665.3ZM707.918 677.782L707.25 673.581L694.398 675.635L695.066 679.836L707.918 677.782ZM707.25 673.581L706.582 669.38L693.73 671.434L694.398 675.635L707.25 673.581ZM693.298 700.329L687.641 703.216L693.553 714.776L699.21 711.889L693.298 700.329ZM688.835 702.748L682.841 704.44L686.365 716.936L692.359 715.244L688.835 702.748ZM684.412 704.198L677.226 704.418L677.607 717.399L684.793 717.178L684.412 704.198ZM677.226 704.418L671.067 704.608L671.448 717.588L677.607 717.399L677.226 704.418ZM672.105 704.659L666.462 703.927L664.767 716.806L670.41 717.537L672.105 704.659ZM668.489 704.537L662.243 701.477L656.495 713.137L662.74 716.196L668.489 704.537Z" fill="#97F4A5"/>
<path fill-rule="evenodd" clip-rule="evenodd" d="M1154.65 883.292C1157.24 877.089 1159.03 873.646 1163.1 868.316C1167.06 863.11 1170.37 860.453 1174.84 856.865C1175.79 856.1 1176.8 855.292 1177.87 854.409C1180.95 851.882 1183.9 850.337 1186.74 848.855C1190.7 846.785 1194.42 844.836 1197.93 840.502C1203.02 834.205 1204.44 828.978 1206.37 821.884C1206.7 820.662 1207.05 819.385 1207.43 818.037C1208.58 813.997 1209.11 811.052 1209.66 807.719C1209.73 807.258 1209.81 806.791 1209.88 806.312L1209.89 806.271L1209.89 806.263L1209.89 806.26C1210.1 804.949 1210.33 803.552 1210.6 801.99C1210.78 800.936 1210.96 799.938 1211.12 798.982C1212.35 792.021 1213.18 787.294 1213.76 779.525C1214.56 769.112 1214.38 763.207 1213.76 752.781C1213.15 742.28 1210.6 726.037 1210.6 726.037C1210.6 726.037 1209.97 710.134 1207.43 700.362C1204.94 690.759 1197.93 676.828 1197.93 676.828C1197.93 676.828 1192.78 661.554 1188.43 652.223C1178.43 630.74 1170.71 619.25 1154.65 601.944C1160.5 610.257 1162 617.543 1159.93 627.535C1157.24 640.492 1149.8 649.557 1137 652.223C1124.06 654.917 1115.97 647.201 1106.09 638.316C1096.68 629.849 1092.94 622.679 1089.2 610.502C1082.23 587.812 1099.76 550.595 1099.76 550.595C1099.76 550.595 1083.91 541.624 1073.37 536.688C1056.2 528.652 1046.29 524.36 1027.98 519.572C1007.03 514.096 994.71 512.537 973.085 512.084C953.233 511.668 941.951 512.76 922.415 516.363C896.889 521.07 882.035 524.436 859.078 536.688C855.533 538.581 852.909 540.943 850.416 543.19C846.574 546.65 843.039 549.834 836.911 550.595C836.911 550.595 848.157 568.607 851.174 581.618C852.888 589.007 852.065 595 851.24 601.016C850.433 606.896 849.624 612.798 851.174 620.046C852.83 627.787 855.625 633.032 858.577 638.572C860.727 642.607 862.961 646.798 864.897 652.223C867.673 659.998 868.647 666.814 869.585 673.376C870.853 682.254 872.056 690.667 877.565 700.362C882.31 708.715 887.803 713.517 893.543 718.534C897.999 722.43 902.603 726.455 907.122 732.372C920.097 749.362 927.288 759.546 935.083 779.525C939.8 791.615 938.752 803.29 937.751 814.45C936.474 828.674 935.273 842.062 946.179 854.409C953.722 862.947 961.195 866.198 969.885 869.98C973.679 871.631 977.705 873.383 982.07 875.72C990.451 880.207 997.375 883.116 1004.22 885.993C1011.64 889.11 1018.98 892.19 1027.98 897.199C1034.18 900.65 1038.84 904.089 1043.36 907.417C1049.26 911.761 1054.89 915.917 1063.35 919.664C1081.03 927.497 1092.17 929.553 1111.37 931.432C1124.5 932.717 1145.15 931.432 1145.15 931.432C1147.06 927.33 1147.84 924.735 1149.08 920.649L1149.37 919.664C1151.29 913.319 1151.38 907.892 1151.47 902.585C1151.58 896.412 1151.68 890.401 1154.65 883.292Z" fill="#F9DBAF"/>
<path d="M1154.65 601.944C1160.51 595.701 1162.78 590.225 1163.1 581.618L1125.09 566.642L1111.37 544.177C1106.37 545.494 1099.76 550.595 1099.76 550.595C1099.76 550.595 1082.23 587.812 1089.2 610.502C1092.94 622.679 1096.68 629.849 1106.09 638.316C1115.97 647.201 1124.06 654.917 1137 652.223C1149.8 649.557 1157.24 640.492 1159.93 627.535C1162 617.543 1160.5 610.257 1154.65 601.944Z" fill="#F9DBAF"/>
<path d="M766.184 676.828C755.602 692.498 740.116 692.39 729.238 707.851C706.47 740.21 715.937 770.576 723.96 809.478C731.655 846.788 735.969 874.502 766.184 897.199C781.318 908.567 795.523 904.904 810.52 916.455C818.875 922.89 824.201 926.544 829.521 935.711C835.149 945.407 831.187 953.887 836.911 963.525C842.93 973.662 849.605 976.937 859.078 983.85C884.468 1002.38 904.092 1005.17 935.083 1009.52C958.358 1012.8 971.986 1012.85 995.253 1009.52C1017.74 1006.31 1029.09 988.253 1051.2 993.478C1060.01 995.559 1063.38 1004.55 1072.31 1003.11C1080.97 1001.71 1081.83 992.935 1089.2 988.129C1094.63 984.591 1100.42 986.093 1103.98 980.641C1106.98 976.06 1104.53 971.997 1106.09 966.734C1111.97 946.898 1136.42 950.161 1145.15 931.432C1145.15 931.432 1124.5 932.717 1111.37 931.432C1092.17 929.553 1081.03 927.497 1063.35 919.664C1054.89 915.917 1049.26 911.761 1043.36 907.417C1038.84 904.089 1034.18 900.65 1027.98 897.199C1018.98 892.19 1011.64 889.11 1004.22 885.993C997.375 883.116 990.451 880.207 982.07 875.72C977.705 873.383 973.679 871.631 969.885 869.98C961.195 866.198 953.722 862.947 946.179 854.409C935.273 842.062 936.474 828.674 937.751 814.45C938.752 803.29 939.8 791.615 935.083 779.525C927.288 759.546 920.097 749.362 907.122 732.372C902.603 726.455 897.999 722.43 893.543 718.534C887.803 713.517 882.31 708.715 877.565 700.362C872.056 690.667 870.853 682.254 869.585 673.376C868.647 666.814 867.673 659.998 864.897 652.223C862.961 646.798 860.727 642.607 858.577 638.572C855.625 633.032 852.83 627.787 851.174 620.046C849.624 612.798 850.433 606.896 851.24 601.016C852.065 595 852.888 589.007 851.174 581.618C848.157 568.607 836.911 550.595 836.911 550.595C819.413 564.033 808.205 567.857 785.185 566.642C781.766 571.145 776.622 570.431 773.574 575.2C771.447 578.526 770.939 580.901 770.407 584.828C769.494 591.565 770.534 595.881 773.574 601.944C775.441 605.668 777.434 607.16 779.907 610.502C775.187 620.954 773.072 627.143 770.407 638.316C766.898 653.024 766.184 676.828 766.184 676.828Z" fill="#F9DBAF"/>
<path d="M785.185 566.642C808.205 567.857 819.413 564.033 836.911 550.595C830.998 551.33 826.934 548.748 822.704 546.059C819.156 543.805 815.491 541.476 810.52 540.967C809.374 540.85 808.33 540.676 807.341 540.512C804.441 540.029 802.021 539.627 798.908 540.967C795.09 542.612 793.573 545.241 791.658 548.561C791.282 549.213 790.891 549.892 790.464 550.595C788.846 553.258 788.468 555.822 788.096 558.34C787.683 561.141 787.279 563.885 785.185 566.642Z" fill="#F9DBAF"/>
<path d="M1163.1 581.618C1163.31 575.641 1163.44 571.448 1159.93 566.642C1157.59 563.439 1154.68 562.591 1151.5 561.665C1149.46 561.073 1147.32 560.448 1145.15 559.153C1141.69 557.093 1139.29 554.557 1137 552.135C1133.73 548.68 1130.67 545.456 1125.09 544.177C1119.87 542.977 1116.56 542.81 1111.37 544.177L1125.09 566.642L1163.1 581.618Z" fill="#F9DBAF"/>
<path d="M1154.65 601.944C1154.65 601.944 1162.78 590.225 1163.1 581.618L1125.09 566.642L1111.37 544.177C1106.37 545.494 1099.76 550.595 1099.76 550.595L1089.2 610.502L1106.09 638.316L1137 652.223L1159.93 627.535L1154.65 601.944Z" fill="#EDB88E"/>
<path d="M766.184 676.828C755.602 692.498 740.116 692.39 729.238 707.851C706.47 740.21 715.937 770.576 723.96 809.478C731.655 846.788 735.969 874.502 766.184 897.199C781.318 908.567 795.523 904.904 810.52 916.455C818.875 922.89 824.201 926.544 829.521 935.711C835.149 945.407 831.187 953.887 836.911 963.525C842.93 973.662 849.605 976.937 859.078 983.85C884.468 1002.38 904.092 1005.17 935.083 1009.52C958.358 1012.8 971.986 1012.85 995.253 1009.52C1017.74 1006.31 1029.09 988.253 1051.2 993.478C1060.01 995.559 1063.38 1004.55 1072.31 1003.11C1080.97 1001.71 1081.83 992.935 1089.2 988.129C1094.63 984.591 1100.42 986.093 1103.98 980.641C1106.98 976.06 1104.53 971.997 1106.09 966.734C1111.97 946.898 1136.42 950.161 1145.15 931.432C1145.15 931.432 1124.5 932.717 1111.37 931.432C1092.17 929.553 1081.03 927.497 1063.35 919.664C1054.89 915.917 1049.26 911.761 1043.36 907.417C1038.84 904.089 1034.18 900.65 1027.98 897.199C1018.98 892.19 1011.64 889.11 1004.22 885.993C997.375 883.116 990.451 880.207 982.07 875.72C977.705 873.383 973.679 871.631 969.885 869.98C961.195 866.198 953.722 862.947 946.179 854.409C935.273 842.062 936.474 828.674 937.751 814.45C938.752 803.29 939.8 791.615 935.083 779.525C927.288 759.546 920.097 749.362 907.122 732.372C902.603 726.455 897.999 722.43 893.543 718.534C887.803 713.517 882.31 708.715 877.565 700.362C872.056 690.667 870.853 682.254 869.585 673.376C868.647 666.814 867.673 659.998 864.897 652.223C862.961 646.798 860.727 642.607 858.577 638.572C855.625 633.032 852.83 627.787 851.174 620.046C849.624 612.798 850.433 606.896 851.24 601.016C852.065 595 852.888 589.007 851.174 581.618C848.157 568.607 836.911 550.595 836.911 550.595C819.413 564.033 808.205 567.857 785.185 566.642C781.766 571.145 776.622 570.431 773.574 575.2C771.447 578.526 770.939 580.901 770.407 584.828C769.494 591.565 770.534 595.881 773.574 601.944C775.441 605.668 777.434 607.16 779.907 610.502C775.187 620.954 773.072 627.143 770.407 638.316C766.898 653.024 766.184 676.828 766.184 676.828Z" fill="#EDB88E"/>
<path d="M857.763 646.92C874.509 645.103 897.876 662.967 897.876 662.967C897.876 662.967 919.996 678.605 923.211 693.99C925.908 706.895 923.662 715.895 916.877 727.153C906.011 745.181 889.125 750.93 868.319 749.618C852.485 748.619 842.699 743.759 831.372 732.502C821.366 722.555 815.751 714.554 814.483 700.409C813.232 686.46 816.556 677.234 825.039 666.176C834.109 654.353 843.069 648.514 857.763 646.92Z" fill="#D99266"/>
<path d="M1035.11 727.153C1034.6 736.527 1036.61 743.404 1043.55 749.618C1053.44 758.467 1066.37 757.056 1077.33 749.618C1083.43 745.479 1086.64 741.703 1088.94 734.641C1091.67 726.274 1091.45 719.64 1086.83 712.176C1081.83 704.1 1075.1 701.207 1065.72 700.409C1056.63 699.634 1050.15 701.507 1043.55 707.897C1037.68 713.583 1035.55 718.936 1035.11 727.153Z" fill="#D99266"/>
<path d="M1180.53 692.79L1205.86 696C1205.86 696 1209.48 712.88 1211.14 723.814C1212.77 734.621 1213.63 740.715 1214.31 751.628C1215.1 764.553 1215.35 771.883 1214.31 784.79C1212.89 802.183 1210.4 814.116 1202.69 829.72C1199.62 835.938 1196.36 843.627 1196.36 843.627C1196.36 843.627 1186.68 838.471 1180.53 835.069C1170.97 829.782 1165.91 826.259 1156.25 821.162C1140.21 812.7 1118.81 819.578 1114.02 801.907C1109.87 786.592 1128.34 780.984 1131.97 765.534C1136.85 744.743 1119.12 730.48 1127.75 710.976C1133.83 697.225 1139.4 685.141 1154.14 683.163C1164.99 681.705 1180.53 692.79 1180.53 692.79Z" fill="#D99266"/>
<path fill-rule="evenodd" clip-rule="evenodd" d="M1214.31 784.79C1215.35 771.883 1215.1 764.553 1214.31 751.628L1191.08 730.232H1168.91L1144.63 744.139L1131.97 765.534C1130.41 772.182 1126.1 777.008 1122.03 781.569C1116.64 787.607 1111.66 793.182 1114.02 801.907C1117.02 812.973 1126.53 814.412 1137.16 816.02C1143.51 816.98 1150.25 817.999 1156.25 821.162C1161.66 824.017 1165.62 826.378 1169.75 828.831C1172.98 830.758 1176.32 832.743 1180.53 835.069C1186.68 838.471 1196.36 843.627 1196.36 843.627C1196.36 843.627 1199.62 835.938 1202.69 829.72C1210.4 814.116 1212.89 802.183 1214.31 784.79Z" fill="#E8B58C"/>
<ellipse cx="1008.46" cy="839.348" rx="8.44491" ry="8.55813" fill="#D99266"/>
<ellipse cx="1014.79" cy="758.046" rx="8.44491" ry="8.55813" fill="#D99266"/>
<ellipse cx="953.569" cy="642.511" rx="8.44491" ry="8.55813" fill="#D99266"/>
<ellipse cx="902.899" cy="582.605" rx="8.44491" ry="8.55813" fill="#D99266"/>
<ellipse cx="1122.47" cy="616.837" rx="8.44491" ry="8.55813" fill="#D99266"/>
<ellipse cx="886.009" cy="805.116" rx="8.44491" ry="8.55813" fill="#D99266"/>
<path d="M910.289 701.349C914.56 713.997 910.289 735.581 910.289 735.581C910.289 735.581 897.513 716.393 886.009 707.767C877.412 701.321 868.52 703.303 861.73 694.93C854.43 685.927 852.996 677.619 854.341 666.046C855.272 658.033 861.73 646.79 861.73 646.79C861.73 646.79 869.351 654.717 874.398 659.628C882.399 667.413 888.288 670.351 895.51 678.883C902.284 686.887 906.92 691.373 910.289 701.349Z" fill="#E8B58C"/>
<path d="M1025.27 601.86C1037.93 627.535 1013.92 627.535 999.932 627.535C985.94 627.535 974.597 616.04 974.597 601.86C966.152 584.744 985.94 576.186 999.932 576.186C1013.92 576.186 1025.27 587.681 1025.27 601.86Z" fill="#D99266"/>
<path d="M1025.27 601.86C1037.93 627.535 1013.92 627.535 999.932 627.535C985.94 627.535 974.597 616.04 974.597 601.86C966.152 584.744 985.94 576.186 999.932 576.186C1013.92 576.186 1025.27 587.681 1025.27 601.86Z" fill="#D99266"/>
<path fill-rule="evenodd" clip-rule="evenodd" d="M974.597 601.86C974.597 616.04 985.94 627.535 999.932 627.535C999.932 627.535 1009.36 617.455 1007.41 610.418C1005.49 603.499 999.495 601.511 992.626 599.721C985.761 597.931 974.597 601.86 974.597 601.86Z" fill="#D99266"/>
<path fill-rule="evenodd" clip-rule="evenodd" d="M974.597 601.86C974.597 616.04 985.94 627.535 999.932 627.535C999.932 627.535 1009.36 617.455 1007.41 610.418C1005.49 603.499 999.495 601.511 992.626 599.721C985.761 597.931 974.597 601.86 974.597 601.86Z" fill="#E8B58C"/>
<path d="M1023.03 955.958C994.957 959.779 1002.74 936.762 1007.27 923.348C1011.81 909.934 1026.22 902.785 1039.45 907.381C1058.17 904.832 1059.74 926.577 1055.21 939.992C1050.67 953.406 1036.27 960.554 1023.03 955.958Z" fill="#D99266"/>
<path d="M1023.03 955.958C994.957 959.779 1002.74 936.762 1007.27 923.348C1011.81 909.934 1026.22 902.785 1039.45 907.381C1058.17 904.832 1059.74 926.577 1055.21 939.992C1050.67 953.406 1036.27 960.554 1023.03 955.958Z" fill="#D99266"/>
<path fill-rule="evenodd" clip-rule="evenodd" d="M1058.71 922.548C1055.4 908.77 1041.7 900.318 1028.1 903.67C1028.1 903.67 1021.3 915.721 1024.84 922.091C1028.31 928.355 1034.6 928.851 1041.69 928.946C1048.78 929.04 1058.71 922.548 1058.71 922.548Z" fill="#D99266"/>
<path fill-rule="evenodd" clip-rule="evenodd" d="M1058.71 922.548C1055.4 908.77 1041.7 900.318 1028.1 903.67C1028.1 903.67 1021.3 915.721 1024.84 922.091C1028.31 928.355 1034.6 928.851 1041.69 928.946C1048.78 929.04 1058.71 922.548 1058.71 922.548Z" fill="#E8B58C"/>
</g>
<defs>
<clipPath id="clip0_937_612">
<rect width="2013" height="1000" fill="white"/>
</clipPath>
</defs>
</svg>
