<svg width="1500" height="1002" viewBox="0 0 1500 1002" fill="none" xmlns="http://www.w3.org/2000/svg">
<rect width="1500" height="1002" fill="#1A1919"/>
<path d="M1006.98 129C1006.99 130.282 1006.6 131.534 1005.87 132.584C1005.13 133.634 1004.09 134.429 1002.88 134.859L977.922 143.922L968.859 168.883C968.415 170.079 967.616 171.11 966.569 171.839C965.521 172.567 964.276 172.958 963 172.958C961.724 172.958 960.479 172.567 959.431 171.839C958.384 171.11 957.585 170.079 957.141 168.883L948.078 143.922L923.117 134.859C921.921 134.415 920.89 133.616 920.161 132.568C919.433 131.521 919.042 130.276 919.042 129C919.042 127.724 919.433 126.479 920.161 125.431C920.89 124.384 921.921 123.584 923.117 123.141L948.078 114.078L957.141 89.1171C957.585 87.921 958.384 86.8894 959.431 86.1609C960.479 85.4325 961.724 85.042 963 85.042C964.276 85.042 965.521 85.4325 966.569 86.1609C967.616 86.8894 968.415 87.921 968.859 89.1171L977.922 114.078L1002.88 123.141C1004.09 123.57 1005.13 124.366 1005.87 125.416C1006.6 126.466 1006.99 127.718 1006.98 129V129Z" fill="white"/>
<path d="M1362.98 403C1362.99 404.282 1362.6 405.534 1361.87 406.584C1361.13 407.634 1360.09 408.429 1358.88 408.859L1333.92 417.922L1324.86 442.883C1324.42 444.079 1323.62 445.11 1322.57 445.839C1321.52 446.567 1320.28 446.958 1319 446.958C1317.72 446.958 1316.48 446.567 1315.43 445.839C1314.38 445.11 1313.58 444.079 1313.14 442.883L1304.08 417.922L1279.12 408.859C1277.92 408.415 1276.89 407.616 1276.16 406.568C1275.43 405.521 1275.04 404.276 1275.04 403C1275.04 401.724 1275.43 400.479 1276.16 399.431C1276.89 398.384 1277.92 397.584 1279.12 397.141L1304.08 388.078L1313.14 363.117C1313.58 361.921 1314.38 360.889 1315.43 360.161C1316.48 359.432 1317.72 359.042 1319 359.042C1320.28 359.042 1321.52 359.432 1322.57 360.161C1323.62 360.889 1324.42 361.921 1324.86 363.117L1333.92 388.078L1358.88 397.141C1360.09 397.57 1361.13 398.366 1361.87 399.416C1362.6 400.466 1362.99 401.718 1362.98 403V403Z" fill="white"/>
<path d="M1472.98 230C1472.99 231.282 1472.6 232.534 1471.87 233.584C1471.13 234.634 1470.09 235.429 1468.88 235.859L1443.92 244.922L1434.86 269.883C1434.42 271.079 1433.62 272.11 1432.57 272.839C1431.52 273.567 1430.28 273.958 1429 273.958C1427.72 273.958 1426.48 273.567 1425.43 272.839C1424.38 272.11 1423.58 271.079 1423.14 269.883L1414.08 244.922L1389.12 235.859C1387.92 235.415 1386.89 234.616 1386.16 233.568C1385.43 232.521 1385.04 231.276 1385.04 230C1385.04 228.724 1385.43 227.479 1386.16 226.431C1386.89 225.384 1387.92 224.584 1389.12 224.141L1414.08 215.078L1423.14 190.117C1423.58 188.921 1424.38 187.889 1425.43 187.161C1426.48 186.432 1427.72 186.042 1429 186.042C1430.28 186.042 1431.52 186.432 1432.57 187.161C1433.62 187.889 1434.42 188.921 1434.86 190.117L1443.92 215.078L1468.88 224.141C1470.09 224.57 1471.13 225.366 1471.87 226.416C1472.6 227.466 1472.99 228.718 1472.98 230V230Z" fill="white"/>
<path d="M1250.98 901C1250.99 902.282 1250.6 903.534 1249.87 904.584C1249.13 905.634 1248.09 906.429 1246.88 906.859L1221.92 915.922L1212.86 940.883C1212.42 942.079 1211.62 943.11 1210.57 943.839C1209.52 944.567 1208.28 944.958 1207 944.958C1205.72 944.958 1204.48 944.567 1203.43 943.839C1202.38 943.11 1201.58 942.079 1201.14 940.883L1192.08 915.922L1167.12 906.859C1165.92 906.415 1164.89 905.616 1164.16 904.568C1163.43 903.521 1163.04 902.276 1163.04 901C1163.04 899.724 1163.43 898.479 1164.16 897.431C1164.89 896.384 1165.92 895.584 1167.12 895.141L1192.08 886.078L1201.14 861.117C1201.58 859.921 1202.38 858.889 1203.43 858.161C1204.48 857.432 1205.72 857.042 1207 857.042C1208.28 857.042 1209.52 857.432 1210.57 858.161C1211.62 858.889 1212.42 859.921 1212.86 861.117L1221.92 886.078L1246.88 895.141C1248.09 895.57 1249.13 896.366 1249.87 897.416C1250.6 898.466 1250.99 899.718 1250.98 901V901Z" fill="white"/>
<path d="M625.984 115C625.994 116.282 625.604 117.534 624.869 118.584C624.134 119.634 623.09 120.429 621.883 120.859L596.922 129.922L587.859 154.883C587.415 156.079 586.616 157.11 585.569 157.839C584.521 158.567 583.276 158.958 582 158.958C580.724 158.958 579.479 158.567 578.431 157.839C577.384 157.11 576.585 156.079 576.141 154.883L567.078 129.922L542.117 120.859C540.921 120.415 539.89 119.616 539.161 118.568C538.433 117.521 538.042 116.276 538.042 115C538.042 113.724 538.433 112.479 539.161 111.431C539.89 110.384 540.921 109.584 542.117 109.141L567.078 100.078L576.141 75.1171C576.585 73.921 577.384 72.8894 578.431 72.1609C579.479 71.4325 580.724 71.042 582 71.042C583.276 71.042 584.521 71.4325 585.569 72.1609C586.616 72.8894 587.415 73.921 587.859 75.1171L596.922 100.078L621.883 109.141C623.09 109.57 624.134 110.366 624.869 111.416C625.604 112.466 625.994 113.718 625.984 115V115Z" fill="white"/>
<path d="M821.992 588C821.997 588.641 821.802 589.267 821.434 589.792C821.067 590.317 820.545 590.715 819.941 590.93L807.461 595.461L802.93 607.941C802.708 608.539 802.308 609.055 801.784 609.419C801.261 609.784 800.638 609.979 800 609.979C799.362 609.979 798.739 609.784 798.216 609.419C797.692 609.055 797.292 608.539 797.07 607.941L792.539 595.461L780.059 590.93C779.46 590.708 778.945 590.308 778.58 589.784C778.216 589.261 778.021 588.638 778.021 588C778.021 587.362 778.216 586.739 778.58 586.216C778.945 585.692 779.46 585.292 780.059 585.07L792.539 580.539L797.07 568.059C797.292 567.46 797.692 566.945 798.216 566.58C798.739 566.216 799.362 566.021 800 566.021C800.638 566.021 801.261 566.216 801.784 566.58C802.308 566.945 802.708 567.46 802.93 568.059L807.461 580.539L819.941 585.07C820.545 585.285 821.067 585.683 821.434 586.208C821.802 586.733 821.997 587.359 821.992 588V588Z" fill="white"/>
<path d="M339.992 575C339.997 575.641 339.802 576.267 339.434 576.792C339.067 577.317 338.545 577.715 337.941 577.93L325.461 582.461L320.93 594.941C320.708 595.539 320.308 596.055 319.784 596.419C319.261 596.784 318.638 596.979 318 596.979C317.362 596.979 316.739 596.784 316.216 596.419C315.692 596.055 315.292 595.539 315.07 594.941L310.539 582.461L298.059 577.93C297.461 577.708 296.945 577.308 296.581 576.784C296.216 576.261 296.021 575.638 296.021 575C296.021 574.362 296.216 573.739 296.581 573.216C296.945 572.692 297.461 572.292 298.059 572.07L310.539 567.539L315.07 555.059C315.292 554.46 315.692 553.945 316.216 553.58C316.739 553.216 317.362 553.021 318 553.021C318.638 553.021 319.261 553.216 319.784 553.58C320.308 553.945 320.708 554.46 320.93 555.059L325.461 567.539L337.941 572.07C338.545 572.285 339.067 572.683 339.434 573.208C339.802 573.733 339.997 574.359 339.992 575V575Z" fill="white"/>
<path d="M139.992 255C139.997 255.641 139.802 256.267 139.434 256.792C139.067 257.317 138.545 257.715 137.941 257.93L125.461 262.461L120.93 274.941C120.708 275.539 120.308 276.055 119.784 276.419C119.261 276.784 118.638 276.979 118 276.979C117.362 276.979 116.739 276.784 116.216 276.419C115.692 276.055 115.292 275.539 115.07 274.941L110.539 262.461L98.0586 257.93C97.4606 257.708 96.9448 257.308 96.5805 256.784C96.2163 256.261 96.0211 255.638 96.0211 255C96.0211 254.362 96.2163 253.739 96.5805 253.216C96.9448 252.692 97.4606 252.292 98.0586 252.07L110.539 247.539L115.07 235.059C115.292 234.46 115.692 233.945 116.216 233.58C116.739 233.216 117.362 233.021 118 233.021C118.638 233.021 119.261 233.216 119.784 233.58C120.308 233.945 120.708 234.46 120.93 235.059L125.461 247.539L137.941 252.07C138.545 252.285 139.067 252.683 139.434 253.208C139.802 253.733 139.997 254.359 139.992 255V255Z" fill="white"/>
<path d="M1390.99 829C1391 829.641 1390.8 830.267 1390.43 830.792C1390.07 831.317 1389.55 831.715 1388.94 831.93L1376.46 836.461L1371.93 848.941C1371.71 849.539 1371.31 850.055 1370.78 850.419C1370.26 850.784 1369.64 850.979 1369 850.979C1368.36 850.979 1367.74 850.784 1367.22 850.419C1366.69 850.055 1366.29 849.539 1366.07 848.941L1361.54 836.461L1349.06 831.93C1348.46 831.708 1347.94 831.308 1347.58 830.784C1347.22 830.261 1347.02 829.638 1347.02 829C1347.02 828.362 1347.22 827.739 1347.58 827.216C1347.94 826.692 1348.46 826.292 1349.06 826.07L1361.54 821.539L1366.07 809.059C1366.29 808.46 1366.69 807.945 1367.22 807.58C1367.74 807.216 1368.36 807.021 1369 807.021C1369.64 807.021 1370.26 807.216 1370.78 807.58C1371.31 807.945 1371.71 808.46 1371.93 809.059L1376.46 821.539L1388.94 826.07C1389.55 826.285 1390.07 826.683 1390.43 827.208C1390.8 827.733 1391 828.359 1390.99 829V829Z" fill="white"/>
<path d="M1381.99 593C1382 593.641 1381.8 594.267 1381.43 594.792C1381.07 595.317 1380.55 595.715 1379.94 595.93L1367.46 600.461L1362.93 612.941C1362.71 613.539 1362.31 614.055 1361.78 614.419C1361.26 614.784 1360.64 614.979 1360 614.979C1359.36 614.979 1358.74 614.784 1358.22 614.419C1357.69 614.055 1357.29 613.539 1357.07 612.941L1352.54 600.461L1340.06 595.93C1339.46 595.708 1338.94 595.308 1338.58 594.784C1338.22 594.261 1338.02 593.638 1338.02 593C1338.02 592.362 1338.22 591.739 1338.58 591.216C1338.94 590.692 1339.46 590.292 1340.06 590.07L1352.54 585.539L1357.07 573.059C1357.29 572.46 1357.69 571.945 1358.22 571.58C1358.74 571.216 1359.36 571.021 1360 571.021C1360.64 571.021 1361.26 571.216 1361.78 571.58C1362.31 571.945 1362.71 572.46 1362.93 573.059L1367.46 585.539L1379.94 590.07C1380.55 590.285 1381.07 590.683 1381.43 591.208C1381.8 591.733 1382 592.359 1381.99 593V593Z" fill="white"/>
<path d="M1475.99 415C1476 415.641 1475.8 416.267 1475.43 416.792C1475.07 417.317 1474.55 417.715 1473.94 417.93L1461.46 422.461L1456.93 434.941C1456.71 435.539 1456.31 436.055 1455.78 436.419C1455.26 436.784 1454.64 436.979 1454 436.979C1453.36 436.979 1452.74 436.784 1452.22 436.419C1451.69 436.055 1451.29 435.539 1451.07 434.941L1446.54 422.461L1434.06 417.93C1433.46 417.708 1432.94 417.308 1432.58 416.784C1432.22 416.261 1432.02 415.638 1432.02 415C1432.02 414.362 1432.22 413.739 1432.58 413.216C1432.94 412.692 1433.46 412.292 1434.06 412.07L1446.54 407.539L1451.07 395.059C1451.29 394.46 1451.69 393.945 1452.22 393.58C1452.74 393.216 1453.36 393.021 1454 393.021C1454.64 393.021 1455.26 393.216 1455.78 393.58C1456.31 393.945 1456.71 394.46 1456.93 395.059L1461.46 407.539L1473.94 412.07C1474.55 412.285 1475.07 412.683 1475.43 413.208C1475.8 413.733 1476 414.359 1475.99 415V415Z" fill="white"/>
<path d="M1208.99 359C1209 359.641 1208.8 360.267 1208.43 360.792C1208.07 361.317 1207.55 361.715 1206.94 361.93L1194.46 366.461L1189.93 378.941C1189.71 379.539 1189.31 380.055 1188.78 380.419C1188.26 380.784 1187.64 380.979 1187 380.979C1186.36 380.979 1185.74 380.784 1185.22 380.419C1184.69 380.055 1184.29 379.539 1184.07 378.941L1179.54 366.461L1167.06 361.93C1166.46 361.708 1165.94 361.308 1165.58 360.784C1165.22 360.261 1165.02 359.638 1165.02 359C1165.02 358.362 1165.22 357.739 1165.58 357.216C1165.94 356.692 1166.46 356.292 1167.06 356.07L1179.54 351.539L1184.07 339.059C1184.29 338.46 1184.69 337.945 1185.22 337.58C1185.74 337.216 1186.36 337.021 1187 337.021C1187.64 337.021 1188.26 337.216 1188.78 337.58C1189.31 337.945 1189.71 338.46 1189.93 339.059L1194.46 351.539L1206.94 356.07C1207.55 356.285 1208.07 356.683 1208.43 357.208C1208.8 357.733 1209 358.359 1208.99 359V359Z" fill="white"/>
<path d="M772.992 240C772.997 240.641 772.802 241.267 772.434 241.792C772.067 242.317 771.545 242.715 770.941 242.93L758.461 247.461L753.93 259.941C753.708 260.539 753.308 261.055 752.784 261.419C752.261 261.784 751.638 261.979 751 261.979C750.362 261.979 749.739 261.784 749.216 261.419C748.692 261.055 748.292 260.539 748.07 259.941L743.539 247.461L731.059 242.93C730.46 242.708 729.945 242.308 729.58 241.784C729.216 241.261 729.021 240.638 729.021 240C729.021 239.362 729.216 238.739 729.58 238.216C729.945 237.692 730.46 237.292 731.059 237.07L743.539 232.539L748.07 220.059C748.292 219.46 748.692 218.945 749.216 218.58C749.739 218.216 750.362 218.021 751 218.021C751.638 218.021 752.261 218.216 752.784 218.58C753.308 218.945 753.708 219.46 753.93 220.059L758.461 232.539L770.941 237.07C771.545 237.285 772.067 237.683 772.434 238.208C772.802 238.733 772.997 239.359 772.992 240V240Z" fill="white"/>
<path d="M389.992 151C389.997 151.641 389.802 152.267 389.434 152.792C389.067 153.317 388.545 153.715 387.941 153.93L375.461 158.461L370.93 170.941C370.708 171.539 370.308 172.055 369.784 172.419C369.261 172.784 368.638 172.979 368 172.979C367.362 172.979 366.739 172.784 366.216 172.419C365.692 172.055 365.292 171.539 365.07 170.941L360.539 158.461L348.059 153.93C347.461 153.708 346.945 153.308 346.581 152.784C346.216 152.261 346.021 151.638 346.021 151C346.021 150.362 346.216 149.739 346.581 149.216C346.945 148.692 347.461 148.292 348.059 148.07L360.539 143.539L365.07 131.059C365.292 130.46 365.692 129.945 366.216 129.58C366.739 129.216 367.362 129.021 368 129.021C368.638 129.021 369.261 129.216 369.784 129.58C370.308 129.945 370.708 130.46 370.93 131.059L375.461 143.539L387.941 148.07C388.545 148.285 389.067 148.683 389.434 149.208C389.802 149.733 389.997 150.359 389.992 151V151Z" fill="white"/>
<path d="M386.984 313C386.994 314.282 386.604 315.534 385.869 316.584C385.134 317.634 384.09 318.429 382.883 318.859L357.922 327.922L348.859 352.883C348.415 354.079 347.616 355.11 346.569 355.839C345.521 356.567 344.276 356.958 343 356.958C341.724 356.958 340.479 356.567 339.431 355.839C338.384 355.11 337.585 354.079 337.141 352.883L328.078 327.922L303.117 318.859C301.921 318.415 300.89 317.616 300.161 316.568C299.433 315.521 299.042 314.276 299.042 313C299.042 311.724 299.433 310.479 300.161 309.431C300.89 308.384 301.921 307.584 303.117 307.141L328.078 298.078L337.141 273.117C337.585 271.921 338.384 270.889 339.431 270.161C340.479 269.432 341.724 269.042 343 269.042C344.276 269.042 345.521 269.432 346.569 270.161C347.616 270.889 348.415 271.921 348.859 273.117L357.922 298.078L382.883 307.141C384.09 307.57 385.134 308.366 385.869 309.416C386.604 310.466 386.994 311.718 386.984 313V313Z" fill="white"/>
<path d="M175.984 465C175.994 466.282 175.604 467.534 174.869 468.584C174.134 469.634 173.09 470.429 171.883 470.859L146.922 479.922L137.859 504.883C137.415 506.079 136.616 507.11 135.569 507.839C134.521 508.567 133.276 508.958 132 508.958C130.724 508.958 129.479 508.567 128.431 507.839C127.384 507.11 126.585 506.079 126.141 504.883L117.078 479.922L92.1172 470.859C90.9211 470.415 89.8895 469.616 89.161 468.568C88.4326 467.521 88.0421 466.276 88.0421 465C88.0421 463.724 88.4326 462.479 89.161 461.431C89.8895 460.384 90.9211 459.584 92.1172 459.141L117.078 450.078L126.141 425.117C126.585 423.921 127.384 422.889 128.431 422.161C129.479 421.432 130.724 421.042 132 421.042C133.276 421.042 134.521 421.432 135.569 422.161C136.616 422.889 137.415 423.921 137.859 425.117L146.922 450.078L171.883 459.141C173.09 459.57 174.134 460.366 174.869 461.416C175.604 462.466 175.994 463.718 175.984 465V465Z" fill="white"/>
<path d="M799.984 879C799.994 880.282 799.604 881.534 798.869 882.584C798.134 883.634 797.09 884.429 795.883 884.859L770.922 893.922L761.859 918.883C761.415 920.079 760.616 921.11 759.569 921.839C758.521 922.567 757.276 922.958 756 922.958C754.724 922.958 753.479 922.567 752.431 921.839C751.384 921.11 750.585 920.079 750.141 918.883L741.078 893.922L716.117 884.859C714.921 884.415 713.89 883.616 713.161 882.568C712.433 881.521 712.042 880.276 712.042 879C712.042 877.724 712.433 876.479 713.161 875.431C713.89 874.384 714.921 873.584 716.117 873.141L741.078 864.078L750.141 839.117C750.585 837.921 751.384 836.889 752.431 836.161C753.479 835.432 754.724 835.042 756 835.042C757.276 835.042 758.521 835.432 759.569 836.161C760.616 836.889 761.415 837.921 761.859 839.117L770.922 864.078L795.883 873.141C797.09 873.57 798.134 874.366 798.869 875.416C799.604 876.466 799.994 877.718 799.984 879V879Z" fill="white"/>
<path d="M1315.87 111.593C1314.8 102.217 1309.51 80.4762 1296.97 68.494ZM1296.15 120.129C1292.52 106.455 1278.53 74.6322 1251.65 56.754ZM1276 120.367C1271.52 112.836 1259.8 95.4309 1248.79 86.03ZM1315.68 142.511L1332.2 150.462L1315.5 158.28L1312.56 174.038L1298.87 160.842L1282.2 166.037L1290.69 150.301L1282.56 134.497L1299.1 139.82L1313.09 126.732L1315.68 142.511Z" fill="#FFF9F9"/>
<path d="M1315.87 111.593C1314.8 102.217 1309.51 80.4762 1296.97 68.494M1296.15 120.129C1292.52 106.455 1278.53 74.6322 1251.65 56.754M1276 120.367C1271.52 112.836 1259.8 95.4309 1248.79 86.03M1315.68 142.511L1332.2 150.462L1315.5 158.28L1312.56 174.038L1298.87 160.842L1282.2 166.037L1290.69 150.301L1282.56 134.497L1299.1 139.82L1313.09 126.732L1315.68 142.511Z" stroke="white" stroke-width="12.5" stroke-linecap="round" stroke-linejoin="round"/>
<path d="M221.776 95.6427C213.077 90.9378 191.26 82.1468 173.563 84.6179ZM217.513 115.639C203.608 110.347 167.989 102.233 136.78 112.115ZM205.854 131.078C196.734 130.049 174.859 128.698 160.288 131.522ZM248.272 113.987L264.834 106.131L261.732 123.41L273.561 134.92L254.144 137.547L248.802 153.26L240.255 137.555L221.873 134.42L236.193 124.992L233.166 106.668L248.272 113.987Z" fill="#FFF9F9"/>
<path d="M221.776 95.6427C213.077 90.9378 191.26 82.1468 173.563 84.6179M217.513 115.639C203.608 110.347 167.989 102.233 136.78 112.115M205.854 131.078C196.734 130.049 174.859 128.698 160.288 131.522M248.272 113.987L264.834 106.131L261.732 123.41L273.561 134.92L254.144 137.547L248.802 153.26L240.255 137.555L221.873 134.42L236.193 124.992L233.166 106.668L248.272 113.987Z" stroke="white" stroke-width="12.5" stroke-linecap="round" stroke-linejoin="round"/>
<path d="M834.688 771.072C825.878 762.705 825.518 748.78 833.885 739.969L1091.59 468.589C1099.96 459.778 1113.89 459.418 1122.7 467.785L1263.52 601.513C1267.52 605.316 1267.69 611.646 1263.88 615.65L989.648 904.434C985.844 908.439 979.515 908.603 975.51 904.8L834.688 771.072Z" fill="#493338"/>
<path d="M834.688 771.072C825.878 762.705 825.518 748.78 833.885 739.969L1041.02 521.851C1049.38 513.04 1063.31 512.681 1072.12 521.047L1220.19 661.661L989.648 904.434C985.844 908.439 979.515 908.603 975.51 904.8L834.688 771.072Z" fill="#655155"/>
<rect x="870.186" y="804.781" width="344.797" height="24.2574" rx="12.1287" transform="rotate(-46.4801 870.186 804.781)" fill="#BFB5B7" fill-opacity="0.4"/>
<rect x="920.317" y="852.387" width="344.797" height="24.2574" rx="12.1287" transform="rotate(-46.4801 920.317 852.387)" fill="#BFB5B7" fill-opacity="0.4"/>
<ellipse cx="883.154" cy="757.659" rx="13.3548" ry="13.3416" transform="rotate(-46.4801 883.154 757.659)" fill="#BFB5B7" fill-opacity="0.6"/>
<ellipse cx="1038.24" cy="594.351" rx="13.3548" ry="13.3416" transform="rotate(-46.4801 1038.24 594.351)" fill="#BFB5B7" fill-opacity="0.6"/>
<ellipse cx="1087.93" cy="641.54" rx="13.3548" ry="13.3416" transform="rotate(-46.4801 1087.93 641.54)" fill="#BFB5B7" fill-opacity="0.6"/>
<ellipse cx="1139.82" cy="690.816" rx="13.3548" ry="13.3416" transform="rotate(-46.4801 1139.82 690.816)" fill="#BFB5B7" fill-opacity="0.6"/>
<ellipse cx="984.736" cy="854.124" rx="13.3548" ry="13.3416" transform="rotate(-46.4801 984.736 854.124)" fill="#BFB5B7" fill-opacity="0.6"/>
<ellipse cx="932.846" cy="804.848" rx="13.3548" ry="13.3416" transform="rotate(-46.4801 932.846 804.848)" fill="#BFB5B7" fill-opacity="0.6"/>
<path d="M1124.53 171.183L1121.63 179.829L1133.87 187.006L1137.31 182.549L1141.41 179.259L1145.84 176.676L1149.2 175.486L1155.5 173.664L1162.07 172.056L1166.51 155.941L1167.86 154.762L1176.01 134.404L1181.29 132.464L1175.77 117.144L1163.57 110.213L1147.84 111.009L1148.74 117.908L1131.5 124.414L1132.43 131.561L1122.22 147.676L1125.4 166.308L1124.53 171.183Z" fill="#37B94C" stroke="#37B94C"/>
<path d="M1039.86 325.554L1040.49 326.475L1050.93 325.617L1053.02 324.341L1056.87 321.084L1062.07 316.647L1068.13 311.097L1073.66 305.364L1078.06 300.531L1083.74 294.027L1089.46 287.769L1095.15 281.264L1104.45 269.777L1112.01 260.273L1117.2 253.833L1122.57 246.868L1127.67 239.689L1130.65 235.542L1133.23 232.199L1135.56 228.888L1138.78 224.709L1140.92 219.919L1142.63 215.687L1142.65 211.926L1140.85 198.127L1139.41 194.805L1138.44 193.177L1136.23 189.706L1133.94 187.499L1131.67 185.539L1129.69 183.793L1126.71 182.175L1123.52 180.836L1121.66 180.076L1119.31 179.38L1116.96 178.684L1114.15 178.298L1112.66 178.492L1108.96 178.974L1106.49 179.296L1104.05 179.864L1101.4 180.711L1098.56 182.083L1096.89 182.801L1095.23 183.519L1093.38 184.762L1092.03 185.941L1090.74 187.612L1086.78 193.891L1080.97 205.174L1066.65 236.108L1061.31 249.084L1056.85 259.188L1053.31 268.671L1047.24 285.75L1044.98 291.557L1043.77 295.725L1042.34 300.172L1041.64 302.518L1040.91 304.618L1040.27 307.458L1039.88 310.265L1039.25 313.104L1038.87 317.915L1039.86 325.554Z" fill="#FF7B00" stroke="#FF7B00"/>
<ellipse cx="1162.5" cy="163.731" rx="12.2077" ry="8.69761" transform="rotate(-7.42088 1162.5 163.731)" fill="#37B94C"/>
<ellipse cx="1171.15" cy="145.312" rx="13.2042" ry="10.4371" transform="rotate(-7.42088 1171.15 145.312)" fill="#37B94C"/>
<ellipse cx="1178.91" cy="125.758" rx="8.96892" ry="9.44311" transform="rotate(-7.42088 1178.91 125.758)" fill="#37B94C"/>
<ellipse cx="1170.84" cy="112.023" rx="7.72324" ry="7.70359" transform="rotate(-7.42088 1170.84 112.023)" fill="#37B94C"/>
<ellipse cx="1155.62" cy="108.993" rx="8.47065" ry="8.2006" transform="rotate(-7.42088 1155.62 108.993)" fill="#37B94C"/>
<ellipse cx="1139.77" cy="122.334" rx="9.46719" ry="10.4371" transform="rotate(-7.42088 1139.77 122.334)" fill="#37B94C"/>
<ellipse cx="1128.25" cy="141.879" rx="8.96892" ry="10.4371" transform="rotate(-7.42088 1128.25 141.879)" fill="#37B94C"/>
<path d="M1096.09 194.24L1098.68 194.83L1099.98 195.162L1101.56 195.709L1103.94 196.651L1106.36 197.84L1108.52 199.061L1110.45 200.314L1112.4 201.814L1114.39 203.56" stroke="#B74600" stroke-opacity="0.4" stroke-width="13" stroke-linecap="round"/>
<path d="M1133.21 197.367L1131.05 184.617L1135.02 188.11L1138.32 192.191L1141.06 197.848L1142.98 210.63L1142.88 215.655L1142.12 217.508L1139.24 224.398L1123.22 246.032L1115.05 256.619L1106.85 266.959L1097.97 277.889L1089.03 288.326L1070.59 308.771L1053.98 323.966L1050.71 325.895L1043.27 326.614L1041.26 326.625L1124.23 219.086L1126.99 215.218L1128.9 212.464L1129.91 210.578L1131.1 208.167L1132.29 205.756L1133.08 202.145L1133.21 197.367Z" fill="#DE6C03"/>
<path d="M1050.98 300.565L1052.16 300.968L1052.75 301.181L1053.49 301.482L1054.61 301.971L1055.76 302.535L1056.81 303.087L1057.76 303.627L1058.74 304.242L1059.75 304.933" stroke="#B74600" stroke-opacity="0.4" stroke-width="13" stroke-linecap="round"/>
<path d="M1065.93 261.027L1067.11 261.43L1067.7 261.643L1068.44 261.944L1069.55 262.433L1070.71 262.998L1071.76 263.55L1072.7 264.089L1073.69 264.704L1074.7 265.395" stroke="#B74600" stroke-opacity="0.4" stroke-width="13" stroke-linecap="round"/>
<path d="M1074.42 236.157L1076.19 236.353L1077.08 236.484L1078.13 236.777L1079.71 237.329L1081.28 238.107L1082.67 238.948L1083.88 239.854L1085.07 240.985L1086.25 242.341" stroke="#B74600" stroke-opacity="0.4" stroke-width="13" stroke-linecap="round"/>
<path d="M1098.25 218.518L1101.17 219.273L1102.65 219.689L1104.44 220.341L1107.16 221.447L1109.93 222.808L1112.43 224.188L1114.65 225.586L1116.92 227.24L1119.24 229.149" stroke="#B74600" stroke-opacity="0.4" stroke-width="13" stroke-linecap="round"/>
<path d="M770.977 374.309L784.035 367.489L798.612 405.108L771.726 460.286L769.198 458.704L763.723 452.93L758.277 445.704L753.437 437.976L749.205 429.746L745.604 421.912L742.768 414.262L740.247 407.983L738.857 402.706L744.163 397.503L751.607 389.817L760.897 381.522L770.977 374.309Z" fill="#5CE170" stroke="#5CE170"/>
<path d="M744.414 349.764L744.424 342.718L753.129 338.171L761.517 334.601L769.165 331.744L776.892 329.231L783.062 327.8L792.421 326.894L784.035 367.489L751 390.319L749.792 386.625L747.51 379.027L745.652 369.344L744.74 361.428L744.414 349.764Z" fill="#5CE170" stroke="#5CE170"/>
<path d="M818.184 377.091L816.353 385.643L931.047 460.012L938.07 452.063L944.675 441.501L951.126 427.905L955.416 413.545L956.842 392.986L955.051 373.354L950.718 361.536L942.747 350.38L936.879 342.89L927.137 335.035L913.259 324.887L898.482 317.116L880.805 309.294L870.899 305.449L860.077 315.725L841.968 334.372L830.215 350.823L821.493 367.113L818.184 377.091Z" fill="#30D65C" stroke="#30D65C"/>
<path d="M872.077 331.755L882.895 342.844L891.402 354.69L896.394 363.153L899.47 371.013M899.47 371.013L902.622 379.971L904.992 388.468L907.665 402.667M899.47 371.013L896.333 374.427L888.314 373.652L882.722 372.727L875.997 370.346L872.518 368.824L869.039 367.302L865.794 365.787L862.55 364.272M899.47 371.013L902.413 366.17L904.379 360.752L905.214 353.878L905.929 347.986L905.822 342.4L903.808 335.746M907.665 402.667L908.355 409.912M907.665 402.667L914.079 394.815L916.45 388.618L917.512 382.296L917.863 376.579" stroke="#4DFC7B" stroke-width="13" stroke-linecap="round"/>
<ellipse cx="866.145" cy="443.814" rx="68.7617" ry="66.5988" transform="rotate(-57.9798 866.145 443.814)" fill="#5CE170"/>
<path d="M795.43 399.885L799.508 405.08L817.696 386.776L837.024 345.09L863.005 314.323L859.845 312.347L853.863 310.663L847.961 309.323L836.944 307.723L823.186 306.759L811.245 306.637L800.225 307.386L796.866 315.57L792.182 328.214L787.203 345.082L784.416 358.912L784.481 368.65L785.207 377.331L786.333 383.031L790.615 393.055L795.43 399.885Z" fill="#30D65C" stroke="#30D65C"/>
<path d="M854.774 375.29L866.583 375.623L899.514 502L876.827 514.845L860.926 518.712L844.161 518.806L825.717 513.149L809.465 504.455L795.98 496.022L787.159 489.036L777.206 481.049L770.889 474.748L768.1 471.24L771.673 460.84L774.082 453.237L777.92 442.414L782.81 432.25L788.812 419.842L796.341 407.801L804.21 398.03L811.865 390.476L819.095 385.007L828.486 380.301L837.11 377.76L847.208 376.142L854.774 375.29Z" fill="#5CE170" stroke="#5CE170"/>
<path d="M816.162 444.011C812.715 443.023 809.115 445.023 808.121 448.477C807.128 451.931 809.117 455.531 812.564 456.518L816.162 444.011ZM880.644 450.004L882.596 456.204L882.916 456.102L883.224 455.968L880.644 450.004ZM844.732 456.343L844.012 462.809L844.35 462.846L844.689 462.847L844.732 456.343ZM829.92 454.72L828.121 460.974L828.651 461.126L829.2 461.186L829.92 454.72ZM854.67 456.387L854.627 462.891L855.247 462.894L855.857 462.779L854.67 456.387ZM872.231 452.677L873.683 459.013L873.936 458.955L874.183 458.876L872.231 452.677ZM893.937 444.213L896.518 450.177L896.841 450.036L897.147 449.861L893.937 444.213ZM900.322 440.566L903.531 446.213L903.89 446.009L904.22 445.76L900.322 440.566ZM917.499 428.095L915.896 421.795L914.725 422.097L913.739 422.799L917.499 428.095ZM901.731 431.75L906.584 427.416L905.967 426.724L905.181 426.232L901.731 431.75ZM894.778 427.402L898.228 421.884L897.633 421.512L896.972 421.276L894.778 427.402ZM887.111 424.665L889.305 418.538L888.84 418.372L888.355 418.278L887.111 424.665ZM881.556 416.965C878.035 416.285 874.624 418.592 873.936 422.12C873.249 425.647 875.547 429.058 879.068 429.738L881.556 416.965ZM905.168 443.596L911.54 444.842L911.602 444.527L911.633 444.208L905.168 443.596ZM903.415 452.491L909.591 454.493L909.713 454.121L909.788 453.736L903.415 452.491ZM895.015 457.326C893.904 460.744 895.768 464.411 899.179 465.516C902.59 466.622 906.256 464.748 907.368 461.33L895.015 457.326ZM863.932 449.544L870.323 450.691L870.804 448.039L869.271 445.828L863.932 449.544ZM858.539 441.764L863.878 438.048L863.768 437.889L863.649 437.737L858.539 441.764ZM854.461 436.569L859.571 432.542L859.249 432.132L858.866 431.779L854.461 436.569ZM848.511 431.085L852.916 426.295L852.753 426.145L852.58 426.006L848.511 431.085ZM841.876 425.76L845.945 420.682L845.885 420.634L845.824 420.587L841.876 425.76ZM839.478 415.737C836.629 413.56 832.552 414.111 830.371 416.968C828.191 419.825 828.732 423.906 831.581 426.084L839.478 415.737ZM845.193 428.423L849.262 423.344L849.262 423.344L845.193 428.423ZM860.727 460.763L866.23 464.206L866.572 463.659L866.8 463.057L860.727 460.763ZM857.424 466.043L861.926 470.722L862.503 470.166L862.928 469.486L857.424 466.043ZM852.251 471.036L847.748 466.357L847.748 466.357L852.251 471.036ZM847.816 475.315L851.515 480.653L851.943 480.355L852.319 479.993L847.816 475.315ZM843.146 478.565L844.934 484.813L845.964 484.516L846.845 483.903L843.146 478.565ZM834.676 474.247C831.227 475.243 829.232 478.849 830.22 482.3C831.208 485.751 834.804 487.741 838.253 486.744L834.676 474.247ZM845.453 449.878L830.641 448.255L829.2 461.186L844.012 462.809L845.453 449.878ZM831.719 448.467L816.162 444.011L812.564 456.518L828.121 460.974L831.719 448.467ZM861.788 448.431L853.483 449.995L855.857 462.779L864.163 461.215L861.788 448.431ZM854.713 449.883L844.775 449.839L844.689 462.847L854.627 462.891L854.713 449.883ZM878.691 443.805L870.279 446.478L874.183 458.876L882.596 456.204L878.691 443.805ZM870.779 446.341L861.524 448.487L864.428 461.159L873.683 459.013L870.779 446.341ZM891.357 438.25L878.063 444.041L883.224 455.968L896.518 450.177L891.357 438.25ZM901.965 431.197L896.424 435.371L904.22 445.76L909.761 441.586L901.965 431.197ZM897.112 434.918L890.727 438.566L897.147 449.861L903.531 446.213L897.112 434.918ZM929.282 418.351L915.896 421.795L919.103 434.394L932.49 430.95L929.282 418.351ZM913.739 422.799L902.103 431.096L909.623 441.687L921.26 433.39L913.739 422.799ZM910.716 432.057L906.584 427.416L896.878 436.085L901.01 440.726L910.716 432.057ZM905.181 426.232L898.228 421.884L891.328 432.921L898.281 437.269L905.181 426.232ZM896.972 421.276L889.305 418.538L884.917 430.791L892.584 433.529L896.972 421.276ZM888.355 418.278L881.556 416.965L879.068 429.738L885.867 431.051L888.355 418.278ZM899.397 435.78L898.702 442.985L911.633 444.208L912.329 437.003L899.397 435.78ZM898.795 442.351L897.042 451.246L909.788 453.736L911.54 444.842L898.795 442.351ZM897.239 450.489L895.015 457.326L907.368 461.33L909.591 454.493L897.239 450.489ZM869.367 455.97L870.323 450.691L857.541 448.397L856.584 453.676L869.367 455.97ZM869.271 445.828L863.878 438.048L853.2 445.48L858.593 453.261L869.271 445.828ZM863.649 437.737L859.571 432.542L849.35 440.595L853.429 445.79L863.649 437.737ZM858.866 431.779L852.916 426.295L844.106 435.875L850.056 441.359L858.866 431.779ZM845.824 420.587L842.651 418.162L834.754 428.509L837.927 430.934L845.824 420.587ZM842.651 418.162L839.478 415.737L831.581 426.084L834.754 428.509L842.651 418.162ZM852.58 426.006L849.262 423.344L841.124 433.501L844.442 436.164L852.58 426.006ZM849.262 423.344L845.945 420.682L837.806 430.839L841.124 433.501L849.262 423.344ZM856.902 452.529L854.653 458.468L866.8 463.057L869.049 457.117L856.902 452.529ZM855.223 457.319L851.921 462.6L862.928 469.486L866.23 464.206L855.223 457.319ZM852.922 461.365L847.748 466.357L856.753 475.714L861.926 470.722L852.922 461.365ZM847.748 466.357L843.314 470.636L852.319 479.993L856.753 475.714L847.748 466.357ZM844.117 469.976L839.447 473.226L846.845 483.903L851.515 480.653L844.117 469.976ZM841.357 472.316L834.676 474.247L838.253 486.744L844.934 484.813L841.357 472.316Z" fill="#97F4A5"/>
<path d="M541.073 634.15L549.714 631.224L548.09 617.122L542.465 617.078L537.38 615.806L532.653 613.831L529.683 611.871L524.447 607.955L519.214 603.687L503.686 609.906L501.932 609.54L480.782 615.362L476.065 612.331L467.146 625.999L468.947 639.926L479.028 651.981L483.996 647.088L499.547 656.896L504.693 651.829L523.693 650.217L536.657 636.405L541.073 634.15Z" fill="#37B94C" stroke="#37B94C"/>
<path d="M715.168 608.216L715.529 607.162L708.572 599.358L706.295 598.46L701.384 597.365L694.718 595.904L686.646 594.432L678.745 593.489L672.247 592.91L663.639 592.314L655.209 591.544L646.601 590.948L631.84 590.48L619.714 590.209L611.454 589.968L602.666 589.899L593.874 590.183L588.775 590.319L584.556 590.286L580.512 590.43L575.239 590.389L570.13 591.582L565.724 592.78L562.714 595.046L552.777 604.831L550.989 607.987L550.27 609.742L548.827 613.606L548.445 616.773L548.241 619.765L548.04 622.405L548.535 625.755L549.382 629.108L549.891 631.049L550.748 633.346L551.605 635.642L552.988 638.118L554.032 639.183L556.644 641.845L558.385 643.62L560.303 645.22L562.573 646.823L565.372 648.254L566.946 649.147L568.519 650.04L570.622 650.761L572.376 651.127L574.485 651.143L581.874 650.496L594.376 648.305L627.668 640.993L641.237 637.4L651.984 634.843L661.68 631.925L678.959 626.424L684.952 624.71L689.01 623.157L693.419 621.606L695.712 620.744L697.828 620.056L700.476 618.844L702.951 617.454L705.599 616.242L709.667 613.632L715.168 608.216Z" fill="#FF7B00" stroke="#FF7B00"/>
<ellipse rx="12.1819" ry="8.71603" transform="matrix(-0.700265 -0.713883 0.712543 -0.701628 512.314 608.389)" fill="#37B94C"/>
<ellipse rx="13.1764" ry="10.4592" transform="matrix(-0.700265 -0.713883 0.712543 -0.701628 492.41 612.636)" fill="#37B94C"/>
<ellipse rx="8.94998" ry="9.46312" transform="matrix(-0.700265 -0.713883 0.712543 -0.701628 472.141 618.289)" fill="#37B94C"/>
<ellipse rx="7.70693" ry="7.71991" transform="matrix(-0.700265 -0.713883 0.712543 -0.701628 466.024 633.034)" fill="#37B94C"/>
<ellipse rx="8.45276" ry="8.21797" transform="matrix(-0.700265 -0.713883 0.712543 -0.701628 472.747 647)" fill="#37B94C"/>
<ellipse rx="9.4472" ry="10.4592" transform="matrix(-0.700265 -0.713883 0.712543 -0.701628 492.918 651.561)" fill="#37B94C"/>
<ellipse rx="8.94998" ry="10.4592" transform="matrix(-0.700265 -0.713883 0.712543 -0.701628 515.444 648.919)" fill="#37B94C"/>
<path d="M576.562 642.865L575.478 640.445L574.963 639.208L574.451 637.619L573.771 635.148L573.269 632.503L572.941 630.034L572.787 627.744L572.81 625.278L573.011 622.638" stroke="#B74600" stroke-opacity="0.4" stroke-width="13" stroke-linecap="round"/>
<path d="M556.758 611.378L547.879 620.819L548.281 615.539L549.56 610.441L552.426 604.828L561.479 595.565L565.55 592.603L567.488 592.09L574.713 590.209L601.611 589.891L614.969 589.996L628.15 590.275L642.209 590.737L655.912 591.549L683.312 593.877L705.422 597.925L708.924 599.361L713.969 604.86L715.184 606.455L579.491 605.392L574.743 605.531L571.402 605.681L569.289 606.017L566.648 606.524L564.006 607.032L560.652 608.591L556.758 611.378Z" fill="#DE6C03"/>
<path d="M688.538 614.474L688.154 613.293L687.967 612.691L687.767 611.924L687.485 610.737L687.243 609.475L687.053 608.304L686.915 607.224L686.817 606.069L686.757 604.84" stroke="#B74600" stroke-opacity="0.4" stroke-width="13" stroke-linecap="round"/>
<path d="M647.994 626.484L647.61 625.304L647.423 624.702L647.223 623.935L646.941 622.747L646.698 621.486L646.508 620.314L646.371 619.234L646.273 618.079L646.213 616.85" stroke="#B74600" stroke-opacity="0.4" stroke-width="13" stroke-linecap="round"/>
<path d="M623.045 634.775L622.135 633.242L621.707 632.456L621.306 631.436L620.798 629.843L620.476 628.121L620.315 626.506L620.313 624.997L620.499 623.36L620.87 621.595" stroke="#B74600" stroke-opacity="0.4" stroke-width="13" stroke-linecap="round"/>
<path d="M594.647 626.451L593.492 623.661L592.939 622.236L592.381 620.409L591.63 617.571L591.052 614.539L590.654 611.715L590.437 609.097L590.392 606.285L590.522 603.279" stroke="#B74600" stroke-opacity="0.4" stroke-width="13" stroke-linecap="round"/>
<path d="M477.189 310.422L482.355 303.436L484.081 306.431L486.171 310.187L488.047 313.293L490.886 317.603L492.033 319.188L491.328 320.141L488.806 320.731L483.335 324.054L479.533 327.628L473.918 334.282L473.671 333.362L473.391 332.173L473.261 331.095L473.067 329.477L472.937 328.399L472.742 326.781L472.73 325.544L472.717 324.307L472.855 323.181L473.025 322.324L473.194 321.467L473.364 320.611L473.534 319.754L473.704 318.897L474.109 317.723L474.279 316.866L474.683 315.692L475.323 314.2L476.08 312.549L476.517 311.645L476.837 310.899L477.189 310.422Z" fill="#DC143C"/>
<path d="M504.563 287.194L507.001 287.032L508.07 286.84L509.022 286.807L506.483 290.241L505.597 292.379L503.444 297.173L501.453 303.314L502.162 305.803L498.877 304.602L498.578 304.38L497.294 303.922L494.993 302.958L492.511 301.614L491.494 301.107L490.445 300.332L486.816 297.403L487.403 296.609L488.877 295.243L490.116 294.194L491.12 293.463L492.124 292.732L493.128 292.001L494.132 291.27L495.671 290.443L497.21 289.616L498.514 289.107L501.004 288.246L502.842 287.641L504.563 287.194Z" fill="#DC143C"/>
<path d="M488.926 314.926L491.798 319.506L502.077 305.604L501.36 305.32L499.924 304.753L498.789 304.408L497.354 303.841L495.469 302.942L493.284 301.821L491.55 301.033L486.391 296.724L485.428 295.518L484.466 294.312L483.803 293.327L483.14 292.343L482.051 290.054L481.821 286.917L481.654 284.322L481.636 281.837L481.965 277.631L482.089 274.015L479.692 272.242L478.106 271.564L476.853 271.379L475.481 271.353L474.291 271.709L472.518 274.106L472.267 276.64L474.812 286.679L477.03 292.769L481.391 302.232L482.387 303.706L484.478 307.462L486.75 311.598L488.926 314.926Z" fill="#37B94C"/>
<path d="M487.581 332.105L490.272 321.57L506.004 300.293L517.799 292.806L528.477 289.65L541.747 289.885L548.851 292.19L553.999 295.26L572.184 307.97L586.126 321.717L600.197 336.542L606.853 347.603L610.265 355.529L610.756 363.014L609.482 369.44L606.932 373.203L604.231 376.854L592.373 392.891L590.815 394.686L588.956 396.258L587.45 397.355L586.061 398.293L584.288 399.437L582.097 400.519L577.918 402.095L574.711 402.671L572.306 403.103L569.366 403.63L566.713 403.142L558.391 400.918L550.271 398.107L542.503 394.819L535.505 391.117L527.092 385.88L518.081 380.199L500.228 367.98L495.002 363.134L491.101 356.811L487.32 344.683L487.581 332.105Z" fill="#FE1745"/>
<path d="M501.453 303.313L502.162 305.803L507.19 299.943L518.483 292.821L528.477 289.65L541.48 289.933L549.3 292.522L572.431 308.889L588.985 325.059L600.38 336.922L608.441 351.725L612.668 346.009L612.89 344.454L613.473 340.218L612.524 334.605L611.17 330.166L608.735 324.682L606.195 320.593L602.724 315.57L598.535 310.263L595.643 306.651L592.633 303.198L589.506 299.903L586.562 296.989L582.236 292.808L579.708 289.957L576.411 287.519L573.467 284.605L571.121 282.134L569.141 280.424L561.198 274.551L558.983 273.158L556.832 272.305L555.366 271.466L552.948 270.661L550.413 270.014L547.995 269.209L545.91 268.895L543.557 268.628L540.135 268.554L534.607 269.133L529.679 270.155L526.505 271L521.974 273.053L517.455 276.343L514.892 278.868L513.248 281.091L509.492 286.172L506.556 290.142L504.723 294.189L503.444 297.172L502.23 300.695L501.453 303.313Z" fill="#F41643"/>
<path d="M488.806 320.731L491.328 320.14L490.389 321.411L487.613 332.375L487.47 344.794L491.251 356.922L495.302 363.355L500.645 368.043L520.146 381.48L535.654 391.228L542.471 394.549L558.658 400.87L571.139 402.486L561.949 414.601L558.872 416.255L556.115 417.163L552.94 418.008L550.235 418.218L546.396 418.081L538.353 417.046L527.698 413.588L518.946 410.063L514.013 407.644L509.497 405.287L505.698 403.215L502.916 401.648L499.684 399.75L496.602 397.962L492.653 395.779L488.522 393.215L486.788 392.425L485.739 391.649L480.494 387.771L477.797 385.776L476.383 384.24L474.005 381.499L472.677 379.534L470.684 376.587L468.958 373.592L467.434 370.01L466.296 366.221L465.112 360.925L464.9 354.628L465.247 350.71L466.194 347.235L467.206 344.3L467.493 343.284L468.635 341.427L470.513 338.886L474.036 334.123L476.299 331.376L479.533 327.628L480.505 326.627L483.335 324.054L484.841 322.957L486.882 321.765L488.806 320.731Z" fill="#F41643"/>
<path d="M949.984 684.484L954.824 689.001L933.857 711.47L929.829 708.272L921.335 676.022L925.912 671.117L929.844 684.724L934.453 701.127L949.984 684.484ZM927.151 669.789L958.338 698.891L952.581 705.06L921.395 675.958L927.151 669.789ZM966.007 653.915L971.405 658.952C973.747 661.137 975.534 663.273 976.767 665.358C977.985 667.43 978.698 669.444 978.903 671.399C979.108 673.327 978.868 675.173 978.183 676.938C977.498 678.703 976.422 680.371 974.956 681.941C973.784 683.198 972.534 684.222 971.207 685.014C969.866 685.793 968.446 686.298 966.948 686.53C965.463 686.747 963.906 686.683 962.278 686.339C960.648 685.967 958.952 685.265 957.189 684.235C955.426 683.204 953.602 681.809 951.717 680.05L946.319 675.013C943.977 672.828 942.204 670.706 941 668.647C939.794 666.56 939.089 664.553 938.885 662.626C938.693 660.684 938.947 658.837 939.647 657.086C940.332 655.321 941.407 653.653 942.873 652.082C944.046 650.826 945.296 649.815 946.624 649.051C947.951 648.259 949.356 647.74 950.84 647.495C952.324 647.251 953.881 647.314 955.51 647.686C957.126 648.045 958.815 648.74 960.578 649.77C962.327 650.788 964.136 652.169 966.007 653.915ZM966.442 665.902L959.395 659.326C958.267 658.273 957.222 657.418 956.259 656.76C955.31 656.088 954.43 655.6 953.618 655.297C952.792 654.98 952.026 654.827 951.322 654.837C950.617 654.848 949.966 655.002 949.369 655.299C948.771 655.596 948.212 656.023 947.692 656.58C947.039 657.279 946.595 658.027 946.36 658.823C946.139 659.604 946.154 660.461 946.408 661.392C946.647 662.309 947.166 663.328 947.964 664.447C948.762 665.539 949.861 666.738 951.26 668.043L958.307 674.619C959.435 675.672 960.481 676.541 961.444 677.226C962.421 677.897 963.33 678.398 964.17 678.728C965.01 679.031 965.782 679.191 966.488 679.208C967.192 679.197 967.843 679.043 968.441 678.746C969.052 678.435 969.617 678.001 970.137 677.444C970.777 676.759 971.207 676.025 971.429 675.244C971.65 674.435 971.634 673.564 971.38 672.634C971.126 671.675 970.593 670.643 969.781 669.538C968.969 668.433 967.856 667.221 966.442 665.902ZM996.995 634.105L1001.84 638.623L980.869 661.091L976.84 657.893L968.346 625.644L972.923 620.739L976.856 634.345L981.465 650.748L996.995 634.105ZM974.163 619.41L1005.35 648.513L999.593 654.682L968.406 625.579L974.163 619.41Z" fill="#493338"/>
</svg>
