<svg width="61" height="60" viewBox="0 0 61 60" fill="none" xmlns="http://www.w3.org/2000/svg">
<rect width="61" height="60" rx="20" fill="white"/>
<path fill-rule="evenodd" clip-rule="evenodd" d="M25.1571 0.38265C19.3905 1.46148 13.2013 5.00081 9.13339 9.5461C-0.780002 20.621 -0.693591 37.4102 9.33345 48.5398L11.7121 51.18L14.6473 50.8648L17.5825 50.5497V52.7729C17.5825 54.8621 17.6848 55.0403 19.2835 55.741C20.219 56.1507 21.17 56.486 21.3968 56.486C21.6236 56.486 21.8091 54.6371 21.8091 52.377C21.8091 49.0075 21.965 48.1198 22.6761 47.4452C23.4899 46.6731 23.6693 46.6962 25.6112 47.8243C29.5303 50.1011 33.0816 49.9239 36.9204 47.2605L38.7561 45.9867L39.5578 47.1744C40.0777 47.9445 40.4421 49.7067 40.5943 52.1894L40.8291 56.0168L42.9424 54.8976C44.7138 53.9591 45.0797 53.5189 45.2027 52.1766C45.3455 50.6251 45.4037 50.5847 47.0873 50.8668C48.7282 51.1421 48.9682 50.9993 51.4342 48.2827C56.1789 43.056 58.3425 37.8405 58.7557 30.6353C59.3442 20.3714 54.7104 10.7909 46.3388 4.96487C40.6971 1.03852 31.8639 -0.872462 25.1571 0.38265ZM22.2788 3.98599C22.2788 6.18994 23.304 6.50409 30.6875 6.56022C36.0717 6.60159 37.9714 6.79854 39.5465 7.47903C42.1689 8.61252 43.412 10.3118 43.412 12.7624C43.412 14.1155 43.8009 15.2323 44.7035 16.4736C46.4322 18.8499 46.4961 23.1445 44.851 26.4431C43.7948 28.5609 43.7323 28.6037 43.3374 27.484C42.7903 25.9325 42.6813 22.1396 43.1307 20.2699C43.4482 18.9513 43.3411 18.6958 42.2558 18.1773C40.4731 17.3259 36.6649 17.45 31.7958 18.5185C28.5877 19.2226 27.0032 19.3428 25.3083 19.0109C21.0187 18.1709 16.9748 14.7719 16.3929 11.5176C16.0022 9.33388 17.2805 6.14957 19.291 4.29866C21.2475 2.49748 22.2788 2.38965 22.2788 3.98599ZM18.9571 17.8996C19.4924 18.613 19.9283 19.7766 19.925 20.4846C19.9184 22.0406 18.8336 26.4485 18.1404 27.7361C17.691 28.5717 17.5576 28.4663 16.8259 26.6962C16.3783 25.6129 15.92 23.372 15.8073 21.7161C15.486 16.9886 16.9466 15.2195 18.9571 17.8996ZM41.5852 22.7816C41.5049 25.35 41.7406 26.9936 42.4911 29.0966C43.3829 31.596 43.4397 32.2184 42.9607 34.2421C40.6905 43.8344 34.668 49.397 28.4525 47.6421C24.8678 46.6303 21.3437 42.2819 19.4629 36.5505C18.2432 32.8334 18.2766 31.1967 19.6432 27.6426C20.2598 26.0388 20.9164 23.5434 21.1019 22.0977C21.4104 19.6938 21.5255 19.4984 22.4459 19.811C24.6551 20.5614 29.6261 20.5895 32.3758 19.8667C33.9255 19.4595 36.656 19.168 38.4438 19.2182L41.6941 19.3103L41.5852 22.7816ZM23.3697 25.3155C22.8071 25.4302 22.1275 25.8015 21.8594 26.1403C21.4757 26.6253 21.9552 26.7124 24.1103 26.549C26.5641 26.3628 26.929 26.4608 27.6166 27.4899C28.0387 28.1217 28.3839 29.0326 28.3839 29.5142C28.3839 29.9952 28.6046 30.3891 28.8747 30.3891C29.5674 30.3891 28.9118 26.9089 28.0167 25.8345C27.3291 25.0087 25.7418 24.8315 23.3697 25.3155ZM33.5498 25.9576C32.8956 26.6435 32.6167 27.5781 32.6312 29.0351L32.6519 31.1277L33.3005 29.2197C33.6574 28.1699 34.1613 27.0891 34.4201 26.8178C34.9188 26.2949 38.9069 26.2112 39.6729 26.7075C39.9213 26.8685 40.1246 26.7764 40.1246 26.5022C40.1246 25.9527 37.2073 24.9797 35.5458 24.9758C34.9648 24.9743 34.0664 25.416 33.5498 25.9576ZM24.1761 28.1497C23.2772 29.2852 23.783 30.6176 25.1778 30.787C26.1062 30.9002 26.5049 30.6737 26.7388 29.9017C27.3146 27.9991 25.3553 26.6597 24.1761 28.1497ZM34.7366 28.2305C34.3191 28.6682 34.0523 29.2616 34.1439 29.5496C34.4196 30.4172 35.7209 31.0583 36.5386 30.7294C37.5215 30.3335 37.5403 28.1266 36.5639 27.7337C35.5683 27.3328 35.6012 27.324 34.7366 28.2305ZM16.8386 30.5122C16.956 31.1213 17.1631 32.3956 17.2988 33.3435C17.435 34.2914 17.6928 35.6208 17.8727 36.2979C18.1916 37.4988 18.1766 37.5077 17.2519 36.6524C16.7301 36.1708 15.9242 34.8945 15.4607 33.8167C14.783 32.2405 14.7224 31.6172 15.1507 30.6304C15.8138 29.1055 16.5577 29.0533 16.8386 30.5122ZM46.4928 31.0706C46.6661 31.7944 46.4022 33.0092 45.8043 34.2377C44.6476 36.615 43.5689 37.553 44.0545 35.7592C44.2311 35.1077 44.5049 33.5217 44.6636 32.2356C44.9759 29.6998 46.0077 29.0429 46.4928 31.0706ZM28.3839 34.4135C28.3839 35.0162 30.6001 35.4544 31.9061 35.1107C33.8518 34.5991 33.231 34.0255 30.7321 34.0255C29.4406 34.0255 28.3839 34.2003 28.3839 34.4135ZM23.7816 36.8887C22.885 37.8287 23.1264 39.6215 24.262 40.4551C25.693 41.5064 28.4821 41.4237 29.8576 40.2892C30.9669 39.3743 31.0087 39.3743 32.086 40.2892C33.5752 41.5537 36.547 41.5261 37.7765 40.237C38.8364 39.1257 38.9891 37.7662 38.1522 36.8887C37.3261 36.0226 36.6184 36.1669 37.3233 37.0571C37.7516 37.5983 37.7793 37.969 37.4205 38.3452C37.0617 38.7214 36.4658 38.5191 35.3509 37.6426C34.0862 36.6485 33.2418 36.4116 30.9669 36.4116C28.692 36.4116 27.8476 36.6485 26.5829 37.6426C25.468 38.5191 24.872 38.7214 24.5132 38.3452C24.1545 37.969 24.1822 37.5983 24.6105 37.0571C25.3154 36.1669 24.6076 36.0226 23.7816 36.8887ZM30.4719 51.6049C29.9882 52.4262 31.0763 53.3677 31.7244 52.6882C32.2663 52.12 31.9273 51.0697 31.2017 51.0697C30.9739 51.0697 30.6457 51.3105 30.4719 51.6049ZM30.4719 56.0365C29.9882 56.8578 31.0763 57.7992 31.7244 57.1197C32.2663 56.5515 31.9273 55.5012 31.2017 55.5012C30.9739 55.5012 30.6457 55.742 30.4719 56.0365Z" fill="#005D4B"/>
</svg>
